<svg width="107" height="32" viewBox="0 0 107 32" fill="none" xmlns="http://www.w3.org/2000/svg">
<path d="M102 0H31V32H102C104.761 32 107 29.7614 107 27V5C107 2.23858 104.761 0 102 0Z" fill="#0F1418"/>
<path d="M12.6155 16.6449C12.714 15.1104 13.5733 13.7583 14.8699 12.7999C16.1414 11.8586 17.853 11.2832 19.7204 11.2832C21.5859 11.2832 23.2974 11.8586 24.5699 12.7999C25.8655 13.7583 26.7249 15.1104 26.8243 16.6433C26.9226 18.22 26.1978 19.6848 24.9262 20.7706C23.6297 21.8751 21.7855 22.5682 19.7204 22.5682C17.6553 22.5682 15.8074 21.8751 14.5117 20.7706C13.2392 19.6848 12.5163 18.22 12.6155 16.6449Z" fill="white"/>
<path d="M16.0751 16.7826C16.1256 15.9952 16.5666 15.3015 17.2318 14.8097C17.8842 14.3267 18.7624 14.0315 19.7207 14.0315C20.6779 14.0315 21.5561 14.3267 22.2089 14.8097C22.8737 15.3015 23.3147 15.9952 23.3657 16.7818C23.4161 17.5908 23.0442 18.3424 22.3918 18.8996C21.7264 19.4663 20.7803 19.8219 19.7207 19.8219C18.661 19.8219 17.7128 19.4663 17.048 18.8996C16.3952 18.3424 16.0242 17.5908 16.0751 16.7826Z" fill="#265787"/>
<path d="M10.2699 18.3738C10.2761 18.6819 10.3885 19.2807 10.557 19.7483C10.9114 20.7381 11.5123 21.6537 12.3486 22.4607C13.2068 23.2902 14.2635 23.9564 15.4841 24.4294C16.7671 24.9261 18.1571 25.1793 19.6011 25.1772C21.0426 25.1756 22.4327 24.9174 23.7157 24.4169C24.9363 23.9393 25.9921 23.2702 26.8488 22.4403C27.6846 21.6299 28.2846 20.7126 28.6399 19.7229C28.8185 19.2227 28.9313 18.7152 28.9766 18.2059C29.0209 17.7042 29.0023 17.2016 28.9209 16.6995C28.7618 15.7209 28.3746 14.8027 27.7783 13.9658C27.2331 13.1967 26.5302 12.5234 25.6944 11.9567L25.6963 11.9554L17.2618 6.29283C17.2542 6.28783 17.2481 6.28243 17.2399 6.27785C16.6865 5.90641 15.756 5.90766 15.1474 6.27993C14.5321 6.65635 14.4617 7.27886 15.0093 7.67152L15.0069 7.6736L18.5248 10.1749L7.80254 10.1849H7.78826C6.90201 10.1857 6.05003 10.6941 5.88144 11.3366C5.70809 11.9912 6.31004 12.5341 7.23154 12.5371L7.23012 12.54L12.6648 12.5308L2.96692 19.0395C2.95455 19.0475 2.94121 19.0558 2.92979 19.0638C2.01494 19.6762 1.71922 20.6947 2.29545 21.3393C2.88026 21.9948 4.12368 21.996 5.04804 21.343L10.3408 17.5555C10.3408 17.5555 10.2637 18.0668 10.2699 18.3738ZM23.8704 20.086C22.7799 21.0575 21.2532 21.6084 19.6011 21.6113C17.9466 21.6138 16.4198 21.0679 15.3293 20.098C14.7965 19.6254 14.4049 19.0817 14.1635 18.5024C13.9268 17.9332 13.8349 17.329 13.8959 16.7194C13.9535 16.1235 14.1564 15.5552 14.4802 15.041C14.7984 14.5354 15.2365 14.0787 15.7774 13.6922C16.8376 12.9369 18.1871 12.528 19.5987 12.5263C21.0116 12.5246 22.3603 12.9297 23.4214 13.6826C23.9614 14.0674 24.3991 14.5225 24.7172 15.0271C25.0425 15.541 25.2439 16.1073 25.3038 16.7049C25.3639 17.3136 25.272 17.9169 25.0353 18.4866C24.7933 19.0675 24.4033 19.6112 23.8704 20.086Z" fill="#EA7600"/>
<path d="M46.014 15.6C46.624 15.73 47.114 16.035 47.484 16.515C47.854 16.985 48.039 17.525 48.039 18.135C48.039 19.015 47.729 19.715 47.109 20.235C46.499 20.745 45.644 21 44.544 21H39.639V10.47H44.379C45.449 10.47 46.284 10.715 46.884 11.205C47.494 11.695 47.799 12.36 47.799 13.2C47.799 13.82 47.634 14.335 47.304 14.745C46.984 15.155 46.554 15.44 46.014 15.6ZM42.204 14.73H43.884C44.304 14.73 44.624 14.64 44.844 14.46C45.074 14.27 45.189 13.995 45.189 13.635C45.189 13.275 45.074 13 44.844 12.81C44.624 12.62 44.304 12.525 43.884 12.525H42.204V14.73ZM44.094 18.93C44.524 18.93 44.854 18.835 45.084 18.645C45.324 18.445 45.444 18.16 45.444 17.79C45.444 17.42 45.319 17.13 45.069 16.92C44.829 16.71 44.494 16.605 44.064 16.605H42.204V18.93H44.094ZM52.2717 9.9V21H49.7067V9.9H52.2717ZM62.2005 16.68C62.2005 16.92 62.1855 17.17 62.1555 17.43H56.3505C56.3905 17.95 56.5555 18.35 56.8455 18.63C57.1455 18.9 57.5105 19.035 57.9405 19.035C58.5805 19.035 59.0255 18.765 59.2755 18.225H62.0055C61.8655 18.775 61.6105 19.27 61.2405 19.71C60.8805 20.15 60.4255 20.495 59.8755 20.745C59.3255 20.995 58.7105 21.12 58.0305 21.12C57.2105 21.12 56.4805 20.945 55.8405 20.595C55.2005 20.245 54.7005 19.745 54.3405 19.095C53.9805 18.445 53.8005 17.685 53.8005 16.815C53.8005 15.945 53.9755 15.185 54.3255 14.535C54.6855 13.885 55.1855 13.385 55.8255 13.035C56.4655 12.685 57.2005 12.51 58.0305 12.51C58.8405 12.51 59.5605 12.68 60.1905 13.02C60.8205 13.36 61.3105 13.845 61.6605 14.475C62.0205 15.105 62.2005 15.84 62.2005 16.68ZM59.5755 16.005C59.5755 15.565 59.4255 15.215 59.1255 14.955C58.8255 14.695 58.4505 14.565 58.0005 14.565C57.5705 14.565 57.2055 14.69 56.9055 14.94C56.6155 15.19 56.4355 15.545 56.3655 16.005H59.5755ZM68.8337 12.54C69.8137 12.54 70.5937 12.86 71.1737 13.5C71.7637 14.13 72.0587 15 72.0587 16.11V21H69.5087V16.455C69.5087 15.895 69.3637 15.46 69.0737 15.15C68.7837 14.84 68.3937 14.685 67.9037 14.685C67.4137 14.685 67.0237 14.84 66.7337 15.15C66.4437 15.46 66.2987 15.895 66.2987 16.455V21H63.7337V12.63H66.2987V13.74C66.5587 13.37 66.9087 13.08 67.3487 12.87C67.7887 12.65 68.2837 12.54 68.8337 12.54ZM73.5111 16.8C73.5111 15.94 73.6711 15.185 73.9911 14.535C74.3211 13.885 74.7661 13.385 75.3261 13.035C75.8861 12.685 76.5111 12.51 77.2011 12.51C77.7511 12.51 78.2511 12.625 78.7011 12.855C79.1611 13.085 79.5211 13.395 79.7811 13.785V9.9H82.3461V21H79.7811V19.8C79.5411 20.2 79.1961 20.52 78.7461 20.76C78.3061 21 77.7911 21.12 77.2011 21.12C76.5111 21.12 75.8861 20.945 75.3261 20.595C74.7661 20.235 74.3211 19.73 73.9911 19.08C73.6711 18.42 73.5111 17.66 73.5111 16.8ZM79.7811 16.815C79.7811 16.175 79.6011 15.67 79.2411 15.3C78.8911 14.93 78.4611 14.745 77.9511 14.745C77.4411 14.745 77.0061 14.93 76.6461 15.3C76.2961 15.66 76.1211 16.16 76.1211 16.8C76.1211 17.44 76.2961 17.95 76.6461 18.33C77.0061 18.7 77.4411 18.885 77.9511 18.885C78.4611 18.885 78.8911 18.7 79.2411 18.33C79.6011 17.96 79.7811 17.455 79.7811 16.815ZM92.2718 16.68C92.2718 16.92 92.2568 17.17 92.2268 17.43H86.4218C86.4618 17.95 86.6268 18.35 86.9168 18.63C87.2168 18.9 87.5818 19.035 88.0118 19.035C88.6518 19.035 89.0968 18.765 89.3468 18.225H92.0768C91.9368 18.775 91.6818 19.27 91.3118 19.71C90.9518 20.15 90.4968 20.495 89.9468 20.745C89.3968 20.995 88.7818 21.12 88.1018 21.12C87.2818 21.12 86.5518 20.945 85.9118 20.595C85.2718 20.245 84.7718 19.745 84.4118 19.095C84.0518 18.445 83.8718 17.685 83.8718 16.815C83.8718 15.945 84.0468 15.185 84.3968 14.535C84.7568 13.885 85.2568 13.385 85.8968 13.035C86.5368 12.685 87.2718 12.51 88.1018 12.51C88.9118 12.51 89.6318 12.68 90.2618 13.02C90.8918 13.36 91.3818 13.845 91.7318 14.475C92.0918 15.105 92.2718 15.84 92.2718 16.68ZM89.6468 16.005C89.6468 15.565 89.4968 15.215 89.1968 14.955C88.8968 14.695 88.5218 14.565 88.0718 14.565C87.6418 14.565 87.2768 14.69 86.9768 14.94C86.6868 15.19 86.5068 15.545 86.4368 16.005H89.6468ZM96.37 14.025C96.67 13.565 97.045 13.205 97.495 12.945C97.945 12.675 98.445 12.54 98.995 12.54V15.255H98.29C97.65 15.255 97.17 15.395 96.85 15.675C96.53 15.945 96.37 16.425 96.37 17.115V21H93.805V12.63H96.37V14.025Z" fill="white"/>
<path d="M99 0H5C2.23858 0 0 2.23858 0 5V27C0 29.7614 2.23858 32 5 32H99C101.761 32 104 29.7614 104 27V5C104 2.23858 101.761 0 99 0Z" fill="url(#paint0_linear_19_79)"/>
<defs>
<linearGradient id="paint0_linear_19_79" x1="0" y1="0" x2="0" y2="32" gradientUnits="userSpaceOnUse">
<stop stop-color="#BBBBBB" stop-opacity="0.1"/>
<stop offset="1" stop-opacity="0.1"/>
</linearGradient>
</defs>
</svg>
