<svg width="164" height="56" viewBox="0 0 164 56" fill="none" xmlns="http://www.w3.org/2000/svg">
<rect width="164" height="56" rx="8" fill="url(#paint0_linear_4_33)"/>
<rect x="1.05" y="1.05" width="161.9" height="53.9" rx="6.95" stroke="#222222" stroke-opacity="0.15" stroke-width="2.1"/>
<g filter="url(#filter0_d_4_33)">
<path d="M12 8V44.8578C12 46.5912 13.2207 48 14.7285 48H49.2715C50.7766 48 52 46.5942 52 44.8578L51.9974 8H12ZM27.4544 12.3999H36.543C37.5482 12.3999 38.3614 13.3363 38.3614 14.4938C38.3614 15.6484 37.5482 16.5878 36.543 16.5878H27.4544C26.4492 16.5878 25.636 15.6514 25.636 14.4938C25.636 13.3363 26.4492 12.3999 27.4544 12.3999Z" fill="#F1F3F4"/>
<path d="M12 8V44.8578C12 46.5912 13.2207 48 14.7285 48H49.2715C50.7766 48 52 46.5942 52 44.8578L51.9974 8H12ZM27.4544 12.3999H36.543C37.5482 12.3999 38.3614 13.3363 38.3614 14.4938C38.3614 15.6484 37.5482 16.5878 36.543 16.5878H27.4544C26.4492 16.5878 25.636 15.6514 25.636 14.4938C25.636 13.3363 26.4492 12.3999 27.4544 12.3999Z" fill="#F1F3F4"/>
<path d="M12 8V28.1059H51.9974V8H12ZM27.4544 12.3999H36.543C37.5482 12.3999 38.3614 13.3363 38.3614 14.4938C38.3614 15.6484 37.5482 16.5878 36.543 16.5878H27.4544C26.4492 16.5878 25.636 15.6514 25.636 14.4938C25.636 13.3363 26.4492 12.3999 27.4544 12.3999Z" fill="#E8EAED"/>
<path d="M31.9988 24.9667C25.6071 24.9667 20.0286 28.9639 17.0419 34.9093L19.4236 43.2758L23.0993 48H25.4398L31.9988 34.9123L46.9557 34.9093C43.9691 28.9639 38.3905 24.9667 31.9988 24.9667Z" fill="url(#paint1_linear_4_33)"/>
<path d="M17.0419 34.9093C15.0772 38.8381 14.3153 43.4707 14.9434 48H23.6029L17.0419 34.9093Z" fill="url(#paint2_linear_4_33)"/>
<path d="M31.9987 34.9123L38.5598 48H49.0541C49.682 43.4718 48.9202 38.8409 46.9556 34.9123H31.9987Z" fill="url(#paint3_linear_4_33)"/>
<path d="M31.9987 34.9123C27.2305 34.9123 23.3649 39.3651 23.3649 44.8578C23.3649 45.9564 23.5224 47.0119 23.808 48H40.1895C40.4751 47.0119 40.6325 45.9564 40.6325 44.8578C40.6325 39.3651 36.767 34.9123 31.9987 34.9123Z" fill="#F1F3F4"/>
<path d="M31.9988 36.776C31.0775 36.776 30.1653 36.9851 29.3141 37.3912C28.463 37.7974 27.6896 38.3927 27.0382 39.1431C26.3867 39.8936 25.87 40.7845 25.5174 41.7651C25.1649 42.7456 24.9834 43.7965 24.9834 44.8578C24.9875 45.9382 25.1795 47.0066 25.5482 48H38.4493C38.818 47.0066 39.0101 45.9382 39.0142 44.8578C39.0142 43.7965 38.8327 42.7456 38.4801 41.7651C38.1276 40.7845 37.6108 39.8936 36.9594 39.1431C36.308 38.3927 35.5346 37.7974 34.6834 37.3912C33.8323 36.9851 32.92 36.776 31.9988 36.776Z" fill="#1A73E8"/>
<path opacity="0.1" d="M51.9974 28.1061H12V28.3667H51.9974V28.1061Z" fill="#BDC1C6"/>
<path opacity="0.1" d="M51.9974 27.8424H12V28.103H51.9974V27.8424Z" fill="#BDC1C6"/>
</g>
<g filter="url(#filter1_d_4_33)">
<path d="M62.2614 24.5H60.3977L64.5852 12.8636H66.6136L70.8011 24.5H68.9375L65.6477 14.9773H65.5568L62.2614 24.5ZM62.5739 19.9432H68.6193V21.4204H62.5739V19.9432ZM78.7173 15.7727L75.5526 24.5H73.7344L70.5639 15.7727H72.3878L74.598 22.4886H74.6889L76.8935 15.7727H78.7173ZM82.6037 24.6932C82.0507 24.6932 81.5507 24.5909 81.1037 24.3864C80.6567 24.178 80.3026 23.8769 80.0412 23.4829C79.7836 23.089 79.6548 22.6061 79.6548 22.0341C79.6548 21.5417 79.7495 21.1364 79.9389 20.8182C80.1283 20.5 80.384 20.2481 80.706 20.0625C81.0279 19.8769 81.3878 19.7367 81.7855 19.642C82.1832 19.5473 82.5885 19.4754 83.0014 19.4261C83.5241 19.3655 83.9484 19.3163 84.2741 19.2784C84.5999 19.2367 84.8366 19.1704 84.9844 19.0795C85.1321 18.9886 85.206 18.8409 85.206 18.6364V18.5966C85.206 18.1004 85.0658 17.7159 84.7855 17.4432C84.509 17.1704 84.0961 17.0341 83.5469 17.0341C82.9749 17.0341 82.5241 17.161 82.1946 17.4148C81.8688 17.6648 81.6435 17.9432 81.5185 18.25L79.9219 17.8864C80.1113 17.3561 80.3878 16.928 80.7514 16.6023C81.1188 16.2727 81.5412 16.0341 82.0185 15.8864C82.4957 15.7348 82.9976 15.6591 83.5241 15.6591C83.8726 15.6591 84.2419 15.7008 84.6321 15.7841C85.026 15.8636 85.3935 16.0114 85.7344 16.2273C86.0791 16.4432 86.3613 16.7519 86.581 17.1534C86.8007 17.5511 86.9105 18.0682 86.9105 18.7045V24.5H85.2514V23.3068H85.1832C85.0734 23.5265 84.9086 23.7424 84.6889 23.9545C84.4692 24.1667 84.187 24.3428 83.8423 24.4829C83.4976 24.6231 83.0847 24.6932 82.6037 24.6932ZM82.973 23.3295C83.4427 23.3295 83.8442 23.2367 84.1775 23.0511C84.5147 22.8655 84.7704 22.6231 84.9446 22.3239C85.1226 22.0208 85.2116 21.697 85.2116 21.3523V20.2273C85.151 20.2879 85.0336 20.3447 84.8594 20.3977C84.6889 20.447 84.4938 20.4905 84.2741 20.5284C84.0544 20.5625 83.8404 20.5947 83.6321 20.625C83.4238 20.6515 83.2495 20.6742 83.1094 20.6932C82.7798 20.7348 82.4787 20.8049 82.206 20.9034C81.937 21.0019 81.7211 21.1439 81.5582 21.3295C81.3991 21.5114 81.3196 21.7538 81.3196 22.0568C81.3196 22.4773 81.4749 22.7954 81.7855 23.0114C82.0961 23.2235 82.4919 23.3295 82.973 23.3295ZM89.1733 24.5V15.7727H90.8722V24.5H89.1733ZM90.0312 14.4261C89.7358 14.4261 89.482 14.3276 89.2699 14.1307C89.0615 13.9299 88.9574 13.6913 88.9574 13.4148C88.9574 13.1345 89.0615 12.8958 89.2699 12.6989C89.482 12.4981 89.7358 12.3977 90.0312 12.3977C90.3267 12.3977 90.5786 12.4981 90.7869 12.6989C90.999 12.8958 91.1051 13.1345 91.1051 13.4148C91.1051 13.6913 90.999 13.9299 90.7869 14.1307C90.5786 14.3276 90.3267 14.4261 90.0312 14.4261ZM94.8565 12.8636V24.5H93.1577V12.8636H94.8565ZM99.6818 24.6932C99.1288 24.6932 98.6288 24.5909 98.1818 24.3864C97.7348 24.178 97.3807 23.8769 97.1193 23.4829C96.8617 23.089 96.7329 22.6061 96.7329 22.0341C96.7329 21.5417 96.8276 21.1364 97.017 20.8182C97.2064 20.5 97.4621 20.2481 97.7841 20.0625C98.106 19.8769 98.4659 19.7367 98.8636 19.642C99.2614 19.5473 99.6667 19.4754 100.08 19.4261C100.602 19.3655 101.027 19.3163 101.352 19.2784C101.678 19.2367 101.915 19.1704 102.062 19.0795C102.21 18.9886 102.284 18.8409 102.284 18.6364V18.5966C102.284 18.1004 102.144 17.7159 101.864 17.4432C101.587 17.1704 101.174 17.0341 100.625 17.0341C100.053 17.0341 99.6023 17.161 99.2727 17.4148C98.947 17.6648 98.7216 17.9432 98.5966 18.25L97 17.8864C97.1894 17.3561 97.4659 16.928 97.8295 16.6023C98.197 16.2727 98.6193 16.0341 99.0966 15.8864C99.5739 15.7348 100.076 15.6591 100.602 15.6591C100.951 15.6591 101.32 15.7008 101.71 15.7841C102.104 15.8636 102.472 16.0114 102.812 16.2273C103.157 16.4432 103.439 16.7519 103.659 17.1534C103.879 17.5511 103.989 18.0682 103.989 18.7045V24.5H102.33V23.3068H102.261C102.152 23.5265 101.987 23.7424 101.767 23.9545C101.547 24.1667 101.265 24.3428 100.92 24.4829C100.576 24.6231 100.163 24.6932 99.6818 24.6932ZM100.051 23.3295C100.521 23.3295 100.922 23.2367 101.256 23.0511C101.593 22.8655 101.848 22.6231 102.023 22.3239C102.201 22.0208 102.29 21.697 102.29 21.3523V20.2273C102.229 20.2879 102.112 20.3447 101.937 20.3977C101.767 20.447 101.572 20.4905 101.352 20.5284C101.133 20.5625 100.919 20.5947 100.71 20.625C100.502 20.6515 100.328 20.6742 100.187 20.6932C99.8579 20.7348 99.5568 20.8049 99.2841 20.9034C99.0151 21.0019 98.7992 21.1439 98.6364 21.3295C98.4773 21.5114 98.3977 21.7538 98.3977 22.0568C98.3977 22.4773 98.553 22.7954 98.8636 23.0114C99.1742 23.2235 99.5701 23.3295 100.051 23.3295ZM106.388 24.5V12.8636H108.087V17.1875H108.189C108.287 17.0057 108.429 16.7954 108.615 16.5568C108.801 16.3182 109.058 16.1098 109.388 15.9318C109.717 15.75 110.153 15.6591 110.695 15.6591C111.399 15.6591 112.028 15.8371 112.581 16.1932C113.134 16.5492 113.568 17.0625 113.882 17.7329C114.2 18.4034 114.359 19.2102 114.359 20.1534C114.359 21.0966 114.202 21.9053 113.888 22.5795C113.573 23.25 113.142 23.767 112.592 24.1307C112.043 24.4905 111.416 24.6704 110.712 24.6704C110.181 24.6704 109.748 24.5814 109.41 24.4034C109.077 24.2254 108.816 24.017 108.626 23.7784C108.437 23.5398 108.291 23.3276 108.189 23.142H108.047V24.5H106.388ZM108.053 20.1364C108.053 20.75 108.142 21.2879 108.32 21.75C108.498 22.2121 108.755 22.5739 109.092 22.8352C109.429 23.0928 109.842 23.2216 110.331 23.2216C110.839 23.2216 111.263 23.0871 111.604 22.8182C111.945 22.5454 112.202 22.1761 112.376 21.7102C112.554 21.2443 112.643 20.7197 112.643 20.1364C112.643 19.5606 112.556 19.0436 112.382 18.5852C112.212 18.1269 111.954 17.7651 111.609 17.5C111.268 17.2348 110.842 17.1023 110.331 17.1023C109.839 17.1023 109.422 17.2292 109.081 17.4829C108.744 17.7367 108.488 18.0909 108.314 18.5454C108.14 19 108.053 19.5303 108.053 20.1364ZM117.966 12.8636V24.5H116.267V12.8636H117.966ZM124.013 24.6761C123.153 24.6761 122.412 24.4924 121.791 24.125C121.174 23.7538 120.696 23.2329 120.359 22.5625C120.026 21.8883 119.859 21.0985 119.859 20.1932C119.859 19.2992 120.026 18.5114 120.359 17.8295C120.696 17.1477 121.166 16.6155 121.768 16.2329C122.375 15.8504 123.083 15.6591 123.893 15.6591C124.386 15.6591 124.863 15.7405 125.325 15.9034C125.787 16.0663 126.202 16.322 126.57 16.6704C126.937 17.0189 127.227 17.4716 127.439 18.0284C127.651 18.5814 127.757 19.2538 127.757 20.0454V20.6477H120.82V19.375H126.092C126.092 18.928 126.001 18.5322 125.82 18.1875C125.638 17.839 125.382 17.5644 125.053 17.3636C124.727 17.1629 124.344 17.0625 123.905 17.0625C123.428 17.0625 123.011 17.1799 122.655 17.4148C122.303 17.6458 122.03 17.9489 121.837 18.3239C121.647 18.6951 121.553 19.0985 121.553 19.5341V20.5284C121.553 21.1117 121.655 21.6079 121.859 22.017C122.068 22.4261 122.357 22.7386 122.729 22.9545C123.1 23.1667 123.534 23.2727 124.03 23.2727C124.352 23.2727 124.645 23.2273 124.91 23.1364C125.176 23.0417 125.405 22.9015 125.598 22.7159C125.791 22.5303 125.939 22.3011 126.041 22.0284L127.649 22.3182C127.52 22.7917 127.289 23.2064 126.956 23.5625C126.626 23.9148 126.212 24.1894 125.712 24.3864C125.215 24.5795 124.649 24.6761 124.013 24.6761ZM137.553 24.6761C136.734 24.6761 136.02 24.4886 135.41 24.1136C134.801 23.7386 134.327 23.214 133.99 22.5398C133.653 21.8655 133.484 21.0776 133.484 20.1761C133.484 19.2708 133.653 18.4792 133.99 17.8011C134.327 17.1231 134.801 16.5966 135.41 16.2216C136.02 15.8466 136.734 15.6591 137.553 15.6591C138.371 15.6591 139.085 15.8466 139.695 16.2216C140.304 16.5966 140.778 17.1231 141.115 17.8011C141.452 18.4792 141.621 19.2708 141.621 20.1761C141.621 21.0776 141.452 21.8655 141.115 22.5398C140.778 23.214 140.304 23.7386 139.695 24.1136C139.085 24.4886 138.371 24.6761 137.553 24.6761ZM137.558 23.25C138.089 23.25 138.528 23.1098 138.876 22.8295C139.225 22.5492 139.482 22.1761 139.649 21.7102C139.82 21.2443 139.905 20.7311 139.905 20.1704C139.905 19.6136 139.82 19.1023 139.649 18.6364C139.482 18.1667 139.225 17.7898 138.876 17.5057C138.528 17.2216 138.089 17.0795 137.558 17.0795C137.024 17.0795 136.581 17.2216 136.229 17.5057C135.88 17.7898 135.621 18.1667 135.45 18.6364C135.284 19.1023 135.2 19.6136 135.2 20.1704C135.2 20.7311 135.284 21.2443 135.45 21.7102C135.621 22.1761 135.88 22.5492 136.229 22.8295C136.581 23.1098 137.024 23.25 137.558 23.25ZM145.216 19.3182V24.5H143.517V15.7727H145.148V17.1932H145.256C145.456 16.7311 145.771 16.3598 146.199 16.0795C146.631 15.7992 147.174 15.6591 147.83 15.6591C148.424 15.6591 148.945 15.7841 149.392 16.0341C149.839 16.2803 150.186 16.6477 150.432 17.1364C150.678 17.625 150.801 18.2292 150.801 18.9489V24.5H149.102V19.1534C149.102 18.5208 148.937 18.0265 148.608 17.6704C148.278 17.3106 147.826 17.1307 147.25 17.1307C146.856 17.1307 146.506 17.2159 146.199 17.3864C145.896 17.5568 145.655 17.8068 145.477 18.1364C145.303 18.4621 145.216 18.8561 145.216 19.3182Z" fill="#E8E8E8"/>
<path d="M63.8999 43.5L60.3018 31.1364H63.604L65.4695 39.2379H65.5721L67.7031 31.1364H70.3956L72.5266 39.256H72.6293L74.5007 31.1364H77.7969L74.2049 43.5H71.3253L69.0977 36.0021H69.0011L66.7734 43.5H63.8999ZM82.3366 43.6751C81.3667 43.6751 80.5296 43.4839 79.8253 43.1016C79.125 42.7152 78.5857 42.1658 78.2074 41.4535C77.8331 40.7371 77.6459 39.8859 77.6459 38.8998C77.6459 37.942 77.8351 37.1049 78.2134 36.3885C78.5917 35.6681 79.125 35.1087 79.8132 34.7102C80.5014 34.3078 81.3124 34.1065 82.2461 34.1065C82.9061 34.1065 83.5098 34.2092 84.0572 34.4144C84.6045 34.6197 85.0774 34.9235 85.4758 35.326C85.8743 35.7284 86.1842 36.2255 86.4055 36.8171C86.6269 37.4047 86.7376 38.0788 86.7376 38.8395V39.576H78.6783V37.8615H83.9908C83.9867 37.5476 83.9123 37.2679 83.7674 37.0224C83.6225 36.7769 83.4233 36.5857 83.1697 36.4489C82.9202 36.308 82.6325 36.2376 82.3065 36.2376C81.9764 36.2376 81.6806 36.312 81.419 36.4609C81.1574 36.6058 80.9502 36.805 80.7972 37.0586C80.6443 37.3081 80.5638 37.5918 80.5557 37.9098V39.6545C80.5557 40.0328 80.6302 40.3648 80.7791 40.6506C80.928 40.9323 81.1393 41.1516 81.413 41.3086C81.6867 41.4655 82.0127 41.544 82.391 41.544C82.6526 41.544 82.89 41.5078 83.1033 41.4354C83.3166 41.3629 83.4998 41.2563 83.6527 41.1154C83.8056 40.9745 83.9203 40.8015 83.9968 40.5962L86.7074 40.6747C86.5947 41.2824 86.3472 41.8117 85.9648 42.2624C85.5865 42.7092 85.0895 43.0573 84.4737 43.3068C83.8579 43.5523 83.1456 43.6751 82.3366 43.6751ZM88.2453 43.5V31.1364H91.1973V35.815H91.2577C91.3785 35.5333 91.5495 35.2616 91.7709 35C91.9962 34.7384 92.282 34.5251 92.6281 34.3601C92.9782 34.191 93.3968 34.1065 93.8838 34.1065C94.5277 34.1065 95.1294 34.2756 95.6888 34.6136C96.2523 34.9517 96.707 35.4729 97.0532 36.1772C97.3993 36.8815 97.5723 37.779 97.5723 38.8697C97.5723 39.9201 97.4053 40.7995 97.0713 41.5078C96.7413 42.2161 96.2945 42.7474 95.7311 43.1016C95.1717 43.4557 94.5499 43.6328 93.8657 43.6328C93.3988 43.6328 92.9943 43.5563 92.6522 43.4034C92.3102 43.2505 92.0224 43.0492 91.789 42.7997C91.5596 42.5502 91.3825 42.2825 91.2577 41.9968H91.1672V43.5H88.2453ZM91.137 38.8636C91.137 39.3627 91.2034 39.7973 91.3362 40.1676C91.473 40.5379 91.6682 40.8256 91.9218 41.0309C92.1794 41.2321 92.4872 41.3327 92.8454 41.3327C93.2076 41.3327 93.5155 41.2321 93.7691 41.0309C94.0226 40.8256 94.2138 40.5379 94.3426 40.1676C94.4754 39.7973 94.5418 39.3627 94.5418 38.8636C94.5418 38.3646 94.4754 37.9319 94.3426 37.5657C94.2138 37.1994 94.0226 36.9157 93.7691 36.7145C93.5196 36.5132 93.2117 36.4126 92.8454 36.4126C92.4832 36.4126 92.1753 36.5112 91.9218 36.7084C91.6682 36.9056 91.473 37.1874 91.3362 37.5536C91.2034 37.9199 91.137 38.3565 91.137 38.8636ZM109.455 34.843C109.414 34.4003 109.235 34.0562 108.917 33.8107C108.603 33.5612 108.155 33.4364 107.571 33.4364C107.185 33.4364 106.863 33.4867 106.605 33.5873C106.348 33.688 106.154 33.8268 106.026 34.0039C105.897 34.177 105.83 34.3762 105.826 34.6016C105.818 34.7867 105.855 34.9497 105.935 35.0905C106.02 35.2314 106.14 35.3562 106.297 35.4648C106.458 35.5695 106.651 35.662 106.877 35.7425C107.102 35.823 107.356 35.8935 107.637 35.9538L108.7 36.1953C109.312 36.3281 109.851 36.5052 110.318 36.7266C110.789 36.9479 111.183 37.2115 111.501 37.5174C111.823 37.8233 112.067 38.1754 112.232 38.5739C112.397 38.9723 112.481 39.419 112.485 39.9141C112.481 40.6948 112.284 41.3649 111.893 41.9243C111.503 42.4838 110.942 42.9124 110.209 43.2102C109.481 43.508 108.601 43.6569 107.571 43.6569C106.537 43.6569 105.635 43.502 104.866 43.1921C104.098 42.8822 103.5 42.4113 103.073 41.7795C102.647 41.1476 102.428 40.3487 102.415 39.3828H105.277C105.301 39.7812 105.408 40.1133 105.597 40.3789C105.786 40.6445 106.046 40.8458 106.376 40.9826C106.71 41.1194 107.096 41.1878 107.535 41.1878C107.937 41.1878 108.279 41.1335 108.561 41.0248C108.847 40.9162 109.066 40.7653 109.219 40.5721C109.372 40.3789 109.451 40.1575 109.455 39.908C109.451 39.6746 109.378 39.4754 109.237 39.3104C109.096 39.1413 108.879 38.9964 108.585 38.8757C108.295 38.7509 107.925 38.6362 107.474 38.5316L106.183 38.2297C105.112 37.9842 104.269 37.5878 103.653 37.0405C103.037 36.4891 102.731 35.7445 102.735 34.8068C102.731 34.0421 102.937 33.372 103.351 32.7965C103.766 32.221 104.339 31.7722 105.072 31.4503C105.804 31.1283 106.639 30.9673 107.577 30.9673C108.535 30.9673 109.366 31.1303 110.07 31.4563C110.779 31.7783 111.328 32.2311 111.718 32.8146C112.109 33.3982 112.308 34.0743 112.316 34.843H109.455ZM119.228 34.2273V36.4006H113.379V34.2273H119.228ZM114.604 32.0057H117.556V40.5842C117.556 40.7653 117.584 40.9122 117.641 41.0248C117.701 41.1335 117.788 41.212 117.9 41.2603C118.013 41.3046 118.148 41.3267 118.305 41.3267C118.417 41.3267 118.536 41.3166 118.661 41.2965C118.79 41.2724 118.886 41.2522 118.951 41.2361L119.397 43.3672C119.256 43.4074 119.057 43.4577 118.8 43.5181C118.546 43.5785 118.242 43.6167 117.888 43.6328C117.196 43.665 116.602 43.5845 116.107 43.3913C115.616 43.1941 115.24 42.8882 114.978 42.4737C114.721 42.0592 114.596 41.538 114.604 40.9101V32.0057ZM124.963 43.6751C123.989 43.6751 123.152 43.4758 122.452 43.0774C121.756 42.6749 121.218 42.1155 120.84 41.3991C120.466 40.6787 120.279 39.8436 120.279 38.8938C120.279 37.94 120.466 37.1049 120.84 36.3885C121.218 35.6681 121.756 35.1087 122.452 34.7102C123.152 34.3078 123.989 34.1065 124.963 34.1065C125.937 34.1065 126.772 34.3078 127.469 34.7102C128.169 35.1087 128.706 35.6681 129.081 36.3885C129.459 37.1049 129.648 37.94 129.648 38.8938C129.648 39.8436 129.459 40.6787 129.081 41.3991C128.706 42.1155 128.169 42.6749 127.469 43.0774C126.772 43.4758 125.937 43.6751 124.963 43.6751ZM124.982 41.4474C125.336 41.4474 125.636 41.3388 125.881 41.1214C126.127 40.9041 126.314 40.6023 126.442 40.2159C126.575 39.8295 126.642 39.3828 126.642 38.8757C126.642 38.3605 126.575 37.9098 126.442 37.5234C126.314 37.1371 126.127 36.8352 125.881 36.6179C125.636 36.4006 125.336 36.2919 124.982 36.2919C124.615 36.2919 124.305 36.4006 124.052 36.6179C123.802 36.8352 123.611 37.1371 123.478 37.5234C123.35 37.9098 123.285 38.3605 123.285 38.8757C123.285 39.3828 123.35 39.8295 123.478 40.2159C123.611 40.6023 123.802 40.9041 124.052 41.1214C124.305 41.3388 124.615 41.4474 124.982 41.4474ZM131.16 43.5V34.2273H134.028V35.9176H134.124C134.293 35.3059 134.569 34.8511 134.952 34.5533C135.334 34.2514 135.779 34.1005 136.286 34.1005C136.423 34.1005 136.563 34.1105 136.708 34.1307C136.853 34.1468 136.988 34.1729 137.113 34.2092V36.7748C136.972 36.7266 136.787 36.6883 136.557 36.6601C136.332 36.632 136.131 36.6179 135.954 36.6179C135.603 36.6179 135.288 36.6964 135.006 36.8533C134.728 37.0063 134.509 37.2216 134.348 37.4993C134.191 37.773 134.112 38.0949 134.112 38.4652V43.5H131.16ZM142.169 43.6751C141.199 43.6751 140.362 43.4839 139.657 43.1016C138.957 42.7152 138.418 42.1658 138.039 41.4535C137.665 40.7371 137.478 39.8859 137.478 38.8998C137.478 37.942 137.667 37.1049 138.045 36.3885C138.424 35.6681 138.957 35.1087 139.645 34.7102C140.333 34.3078 141.144 34.1065 142.078 34.1065C142.738 34.1065 143.342 34.2092 143.889 34.4144C144.437 34.6197 144.909 34.9235 145.308 35.326C145.706 35.7284 146.016 36.2255 146.238 36.8171C146.459 37.4047 146.57 38.0788 146.57 38.8395V39.576H138.51V37.8615H143.823C143.819 37.5476 143.744 37.2679 143.599 37.0224C143.455 36.7769 143.255 36.5857 143.002 36.4489C142.752 36.308 142.464 36.2376 142.138 36.2376C141.808 36.2376 141.513 36.312 141.251 36.4609C140.989 36.6058 140.782 36.805 140.629 37.0586C140.476 37.3081 140.396 37.5918 140.388 37.9098V39.6545C140.388 40.0328 140.462 40.3648 140.611 40.6506C140.76 40.9323 140.971 41.1516 141.245 41.3086C141.519 41.4655 141.845 41.544 142.223 41.544C142.485 41.544 142.722 41.5078 142.935 41.4354C143.149 41.3629 143.332 41.2563 143.485 41.1154C143.638 40.9745 143.752 40.8015 143.829 40.5962L146.539 40.6747C146.427 41.2824 146.179 41.8117 145.797 42.2624C145.419 42.7092 144.921 43.0573 144.306 43.3068C143.69 43.5523 142.978 43.6751 142.169 43.6751Z" fill="white"/>
</g>
<defs>
<filter id="filter0_d_4_33" x="6.28571" y="2.28571" width="51.4286" height="51.4286" filterUnits="userSpaceOnUse" color-interpolation-filters="sRGB">
<feFlood flood-opacity="0" result="BackgroundImageFix"/>
<feColorMatrix in="SourceAlpha" type="matrix" values="0 0 0 0 0 0 0 0 0 0 0 0 0 0 0 0 0 0 127 0" result="hardAlpha"/>
<feOffset/>
<feGaussianBlur stdDeviation="2.85714"/>
<feComposite in2="hardAlpha" operator="out"/>
<feColorMatrix type="matrix" values="0 0 0 0 0 0 0 0 0 0 0 0 0 0 0 0 0 0 0.25 0"/>
<feBlend mode="normal" in2="BackgroundImageFix" result="effect1_dropShadow_4_33"/>
<feBlend mode="normal" in="SourceGraphic" in2="effect1_dropShadow_4_33" result="shape"/>
</filter>
<filter id="filter1_d_4_33" x="54.4" y="3.9" width="103.2" height="48.2" filterUnits="userSpaceOnUse" color-interpolation-filters="sRGB">
<feFlood flood-opacity="0" result="BackgroundImageFix"/>
<feColorMatrix in="SourceAlpha" type="matrix" values="0 0 0 0 0 0 0 0 0 0 0 0 0 0 0 0 0 0 127 0" result="hardAlpha"/>
<feOffset/>
<feGaussianBlur stdDeviation="2.8"/>
<feComposite in2="hardAlpha" operator="out"/>
<feColorMatrix type="matrix" values="0 0 0 0 0 0 0 0 0 0 0 0 0 0 0 0 0 0 0.25 0"/>
<feBlend mode="normal" in2="BackgroundImageFix" result="effect1_dropShadow_4_33"/>
<feBlend mode="normal" in="SourceGraphic" in2="effect1_dropShadow_4_33" result="shape"/>
</filter>
<linearGradient id="paint0_linear_4_33" x1="82" y1="0" x2="82" y2="56" gradientUnits="userSpaceOnUse">
<stop stop-color="#4285F4"/>
<stop offset="0.455" stop-color="#34A853"/>
<stop offset="0.75" stop-color="#FBBC06"/>
<stop offset="1" stop-color="#EA4335"/>
</linearGradient>
<linearGradient id="paint1_linear_4_33" x1="17.0419" y1="37.3985" x2="46.9558" y2="37.3985" gradientUnits="userSpaceOnUse">
<stop stop-color="#D93025"/>
<stop offset="1" stop-color="#EA4335"/>
</linearGradient>
<linearGradient id="paint2_linear_4_33" x1="33.8695" y1="63.506" x2="15.5259" y2="35.917" gradientUnits="userSpaceOnUse">
<stop stop-color="#1E8E3E"/>
<stop offset="1" stop-color="#34A853"/>
</linearGradient>
<linearGradient id="paint3_linear_4_33" x1="44.4823" y1="34.872" x2="26.1393" y2="62.4601" gradientUnits="userSpaceOnUse">
<stop stop-color="#FBBC04"/>
<stop offset="1" stop-color="#FCC934"/>
</linearGradient>
</defs>
</svg>
