<svg width="164" height="56" viewBox="0 0 164 56" fill="none" xmlns="http://www.w3.org/2000/svg">
<rect width="164" height="56" rx="8" fill="url(#paint0_linear_8_2)"/>
<rect x="1.05" y="1.05" width="161.9" height="53.9" rx="6.95" stroke="#222222" stroke-opacity="0.15" stroke-width="2.1"/>
<g clip-path="url(#clip0_8_2)">
<path d="M48.1094 37.7656C47.573 38.0444 47.0198 38.2896 46.4531 38.5C44.6587 39.1679 42.7585 39.5067 40.8437 39.5C33.4531 39.5 27.0156 34.4219 27.0156 27.8906C27.0252 27.0161 27.2677 26.1599 27.7181 25.4101C28.1685 24.6604 28.8105 24.0442 29.5781 23.625C22.8906 23.9062 21.1719 30.875 21.1719 34.9531C21.1719 46.5156 31.8125 47.6719 34.1094 47.6719C35.3438 47.6719 37.2031 47.3125 38.3281 46.9531L38.5312 46.8906C42.8366 45.4028 46.5068 42.493 48.9375 38.6406C49.0081 38.5236 49.0385 38.3866 49.0238 38.2507C49.0091 38.1147 48.9503 37.9874 48.8563 37.8881C48.7624 37.7888 48.6384 37.723 48.5035 37.7009C48.3686 37.6788 48.2301 37.7015 48.1094 37.7656Z" fill="url(#paint1_linear_8_2)"/>
<path opacity="0.35" d="M48.1094 37.7656C47.573 38.0444 47.0198 38.2896 46.4531 38.5C44.6587 39.1679 42.7585 39.5067 40.8437 39.5C33.4531 39.5 27.0156 34.4219 27.0156 27.8906C27.0252 27.0161 27.2677 26.1599 27.7181 25.4101C28.1685 24.6604 28.8105 24.0442 29.5781 23.625C22.8906 23.9062 21.1719 30.875 21.1719 34.9531C21.1719 46.5156 31.8125 47.6719 34.1094 47.6719C35.3438 47.6719 37.2031 47.3125 38.3281 46.9531L38.5312 46.8906C42.8366 45.4028 46.5068 42.493 48.9375 38.6406C49.0081 38.5236 49.0385 38.3866 49.0238 38.2507C49.0091 38.1147 48.9503 37.9874 48.8563 37.8881C48.7624 37.7888 48.6384 37.723 48.5035 37.7009C48.3686 37.6788 48.2301 37.7015 48.1094 37.7656Z" fill="url(#paint2_radial_8_2)"/>
<path d="M28.5156 45.7031C27.1248 44.8393 25.9192 43.7081 24.9687 42.375C23.8833 40.8894 23.1362 39.1842 22.7797 37.3791C22.4233 35.5741 22.4662 33.7129 22.9054 31.9262C23.3447 30.1395 24.1696 28.4706 25.3223 27.0365C26.475 25.6025 27.9276 24.4381 29.5781 23.625C30.0781 23.3906 30.9062 22.9844 32.0156 23C32.7962 23.006 33.5649 23.1925 34.2615 23.5449C34.9581 23.8973 35.5638 24.406 36.0312 25.0313C36.6599 25.8767 37.0045 26.8996 37.0156 27.9531C37.0156 27.9219 40.8437 15.5156 24.5156 15.5156C17.6562 15.5156 12.0156 22.0156 12.0156 27.7344C11.9883 30.7552 12.6342 33.7443 13.9062 36.4844C15.9895 40.9204 19.6289 44.437 24.1338 46.3669C28.6386 48.2967 33.6952 48.5053 38.3437 46.9531C36.7151 47.4675 34.9943 47.6221 33.3001 47.4063C31.606 47.1905 29.9788 46.6094 28.5312 45.7031H28.5156Z" fill="url(#paint3_linear_8_2)"/>
<path opacity="0.41" d="M28.5156 45.7031C27.1248 44.8393 25.9192 43.7081 24.9687 42.375C23.8833 40.8894 23.1362 39.1842 22.7797 37.3791C22.4233 35.5741 22.4662 33.7129 22.9054 31.9262C23.3447 30.1395 24.1696 28.4706 25.3223 27.0365C26.475 25.6025 27.9276 24.4381 29.5781 23.625C30.0781 23.3906 30.9062 22.9844 32.0156 23C32.7962 23.006 33.5649 23.1925 34.2615 23.5449C34.9581 23.8973 35.5638 24.406 36.0312 25.0313C36.6599 25.8767 37.0045 26.8996 37.0156 27.9531C37.0156 27.9219 40.8437 15.5156 24.5156 15.5156C17.6562 15.5156 12.0156 22.0156 12.0156 27.7344C11.9883 30.7552 12.6342 33.7443 13.9062 36.4844C15.9895 40.9204 19.6289 44.437 24.1338 46.3669C28.6386 48.2967 33.6952 48.5053 38.3437 46.9531C36.7151 47.4675 34.9943 47.6221 33.3001 47.4063C31.606 47.1905 29.9788 46.6094 28.5312 45.7031H28.5156Z" fill="url(#paint4_radial_8_2)"/>
<path d="M35.8125 31.25C35.6719 31.4063 35.2812 31.6406 35.2812 32.125C35.2812 32.5312 35.5469 32.9375 36.0312 33.2656C38.2656 34.8281 42.5 34.6094 42.5156 34.6094C44.1813 34.6083 45.8163 34.1604 47.25 33.3125C48.6934 32.4682 49.8911 31.2613 50.7243 29.8114C51.5575 28.3616 51.9973 26.7191 52 25.0469C52.0469 21.5469 50.75 19.2187 50.2344 18.1875C46.9062 11.7187 39.7656 8 32 8C26.744 7.99948 21.6991 10.068 17.9564 13.7581C14.2136 17.4482 12.0739 22.4633 12 27.7187C12.0781 22.0156 17.75 17.4062 24.5 17.4062C25.0469 17.4062 28.1719 17.4531 31.0625 18.9687C33.0933 19.9779 34.775 21.5725 35.8906 23.5469C36.8437 25.2031 37.0156 27.3125 37.0156 28.1562C37.0156 29 36.5937 30.2344 35.7969 31.2656L35.8125 31.25Z" fill="url(#paint5_radial_8_2)"/>
<path d="M35.8125 31.25C35.6719 31.4063 35.2812 31.6406 35.2812 32.125C35.2812 32.5312 35.5469 32.9375 36.0312 33.2656C38.2656 34.8281 42.5 34.6094 42.5156 34.6094C44.1813 34.6083 45.8163 34.1604 47.25 33.3125C48.6934 32.4682 49.8911 31.2613 50.7243 29.8114C51.5575 28.3616 51.9973 26.7191 52 25.0469C52.0469 21.5469 50.75 19.2187 50.2344 18.1875C46.9062 11.7187 39.7656 8 32 8C26.744 7.99948 21.6991 10.068 17.9564 13.7581C14.2136 17.4482 12.0739 22.4633 12 27.7187C12.0781 22.0156 17.75 17.4062 24.5 17.4062C25.0469 17.4062 28.1719 17.4531 31.0625 18.9687C33.0933 19.9779 34.775 21.5725 35.8906 23.5469C36.8437 25.2031 37.0156 27.3125 37.0156 28.1562C37.0156 29 36.5937 30.2344 35.7969 31.2656L35.8125 31.25Z" fill="url(#paint6_radial_8_2)"/>
</g>
<g filter="url(#filter0_d_8_2)">
<path d="M62.2614 24.5H60.3977L64.5852 12.8636H66.6136L70.8011 24.5H68.9375L65.6477 14.9773H65.5568L62.2614 24.5ZM62.5739 19.9432H68.6193V21.4205H62.5739V19.9432ZM78.7173 15.7727L75.5526 24.5H73.7344L70.5639 15.7727H72.3878L74.598 22.4886H74.6889L76.8935 15.7727H78.7173ZM82.6037 24.6932C82.0507 24.6932 81.5507 24.5909 81.1037 24.3864C80.6567 24.178 80.3026 23.8769 80.0412 23.483C79.7836 23.089 79.6548 22.6061 79.6548 22.0341C79.6548 21.5417 79.7495 21.1364 79.9389 20.8182C80.1283 20.5 80.384 20.2481 80.706 20.0625C81.0279 19.8769 81.3878 19.7367 81.7855 19.6421C82.1832 19.5474 82.5885 19.4754 83.0014 19.4261C83.5241 19.3655 83.9484 19.3163 84.2741 19.2784C84.5999 19.2367 84.8366 19.1705 84.9844 19.0796C85.1321 18.9886 85.206 18.8409 85.206 18.6364V18.5966C85.206 18.1004 85.0658 17.7159 84.7855 17.4432C84.509 17.1705 84.0961 17.0341 83.5469 17.0341C82.9749 17.0341 82.5241 17.161 82.1946 17.4148C81.8688 17.6648 81.6435 17.9432 81.5185 18.25L79.9219 17.8864C80.1113 17.3561 80.3878 16.928 80.7514 16.6023C81.1188 16.2727 81.5412 16.0341 82.0185 15.8864C82.4957 15.7349 82.9976 15.6591 83.5241 15.6591C83.8726 15.6591 84.2419 15.7008 84.6321 15.7841C85.026 15.8636 85.3935 16.0114 85.7344 16.2273C86.0791 16.4432 86.3613 16.7519 86.581 17.1534C86.8007 17.5511 86.9105 18.0682 86.9105 18.7046V24.5H85.2514V23.3068H85.1832C85.0734 23.5265 84.9086 23.7424 84.6889 23.9545C84.4692 24.1667 84.187 24.3428 83.8423 24.483C83.4976 24.6231 83.0847 24.6932 82.6037 24.6932ZM82.973 23.3295C83.4427 23.3295 83.8442 23.2367 84.1775 23.0511C84.5147 22.8655 84.7704 22.6231 84.9446 22.3239C85.1226 22.0208 85.2116 21.697 85.2116 21.3523V20.2273C85.151 20.2879 85.0336 20.3447 84.8594 20.3977C84.6889 20.447 84.4938 20.4905 84.2741 20.5284C84.0544 20.5625 83.8404 20.5947 83.6321 20.625C83.4238 20.6515 83.2495 20.6742 83.1094 20.6932C82.7798 20.7349 82.4787 20.8049 82.206 20.9034C81.937 21.0019 81.7211 21.1439 81.5582 21.3295C81.3991 21.5114 81.3196 21.7538 81.3196 22.0568C81.3196 22.4773 81.4749 22.7955 81.7855 23.0114C82.0961 23.2235 82.4919 23.3295 82.973 23.3295ZM89.1733 24.5V15.7727H90.8722V24.5H89.1733ZM90.0312 14.4261C89.7358 14.4261 89.482 14.3277 89.2699 14.1307C89.0615 13.9299 88.9574 13.6913 88.9574 13.4148C88.9574 13.1345 89.0615 12.8958 89.2699 12.6989C89.482 12.4981 89.7358 12.3977 90.0312 12.3977C90.3267 12.3977 90.5786 12.4981 90.7869 12.6989C90.999 12.8958 91.1051 13.1345 91.1051 13.4148C91.1051 13.6913 90.999 13.9299 90.7869 14.1307C90.5786 14.3277 90.3267 14.4261 90.0312 14.4261ZM94.8565 12.8636V24.5H93.1577V12.8636H94.8565ZM99.6818 24.6932C99.1288 24.6932 98.6288 24.5909 98.1818 24.3864C97.7348 24.178 97.3807 23.8769 97.1193 23.483C96.8617 23.089 96.7329 22.6061 96.7329 22.0341C96.7329 21.5417 96.8276 21.1364 97.017 20.8182C97.2064 20.5 97.4621 20.2481 97.7841 20.0625C98.106 19.8769 98.4659 19.7367 98.8636 19.6421C99.2614 19.5474 99.6667 19.4754 100.08 19.4261C100.602 19.3655 101.027 19.3163 101.352 19.2784C101.678 19.2367 101.915 19.1705 102.062 19.0796C102.21 18.9886 102.284 18.8409 102.284 18.6364V18.5966C102.284 18.1004 102.144 17.7159 101.864 17.4432C101.587 17.1705 101.174 17.0341 100.625 17.0341C100.053 17.0341 99.6023 17.161 99.2727 17.4148C98.947 17.6648 98.7216 17.9432 98.5966 18.25L97 17.8864C97.1894 17.3561 97.4659 16.928 97.8295 16.6023C98.197 16.2727 98.6193 16.0341 99.0966 15.8864C99.5739 15.7349 100.076 15.6591 100.602 15.6591C100.951 15.6591 101.32 15.7008 101.71 15.7841C102.104 15.8636 102.472 16.0114 102.812 16.2273C103.157 16.4432 103.439 16.7519 103.659 17.1534C103.879 17.5511 103.989 18.0682 103.989 18.7046V24.5H102.33V23.3068H102.261C102.152 23.5265 101.987 23.7424 101.767 23.9545C101.547 24.1667 101.265 24.3428 100.92 24.483C100.576 24.6231 100.163 24.6932 99.6818 24.6932ZM100.051 23.3295C100.521 23.3295 100.922 23.2367 101.256 23.0511C101.593 22.8655 101.848 22.6231 102.023 22.3239C102.201 22.0208 102.29 21.697 102.29 21.3523V20.2273C102.229 20.2879 102.112 20.3447 101.937 20.3977C101.767 20.447 101.572 20.4905 101.352 20.5284C101.133 20.5625 100.919 20.5947 100.71 20.625C100.502 20.6515 100.328 20.6742 100.187 20.6932C99.8579 20.7349 99.5568 20.8049 99.2841 20.9034C99.0151 21.0019 98.7992 21.1439 98.6364 21.3295C98.4773 21.5114 98.3977 21.7538 98.3977 22.0568C98.3977 22.4773 98.553 22.7955 98.8636 23.0114C99.1742 23.2235 99.5701 23.3295 100.051 23.3295ZM106.388 24.5V12.8636H108.087V17.1875H108.189C108.287 17.0057 108.429 16.7955 108.615 16.5568C108.801 16.3182 109.058 16.1099 109.388 15.9318C109.717 15.75 110.153 15.6591 110.695 15.6591C111.399 15.6591 112.028 15.8371 112.581 16.1932C113.134 16.5492 113.568 17.0625 113.882 17.733C114.2 18.4034 114.359 19.2102 114.359 20.1534C114.359 21.0966 114.202 21.9053 113.888 22.5795C113.573 23.25 113.142 23.767 112.592 24.1307C112.043 24.4905 111.416 24.6705 110.712 24.6705C110.181 24.6705 109.748 24.5814 109.41 24.4034C109.077 24.2254 108.816 24.017 108.626 23.7784C108.437 23.5398 108.291 23.3277 108.189 23.142H108.047V24.5H106.388ZM108.053 20.1364C108.053 20.75 108.142 21.2879 108.32 21.75C108.498 22.2121 108.755 22.5739 109.092 22.8352C109.429 23.0928 109.842 23.2216 110.331 23.2216C110.839 23.2216 111.263 23.0871 111.604 22.8182C111.945 22.5455 112.202 22.1761 112.376 21.7102C112.554 21.2443 112.643 20.7197 112.643 20.1364C112.643 19.5606 112.556 19.0436 112.382 18.5852C112.212 18.1269 111.954 17.7652 111.609 17.5C111.268 17.2349 110.842 17.1023 110.331 17.1023C109.839 17.1023 109.422 17.2292 109.081 17.483C108.744 17.7367 108.488 18.0909 108.314 18.5455C108.14 19 108.053 19.5303 108.053 20.1364ZM117.966 12.8636V24.5H116.267V12.8636H117.966ZM124.013 24.6761C123.153 24.6761 122.412 24.4924 121.791 24.125C121.174 23.7538 120.696 23.233 120.359 22.5625C120.026 21.8883 119.859 21.0985 119.859 20.1932C119.859 19.2992 120.026 18.5114 120.359 17.8296C120.696 17.1477 121.166 16.6155 121.768 16.233C122.375 15.8504 123.083 15.6591 123.893 15.6591C124.386 15.6591 124.863 15.7405 125.325 15.9034C125.787 16.0663 126.202 16.322 126.57 16.6705C126.937 17.0189 127.227 17.4716 127.439 18.0284C127.651 18.5814 127.757 19.2538 127.757 20.0455V20.6477H120.82V19.375H126.092C126.092 18.928 126.001 18.5322 125.82 18.1875C125.638 17.839 125.382 17.5644 125.053 17.3636C124.727 17.1629 124.344 17.0625 123.905 17.0625C123.428 17.0625 123.011 17.1799 122.655 17.4148C122.303 17.6458 122.03 17.9489 121.837 18.3239C121.647 18.6951 121.553 19.0985 121.553 19.5341V20.5284C121.553 21.1117 121.655 21.608 121.859 22.017C122.068 22.4261 122.357 22.7386 122.729 22.9545C123.1 23.1667 123.534 23.2727 124.03 23.2727C124.352 23.2727 124.645 23.2273 124.91 23.1364C125.176 23.0417 125.405 22.9015 125.598 22.7159C125.791 22.5303 125.939 22.3011 126.041 22.0284L127.649 22.3182C127.52 22.7917 127.289 23.2064 126.956 23.5625C126.626 23.9148 126.212 24.1894 125.712 24.3864C125.215 24.5795 124.649 24.6761 124.013 24.6761ZM137.553 24.6761C136.734 24.6761 136.02 24.4886 135.41 24.1136C134.801 23.7386 134.327 23.214 133.99 22.5398C133.653 21.8655 133.484 21.0777 133.484 20.1761C133.484 19.2708 133.653 18.4792 133.99 17.8011C134.327 17.1231 134.801 16.5966 135.41 16.2216C136.02 15.8466 136.734 15.6591 137.553 15.6591C138.371 15.6591 139.085 15.8466 139.695 16.2216C140.304 16.5966 140.778 17.1231 141.115 17.8011C141.452 18.4792 141.621 19.2708 141.621 20.1761C141.621 21.0777 141.452 21.8655 141.115 22.5398C140.778 23.214 140.304 23.7386 139.695 24.1136C139.085 24.4886 138.371 24.6761 137.553 24.6761ZM137.558 23.25C138.089 23.25 138.528 23.1099 138.876 22.8295C139.225 22.5492 139.482 22.1761 139.649 21.7102C139.82 21.2443 139.905 20.7311 139.905 20.1705C139.905 19.6136 139.82 19.1023 139.649 18.6364C139.482 18.1667 139.225 17.7898 138.876 17.5057C138.528 17.2216 138.089 17.0796 137.558 17.0796C137.024 17.0796 136.581 17.2216 136.229 17.5057C135.88 17.7898 135.621 18.1667 135.45 18.6364C135.284 19.1023 135.2 19.6136 135.2 20.1705C135.2 20.7311 135.284 21.2443 135.45 21.7102C135.621 22.1761 135.88 22.5492 136.229 22.8295C136.581 23.1099 137.024 23.25 137.558 23.25ZM145.216 19.3182V24.5H143.517V15.7727H145.148V17.1932H145.256C145.456 16.7311 145.771 16.3599 146.199 16.0796C146.631 15.7992 147.174 15.6591 147.83 15.6591C148.424 15.6591 148.945 15.7841 149.392 16.0341C149.839 16.2803 150.186 16.6477 150.432 17.1364C150.678 17.625 150.801 18.2292 150.801 18.9489V24.5H149.102V19.1534C149.102 18.5208 148.937 18.0265 148.608 17.6705C148.278 17.3106 147.826 17.1307 147.25 17.1307C146.856 17.1307 146.506 17.2159 146.199 17.3864C145.896 17.5568 145.655 17.8068 145.477 18.1364C145.303 18.4621 145.216 18.8561 145.216 19.3182Z" fill="#E8E8E8"/>
<path d="M60.9357 43.5V31.1364H69.5565V33.5632H63.924V36.0987H69.1158V38.5316H63.924V41.0731H69.5565V43.5H60.9357ZM74.8146 43.6328C74.1304 43.6328 73.5086 43.4557 72.9492 43.1016C72.3898 42.7474 71.9431 42.2161 71.609 41.5078C71.275 40.7995 71.108 39.9201 71.108 38.8697C71.108 37.779 71.281 36.8815 71.6271 36.1772C71.9732 35.4729 72.426 34.9517 72.9854 34.6136C73.5489 34.2756 74.1546 34.1065 74.8026 34.1065C75.2895 34.1065 75.7061 34.191 76.0522 34.3601C76.3983 34.5251 76.6841 34.7384 76.9094 35C77.1348 35.2616 77.3059 35.5333 77.4226 35.815H77.4829V31.1364H80.435V43.5H77.5131V41.9968H77.4226C77.2978 42.2825 77.1207 42.5502 76.8913 42.7997C76.6619 43.0492 76.3742 43.2505 76.028 43.4034C75.686 43.5563 75.2815 43.6328 74.8146 43.6328ZM75.8409 41.3327C76.1991 41.3327 76.505 41.2321 76.7585 41.0309C77.0121 40.8256 77.2073 40.5379 77.3441 40.1676C77.4809 39.7973 77.5494 39.3627 77.5494 38.8636C77.5494 38.3565 77.4809 37.9199 77.3441 37.5536C77.2113 37.1874 77.0161 36.9057 76.7585 36.7084C76.505 36.5112 76.1991 36.4126 75.8409 36.4126C75.4747 36.4126 75.1648 36.5133 74.9112 36.7145C74.6577 36.9157 74.4645 37.1995 74.3317 37.5657C74.2029 37.9319 74.1385 38.3646 74.1385 38.8636C74.1385 39.3627 74.2049 39.7973 74.3377 40.1676C74.4705 40.5379 74.6617 40.8256 74.9112 41.0309C75.1648 41.2321 75.4747 41.3327 75.8409 41.3327ZM86.6244 47.1704C85.743 47.1704 84.9884 47.0477 84.3605 46.8022C83.7327 46.5567 83.2397 46.2206 82.8815 45.794C82.5233 45.3674 82.308 44.8845 82.2355 44.3452L85.0306 44.1882C85.0829 44.3774 85.1795 44.5424 85.3204 44.6832C85.4653 44.8241 85.6524 44.9328 85.8818 45.0092C86.1153 45.0857 86.3889 45.1239 86.7029 45.1239C87.1979 45.1239 87.6064 45.0032 87.9283 44.7617C88.2543 44.5243 88.4173 44.1077 88.4173 43.5121V41.8821H88.3147C88.198 42.1678 88.0209 42.4234 87.7835 42.6488C87.546 42.8742 87.2502 43.0513 86.896 43.18C86.5459 43.3088 86.1434 43.3732 85.6886 43.3732C85.0125 43.3732 84.3927 43.2163 83.8293 42.9023C83.2698 42.5844 82.8211 42.0934 82.483 41.4293C82.149 40.7612 81.982 39.902 81.982 38.8516C81.982 37.7689 82.155 36.8775 82.5011 36.1772C82.8473 35.4729 83.3 34.9517 83.8595 34.6136C84.4229 34.2756 85.0286 34.1065 85.6766 34.1065C86.1636 34.1065 86.5801 34.191 86.9262 34.3601C87.2764 34.5251 87.5641 34.7384 87.7895 35C88.0149 35.2616 88.1859 35.5333 88.3026 35.815H88.3872V34.2273H91.3271V43.5362C91.3271 44.321 91.1299 44.9831 90.7355 45.5224C90.3411 46.0617 89.7897 46.4702 89.0814 46.7479C88.3731 47.0296 87.5541 47.1704 86.6244 47.1704ZM86.7149 41.2241C87.0731 41.2241 87.379 41.1295 87.6325 40.9403C87.8861 40.7512 88.0813 40.4795 88.2181 40.1254C88.355 39.7712 88.4234 39.3466 88.4234 38.8516C88.4234 38.3485 88.355 37.9158 88.2181 37.5536C88.0853 37.1874 87.8901 36.9057 87.6325 36.7084C87.379 36.5112 87.0731 36.4126 86.7149 36.4126C86.3487 36.4126 86.0388 36.5133 85.7852 36.7145C85.5317 36.9157 85.3385 37.1995 85.2057 37.5657C85.0769 37.9279 85.0125 38.3565 85.0125 38.8516C85.0125 39.3466 85.0789 39.7712 85.2117 40.1254C85.3445 40.4795 85.5357 40.7512 85.7852 40.9403C86.0388 41.1295 86.3487 41.2241 86.7149 41.2241ZM97.5437 43.6751C96.5737 43.6751 95.7366 43.4839 95.0323 43.1016C94.332 42.7152 93.7927 42.1658 93.4144 41.4535C93.0401 40.7371 92.853 39.8859 92.853 38.8999C92.853 37.942 93.0421 37.1049 93.4204 36.3885C93.7988 35.6681 94.332 35.1087 95.0202 34.7102C95.7084 34.3078 96.5194 34.1065 97.4531 34.1065C98.1132 34.1065 98.7168 34.2092 99.2642 34.4144C99.8115 34.6197 100.284 34.9235 100.683 35.326C101.081 35.7285 101.391 36.2255 101.613 36.8171C101.834 37.4047 101.945 38.0788 101.945 38.8395V39.576H93.8853V37.8615H99.1978C99.1938 37.5476 99.1193 37.2679 98.9744 37.0224C98.8295 36.7769 98.6303 36.5857 98.3768 36.4489C98.1272 36.308 97.8395 36.2376 97.5135 36.2376C97.1835 36.2376 96.8877 36.312 96.6261 36.4609C96.3645 36.6058 96.1572 36.805 96.0043 37.0586C95.8513 37.3081 95.7708 37.5919 95.7628 37.9098V39.6545C95.7628 40.0328 95.8372 40.3648 95.9861 40.6506C96.1351 40.9323 96.3463 41.1516 96.62 41.3086C96.8937 41.4656 97.2197 41.544 97.598 41.544C97.8596 41.544 98.0971 41.5078 98.3104 41.4354C98.5237 41.3629 98.7068 41.2563 98.8597 41.1154C99.0127 40.9745 99.1274 40.8015 99.2038 40.5962L101.914 40.6747C101.802 41.2824 101.554 41.8117 101.172 42.2624C100.794 42.7092 100.297 43.0573 99.6807 43.3068C99.065 43.5523 98.3526 43.6751 97.5437 43.6751Z" fill="white"/>
</g>
<defs>
<filter id="filter0_d_8_2" x="54.4" y="3.90001" width="103.2" height="48.8704" filterUnits="userSpaceOnUse" color-interpolation-filters="sRGB">
<feFlood flood-opacity="0" result="BackgroundImageFix"/>
<feColorMatrix in="SourceAlpha" type="matrix" values="0 0 0 0 0 0 0 0 0 0 0 0 0 0 0 0 0 0 127 0" result="hardAlpha"/>
<feOffset/>
<feGaussianBlur stdDeviation="2.8"/>
<feComposite in2="hardAlpha" operator="out"/>
<feColorMatrix type="matrix" values="0 0 0 0 0 0 0 0 0 0 0 0 0 0 0 0 0 0 0.25 0"/>
<feBlend mode="normal" in2="BackgroundImageFix" result="effect1_dropShadow_8_2"/>
<feBlend mode="normal" in="SourceGraphic" in2="effect1_dropShadow_8_2" result="shape"/>
</filter>
<linearGradient id="paint0_linear_8_2" x1="82" y1="0" x2="82" y2="56" gradientUnits="userSpaceOnUse">
<stop stop-color="#20989A"/>
<stop offset="1" stop-color="#20989A"/>
</linearGradient>
<linearGradient id="paint1_linear_8_2" x1="21.1719" y1="35.6562" x2="49.0469" y2="35.6562" gradientUnits="userSpaceOnUse">
<stop stop-color="#0C59A4"/>
<stop offset="1" stop-color="#114A8B"/>
</linearGradient>
<radialGradient id="paint2_radial_8_2" cx="0" cy="0" r="1" gradientUnits="userSpaceOnUse" gradientTransform="translate(36.5625 35.8664) scale(14.9063 14.1609)">
<stop offset="0.7" stop-opacity="0"/>
<stop offset="0.9" stop-opacity="0.5"/>
<stop offset="1"/>
</radialGradient>
<linearGradient id="paint3_linear_8_2" x1="35.8594" y1="23.5625" x2="18.4687" y2="42.5156" gradientUnits="userSpaceOnUse">
<stop stop-color="#1B9DE2"/>
<stop offset="0.2" stop-color="#1595DF"/>
<stop offset="0.7" stop-color="#0680D7"/>
<stop offset="1" stop-color="#0078D4"/>
</linearGradient>
<radialGradient id="paint4_radial_8_2" cx="0" cy="0" r="1" gradientUnits="userSpaceOnUse" gradientTransform="translate(23.0242 39.0839) rotate(-81.3844) scale(22.4041 18.1002)">
<stop offset="0.8" stop-opacity="0"/>
<stop offset="0.9" stop-opacity="0.5"/>
<stop offset="1"/>
</radialGradient>
<radialGradient id="paint5_radial_8_2" cx="0" cy="0" r="1" gradientUnits="userSpaceOnUse" gradientTransform="translate(16.0453 15.3931) rotate(92.2906) scale(31.6503 67.4085)">
<stop stop-color="#35C1F1"/>
<stop offset="0.1" stop-color="#34C1ED"/>
<stop offset="0.2" stop-color="#2FC2DF"/>
<stop offset="0.3" stop-color="#2BC3D2"/>
<stop offset="0.7" stop-color="#36C752"/>
</radialGradient>
<radialGradient id="paint6_radial_8_2" cx="0" cy="0" r="1" gradientUnits="userSpaceOnUse" gradientTransform="translate(49.5094 20.0781) rotate(73.7398) scale(15.2031 12.3632)">
<stop stop-color="#66EB6E"/>
<stop offset="1" stop-color="#66EB6E" stop-opacity="0"/>
</radialGradient>
<clipPath id="clip0_8_2">
<rect width="40" height="40" fill="white" transform="translate(12 8)"/>
</clipPath>
</defs>
</svg>
