<svg width="164" height="56" viewBox="0 0 164 56" fill="none" xmlns="http://www.w3.org/2000/svg">
<rect width="164" height="56" rx="8" fill="url(#paint0_linear_2016_2)"/>
<rect x="1.05" y="1.05" width="161.9" height="53.9" rx="6.95" stroke="#222222" stroke-opacity="0.15" stroke-width="2.1"/>
<g clip-path="url(#clip0_2016_2)">
<path d="M50.9958 26.7846C51.2436 26.5241 51.4216 26.2024 51.53 25.8179C51.6384 25.434 51.6925 24.9569 51.6925 24.3864C51.6925 23.6363 51.5485 23.0135 51.2613 22.5179C50.4098 26.512 48.335 30.7614 45.3707 34.6476H47.7545C49.2336 34.6476 50.2443 34.1149 50.7865 33.0491C51.1659 32.3181 51.3558 31.3266 51.3558 30.0748C51.3558 29.3685 51.2338 28.8171 50.9898 28.4205C50.7457 28.0239 50.4147 27.7326 49.9965 27.5469L50.0082 27.3613C50.3799 27.2746 50.709 27.0821 50.9958 26.7846Z" fill="white"/>
<path d="M18.8323 21.3756H14.3322L12.7446 34.6482C13.4112 30.3324 15.5872 25.6367 18.8323 21.3756Z" fill="white"/>
<path d="M32.7918 33.4395H28.3774L27.8546 34.648H22.7197L24.1442 31.4692H17.7707L17.3873 34.648H12.7446C12.4848 36.8192 12.4554 38.8939 12.94 40.769C15.1358 49.27 25.4987 50.4445 36.0863 43.392C39.6873 40.9934 42.8503 37.952 45.3706 34.648H33.0356L32.7918 33.4395Z" fill="white"/>
<path d="M31.3165 26.5247L29.8643 29.9266H32.0832L31.3977 26.5247H31.3165Z" fill="white"/>
<path d="M25.4498 26.0599H18.4213L18.2355 27.5841H24.8805L24.5022 30.6702L28.6677 21.3752H35.092L37.6884 33.7346L39.1812 21.3752H48.9397C49.8922 21.3752 50.5893 21.6449 51.0308 22.184C51.1162 22.288 51.1928 22.3997 51.2616 22.5185C51.8143 19.925 51.8515 17.4394 51.2811 15.2308C49.0853 6.72982 38.7224 5.55528 28.1347 12.6077C24.525 15.012 21.3555 18.0625 18.8322 21.3756H26.0075L25.4498 26.0599Z" fill="white"/>
<path d="M46.0819 24.9262H43.3983L43.1893 26.6365H45.8729C46.1517 26.6365 46.3569 26.5065 46.4887 26.246C46.5971 26.0356 46.6515 25.8246 46.6515 25.6142C46.6515 25.1559 46.4613 24.9262 46.0819 24.9262Z" fill="white"/>
<path d="M45.675 29.4429H42.852L42.6313 31.2645H45.4426C45.7522 31.2645 45.9731 31.1284 46.1049 30.8557C46.1513 30.7565 46.1899 30.6452 46.2209 30.5209C46.2519 30.3974 46.2674 30.2856 46.2674 30.1865C46.2674 29.6907 46.0699 29.4429 45.675 29.4429Z" fill="white"/>
</g>
<g filter="url(#filter0_d_2016_2)">
<path d="M62.2614 24.5H60.3977L64.5852 12.8636H66.6136L70.8011 24.5H68.9375L65.6477 14.9773H65.5568L62.2614 24.5ZM62.5739 19.9432H68.6193V21.4205H62.5739V19.9432ZM78.7173 15.7727L75.5526 24.5H73.7344L70.5639 15.7727H72.3878L74.598 22.4886H74.6889L76.8935 15.7727H78.7173ZM82.6037 24.6932C82.0507 24.6932 81.5507 24.5909 81.1037 24.3864C80.6567 24.178 80.3026 23.8769 80.0412 23.483C79.7836 23.089 79.6548 22.6061 79.6548 22.0341C79.6548 21.5417 79.7495 21.1364 79.9389 20.8182C80.1283 20.5 80.384 20.2481 80.706 20.0625C81.0279 19.8769 81.3878 19.7367 81.7855 19.642C82.1832 19.5473 82.5885 19.4754 83.0014 19.4261C83.5241 19.3655 83.9484 19.3163 84.2741 19.2784C84.5999 19.2367 84.8366 19.1705 84.9844 19.0795C85.1321 18.9886 85.206 18.8409 85.206 18.6364V18.5966C85.206 18.1004 85.0658 17.7159 84.7855 17.4432C84.509 17.1705 84.0961 17.0341 83.5469 17.0341C82.9749 17.0341 82.5241 17.161 82.1946 17.4148C81.8688 17.6648 81.6435 17.9432 81.5185 18.25L79.9219 17.8864C80.1113 17.3561 80.3878 16.928 80.7514 16.6023C81.1188 16.2727 81.5412 16.0341 82.0185 15.8864C82.4957 15.7348 82.9976 15.6591 83.5241 15.6591C83.8726 15.6591 84.2419 15.7008 84.6321 15.7841C85.026 15.8636 85.3935 16.0114 85.7344 16.2273C86.0791 16.4432 86.3613 16.7519 86.581 17.1534C86.8007 17.5511 86.9105 18.0682 86.9105 18.7045V24.5H85.2514V23.3068H85.1832C85.0734 23.5265 84.9086 23.7424 84.6889 23.9545C84.4692 24.1667 84.187 24.3428 83.8423 24.483C83.4976 24.6231 83.0847 24.6932 82.6037 24.6932ZM82.973 23.3295C83.4427 23.3295 83.8442 23.2367 84.1775 23.0511C84.5147 22.8655 84.7704 22.6231 84.9446 22.3239C85.1226 22.0208 85.2116 21.697 85.2116 21.3523V20.2273C85.151 20.2879 85.0336 20.3447 84.8594 20.3977C84.6889 20.447 84.4938 20.4905 84.2741 20.5284C84.0544 20.5625 83.8404 20.5947 83.6321 20.625C83.4238 20.6515 83.2495 20.6742 83.1094 20.6932C82.7798 20.7348 82.4787 20.8049 82.206 20.9034C81.937 21.0019 81.7211 21.1439 81.5582 21.3295C81.3991 21.5114 81.3196 21.7538 81.3196 22.0568C81.3196 22.4773 81.4749 22.7955 81.7855 23.0114C82.0961 23.2235 82.4919 23.3295 82.973 23.3295ZM89.1733 24.5V15.7727H90.8722V24.5H89.1733ZM90.0312 14.4261C89.7358 14.4261 89.482 14.3276 89.2699 14.1307C89.0615 13.9299 88.9574 13.6913 88.9574 13.4148C88.9574 13.1345 89.0615 12.8958 89.2699 12.6989C89.482 12.4981 89.7358 12.3977 90.0312 12.3977C90.3267 12.3977 90.5786 12.4981 90.7869 12.6989C90.999 12.8958 91.1051 13.1345 91.1051 13.4148C91.1051 13.6913 90.999 13.9299 90.7869 14.1307C90.5786 14.3276 90.3267 14.4261 90.0312 14.4261ZM94.8565 12.8636V24.5H93.1577V12.8636H94.8565ZM99.6818 24.6932C99.1288 24.6932 98.6288 24.5909 98.1818 24.3864C97.7348 24.178 97.3807 23.8769 97.1193 23.483C96.8617 23.089 96.7329 22.6061 96.7329 22.0341C96.7329 21.5417 96.8276 21.1364 97.017 20.8182C97.2064 20.5 97.4621 20.2481 97.7841 20.0625C98.106 19.8769 98.4659 19.7367 98.8636 19.642C99.2614 19.5473 99.6667 19.4754 100.08 19.4261C100.602 19.3655 101.027 19.3163 101.352 19.2784C101.678 19.2367 101.915 19.1705 102.062 19.0795C102.21 18.9886 102.284 18.8409 102.284 18.6364V18.5966C102.284 18.1004 102.144 17.7159 101.864 17.4432C101.587 17.1705 101.174 17.0341 100.625 17.0341C100.053 17.0341 99.6023 17.161 99.2727 17.4148C98.947 17.6648 98.7216 17.9432 98.5966 18.25L97 17.8864C97.1894 17.3561 97.4659 16.928 97.8295 16.6023C98.197 16.2727 98.6193 16.0341 99.0966 15.8864C99.5739 15.7348 100.076 15.6591 100.602 15.6591C100.951 15.6591 101.32 15.7008 101.71 15.7841C102.104 15.8636 102.472 16.0114 102.812 16.2273C103.157 16.4432 103.439 16.7519 103.659 17.1534C103.879 17.5511 103.989 18.0682 103.989 18.7045V24.5H102.33V23.3068H102.261C102.152 23.5265 101.987 23.7424 101.767 23.9545C101.547 24.1667 101.265 24.3428 100.92 24.483C100.576 24.6231 100.163 24.6932 99.6818 24.6932ZM100.051 23.3295C100.521 23.3295 100.922 23.2367 101.256 23.0511C101.593 22.8655 101.848 22.6231 102.023 22.3239C102.201 22.0208 102.29 21.697 102.29 21.3523V20.2273C102.229 20.2879 102.112 20.3447 101.937 20.3977C101.767 20.447 101.572 20.4905 101.352 20.5284C101.133 20.5625 100.919 20.5947 100.71 20.625C100.502 20.6515 100.328 20.6742 100.187 20.6932C99.8579 20.7348 99.5568 20.8049 99.2841 20.9034C99.0151 21.0019 98.7992 21.1439 98.6364 21.3295C98.4773 21.5114 98.3977 21.7538 98.3977 22.0568C98.3977 22.4773 98.553 22.7955 98.8636 23.0114C99.1742 23.2235 99.5701 23.3295 100.051 23.3295ZM106.388 24.5V12.8636H108.087V17.1875H108.189C108.287 17.0057 108.429 16.7955 108.615 16.5568C108.801 16.3182 109.058 16.1098 109.388 15.9318C109.717 15.75 110.153 15.6591 110.695 15.6591C111.399 15.6591 112.028 15.8371 112.581 16.1932C113.134 16.5492 113.568 17.0625 113.882 17.733C114.2 18.4034 114.359 19.2102 114.359 20.1534C114.359 21.0966 114.202 21.9053 113.888 22.5795C113.573 23.25 113.142 23.767 112.592 24.1307C112.043 24.4905 111.416 24.6705 110.712 24.6705C110.181 24.6705 109.748 24.5814 109.41 24.4034C109.077 24.2254 108.816 24.017 108.626 23.7784C108.437 23.5398 108.291 23.3276 108.189 23.142H108.047V24.5H106.388ZM108.053 20.1364C108.053 20.75 108.142 21.2879 108.32 21.75C108.498 22.2121 108.755 22.5739 109.092 22.8352C109.429 23.0928 109.842 23.2216 110.331 23.2216C110.839 23.2216 111.263 23.0871 111.604 22.8182C111.945 22.5455 112.202 22.1761 112.376 21.7102C112.554 21.2443 112.643 20.7197 112.643 20.1364C112.643 19.5606 112.556 19.0436 112.382 18.5852C112.212 18.1269 111.954 17.7651 111.609 17.5C111.268 17.2348 110.842 17.1023 110.331 17.1023C109.839 17.1023 109.422 17.2292 109.081 17.483C108.744 17.7367 108.488 18.0909 108.314 18.5455C108.14 19 108.053 19.5303 108.053 20.1364ZM117.966 12.8636V24.5H116.267V12.8636H117.966ZM124.013 24.6761C123.153 24.6761 122.412 24.4924 121.791 24.125C121.174 23.7538 120.696 23.233 120.359 22.5625C120.026 21.8883 119.859 21.0985 119.859 20.1932C119.859 19.2992 120.026 18.5114 120.359 17.8295C120.696 17.1477 121.166 16.6155 121.768 16.233C122.375 15.8504 123.083 15.6591 123.893 15.6591C124.386 15.6591 124.863 15.7405 125.325 15.9034C125.787 16.0663 126.202 16.322 126.57 16.6705C126.937 17.0189 127.227 17.4716 127.439 18.0284C127.651 18.5814 127.757 19.2538 127.757 20.0455V20.6477H120.82V19.375H126.092C126.092 18.928 126.001 18.5322 125.82 18.1875C125.638 17.839 125.382 17.5644 125.053 17.3636C124.727 17.1629 124.344 17.0625 123.905 17.0625C123.428 17.0625 123.011 17.1799 122.655 17.4148C122.303 17.6458 122.03 17.9489 121.837 18.3239C121.647 18.6951 121.553 19.0985 121.553 19.5341V20.5284C121.553 21.1117 121.655 21.608 121.859 22.017C122.068 22.4261 122.357 22.7386 122.729 22.9545C123.1 23.1667 123.534 23.2727 124.03 23.2727C124.352 23.2727 124.645 23.2273 124.91 23.1364C125.176 23.0417 125.405 22.9015 125.598 22.7159C125.791 22.5303 125.939 22.3011 126.041 22.0284L127.649 22.3182C127.52 22.7917 127.289 23.2064 126.956 23.5625C126.626 23.9148 126.212 24.1894 125.712 24.3864C125.215 24.5795 124.649 24.6761 124.013 24.6761ZM137.553 24.6761C136.734 24.6761 136.02 24.4886 135.41 24.1136C134.801 23.7386 134.327 23.214 133.99 22.5398C133.653 21.8655 133.484 21.0776 133.484 20.1761C133.484 19.2708 133.653 18.4792 133.99 17.8011C134.327 17.1231 134.801 16.5966 135.41 16.2216C136.02 15.8466 136.734 15.6591 137.553 15.6591C138.371 15.6591 139.085 15.8466 139.695 16.2216C140.304 16.5966 140.778 17.1231 141.115 17.8011C141.452 18.4792 141.621 19.2708 141.621 20.1761C141.621 21.0776 141.452 21.8655 141.115 22.5398C140.778 23.214 140.304 23.7386 139.695 24.1136C139.085 24.4886 138.371 24.6761 137.553 24.6761ZM137.558 23.25C138.089 23.25 138.528 23.1098 138.876 22.8295C139.225 22.5492 139.482 22.1761 139.649 21.7102C139.82 21.2443 139.905 20.7311 139.905 20.1705C139.905 19.6136 139.82 19.1023 139.649 18.6364C139.482 18.1667 139.225 17.7898 138.876 17.5057C138.528 17.2216 138.089 17.0795 137.558 17.0795C137.024 17.0795 136.581 17.2216 136.229 17.5057C135.88 17.7898 135.621 18.1667 135.45 18.6364C135.284 19.1023 135.2 19.6136 135.2 20.1705C135.2 20.7311 135.284 21.2443 135.45 21.7102C135.621 22.1761 135.88 22.5492 136.229 22.8295C136.581 23.1098 137.024 23.25 137.558 23.25ZM145.216 19.3182V24.5H143.517V15.7727H145.148V17.1932H145.256C145.456 16.7311 145.771 16.3598 146.199 16.0795C146.631 15.7992 147.174 15.6591 147.83 15.6591C148.424 15.6591 148.945 15.7841 149.392 16.0341C149.839 16.2803 150.186 16.6477 150.432 17.1364C150.678 17.625 150.801 18.2292 150.801 18.9489V24.5H149.102V19.1534C149.102 18.5208 148.937 18.0265 148.608 17.6705C148.278 17.3106 147.826 17.1307 147.25 17.1307C146.856 17.1307 146.506 17.2159 146.199 17.3864C145.896 17.5568 145.655 17.8068 145.477 18.1364C145.303 18.4621 145.216 18.8561 145.216 19.3182Z" fill="#E8E8E8"/>
<path d="M60.9357 43.5V31.1364H69.3754V33.5632H63.924V36.0987H68.8381V38.5316H63.924V43.5H60.9357ZM72.0105 43.5H68.7988L72.9703 31.1364H76.9487L81.1202 43.5H77.9086L75.0048 34.2514H74.9082L72.0105 43.5ZM71.5819 38.6342H78.2949V40.9041H71.5819V38.6342ZM82.4513 43.5V31.1364H87.6069C88.5325 31.1364 89.3073 31.2672 89.9311 31.5288C90.5589 31.7904 91.0298 32.1566 91.3437 32.6275C91.6617 33.0984 91.8207 33.6437 91.8207 34.2635C91.8207 34.7344 91.7221 35.1549 91.5248 35.5252C91.3276 35.8915 91.056 36.1953 90.7099 36.4368C90.3637 36.6783 89.9633 36.8473 89.5085 36.9439V37.0646C90.0076 37.0888 90.4684 37.2236 90.891 37.4691C91.3176 37.7146 91.6597 38.0567 91.9172 38.4954C92.1748 38.93 92.3036 39.4452 92.3036 40.0408C92.3036 40.7049 92.1346 41.2985 91.7965 41.8217C91.4584 42.3409 90.9695 42.7514 90.3295 43.0533C89.6896 43.3511 88.9129 43.5 87.9993 43.5H82.4513ZM85.4396 41.0913H87.2869C87.9349 41.0913 88.4118 40.9685 88.7177 40.723C89.0276 40.4775 89.1825 40.1354 89.1825 39.6967C89.1825 39.3788 89.1081 39.1051 88.9592 38.8757C88.8102 38.6423 88.599 38.4632 88.3253 38.3384C88.0516 38.2096 87.7236 38.1452 87.3413 38.1452H85.4396V41.0913ZM85.4396 36.2195H87.0937C87.4197 36.2195 87.7095 36.1651 87.9631 36.0565C88.2166 35.9478 88.4138 35.7908 88.5547 35.5856C88.6996 35.3803 88.772 35.1328 88.772 34.843C88.772 34.4285 88.6251 34.1025 88.3313 33.8651C88.0375 33.6276 87.6411 33.5089 87.142 33.5089H85.4396V36.2195Z" fill="white"/>
</g>
<defs>
<filter id="filter0_d_2016_2" x="54.4" y="3.9" width="103.2" height="48.2" filterUnits="userSpaceOnUse" color-interpolation-filters="sRGB">
<feFlood flood-opacity="0" result="BackgroundImageFix"/>
<feColorMatrix in="SourceAlpha" type="matrix" values="0 0 0 0 0 0 0 0 0 0 0 0 0 0 0 0 0 0 127 0" result="hardAlpha"/>
<feOffset/>
<feGaussianBlur stdDeviation="2.8"/>
<feComposite in2="hardAlpha" operator="out"/>
<feColorMatrix type="matrix" values="0 0 0 0 0 0 0 0 0 0 0 0 0 0 0 0 0 0 0.25 0"/>
<feBlend mode="normal" in2="BackgroundImageFix" result="effect1_dropShadow_2016_2"/>
<feBlend mode="normal" in="SourceGraphic" in2="effect1_dropShadow_2016_2" result="shape"/>
</filter>
<linearGradient id="paint0_linear_2016_2" x1="82" y1="0" x2="82" y2="56" gradientUnits="userSpaceOnUse">
<stop stop-color="#242424"/>
<stop offset="1"/>
</linearGradient>
<clipPath id="clip0_2016_2">
<rect width="40" height="40" fill="white" transform="translate(12 8)"/>
</clipPath>
</defs>
</svg>
