<svg width="56" height="56" viewBox="0 0 56 56" fill="none" xmlns="http://www.w3.org/2000/svg">
<rect width="56" height="56" rx="8.4" fill="white"/>
<rect x="1.05" y="1.05" width="53.9" height="53.9" rx="7.35" stroke="#222222" stroke-opacity="0.15" stroke-width="2.1"/>
<g filter="url(#filter0_d_5_13)">
<g filter="url(#filter1_d_5_13)">
<path d="M49 28.0735C49 16.9872 39.8218 8 28.5 8C17.1782 8 8 16.9872 8 28.0735C8 37.4876 14.6186 45.3867 23.5477 47.5559V34.2077H19.3204V28.0735H23.5477V25.4303C23.5477 18.5979 26.7053 15.4311 33.5556 15.4311C34.8543 15.4311 37.0953 15.6804 38.0121 15.9298V21.4905C37.5282 21.4407 36.6879 21.4157 35.6438 21.4157C32.2823 21.4157 30.9835 22.6625 30.9835 25.9041V28.0735H37.6796L36.5293 34.2077H30.9835V48C41.134 46.7995 49 38.3365 49 28.0735Z" fill="#0866FF"/>
</g>
</g>
<defs>
<filter id="filter0_d_5_13" x="2.28571" y="2.28571" width="52.4286" height="51.4286" filterUnits="userSpaceOnUse" color-interpolation-filters="sRGB">
<feFlood flood-opacity="0" result="BackgroundImageFix"/>
<feColorMatrix in="SourceAlpha" type="matrix" values="0 0 0 0 0 0 0 0 0 0 0 0 0 0 0 0 0 0 127 0" result="hardAlpha"/>
<feOffset/>
<feGaussianBlur stdDeviation="2.85714"/>
<feComposite in2="hardAlpha" operator="out"/>
<feColorMatrix type="matrix" values="0 0 0 0 0 0 0 0 0 0 0 0 0 0 0 0 0 0 0.25 0"/>
<feBlend mode="normal" in2="BackgroundImageFix" result="effect1_dropShadow_5_13"/>
<feBlend mode="normal" in="SourceGraphic" in2="effect1_dropShadow_5_13" result="shape"/>
</filter>
<filter id="filter1_d_5_13" x="2.28571" y="2.28571" width="52.4286" height="51.4286" filterUnits="userSpaceOnUse" color-interpolation-filters="sRGB">
<feFlood flood-opacity="0" result="BackgroundImageFix"/>
<feColorMatrix in="SourceAlpha" type="matrix" values="0 0 0 0 0 0 0 0 0 0 0 0 0 0 0 0 0 0 127 0" result="hardAlpha"/>
<feOffset/>
<feGaussianBlur stdDeviation="2.85714"/>
<feComposite in2="hardAlpha" operator="out"/>
<feColorMatrix type="matrix" values="0 0 0 0 0 0 0 0 0 0 0 0 0 0 0 0 0 0 0.25 0"/>
<feBlend mode="normal" in2="BackgroundImageFix" result="effect1_dropShadow_5_13"/>
<feBlend mode="normal" in="SourceGraphic" in2="effect1_dropShadow_5_13" result="shape"/>
</filter>
</defs>
</svg>
