<svg width="137" height="32" viewBox="0 0 137 32" fill="none" xmlns="http://www.w3.org/2000/svg">
<path d="M132 0H31V32H132C134.761 32 137 29.7614 137 27V5C137 2.23858 134.761 0 132 0Z" fill="#0F1418"/>
<path d="M53.5232 10.47V12.525H49.2332V14.745H52.4432V16.74H49.2332V21H46.6682V10.47H53.5232ZM54.5413 16.8C54.5413 15.94 54.7013 15.185 55.0213 14.535C55.3513 13.885 55.7963 13.385 56.3563 13.035C56.9163 12.685 57.5413 12.51 58.2313 12.51C58.8213 12.51 59.3363 12.63 59.7763 12.87C60.2263 13.11 60.5713 13.425 60.8113 13.815V12.63H63.3763V21H60.8113V19.815C60.5613 20.205 60.2113 20.52 59.7613 20.76C59.3213 21 58.8063 21.12 58.2163 21.12C57.5363 21.12 56.9163 20.945 56.3563 20.595C55.7963 20.235 55.3513 19.73 55.0213 19.08C54.7013 18.42 54.5413 17.66 54.5413 16.8ZM60.8113 16.815C60.8113 16.175 60.6313 15.67 60.2713 15.3C59.9213 14.93 59.4913 14.745 58.9813 14.745C58.4713 14.745 58.0363 14.93 57.6763 15.3C57.3263 15.66 57.1513 16.16 57.1513 16.8C57.1513 17.44 57.3263 17.95 57.6763 18.33C58.0363 18.7 58.4713 18.885 58.9813 18.885C59.4913 18.885 59.9213 18.7 60.2713 18.33C60.6313 17.96 60.8113 17.455 60.8113 16.815ZM64.902 16.815C64.902 15.945 65.077 15.185 65.427 14.535C65.787 13.885 66.282 13.385 66.912 13.035C67.552 12.685 68.282 12.51 69.102 12.51C70.152 12.51 71.027 12.785 71.727 13.335C72.437 13.885 72.902 14.66 73.122 15.66H70.392C70.162 15.02 69.717 14.7 69.057 14.7C68.587 14.7 68.212 14.885 67.932 15.255C67.652 15.615 67.512 16.135 67.512 16.815C67.512 17.495 67.652 18.02 67.932 18.39C68.212 18.75 68.587 18.93 69.057 18.93C69.717 18.93 70.162 18.61 70.392 17.97H73.122C72.902 18.95 72.437 19.72 71.727 20.28C71.017 20.84 70.142 21.12 69.102 21.12C68.282 21.12 67.552 20.945 66.912 20.595C66.282 20.245 65.787 19.745 65.427 19.095C65.077 18.445 64.902 17.685 64.902 16.815ZM82.564 16.68C82.564 16.92 82.549 17.17 82.519 17.43H76.714C76.754 17.95 76.919 18.35 77.209 18.63C77.509 18.9 77.874 19.035 78.304 19.035C78.944 19.035 79.389 18.765 79.639 18.225H82.369C82.229 18.775 81.974 19.27 81.604 19.71C81.244 20.15 80.789 20.495 80.239 20.745C79.689 20.995 79.074 21.12 78.394 21.12C77.574 21.12 76.844 20.945 76.204 20.595C75.564 20.245 75.064 19.745 74.704 19.095C74.344 18.445 74.164 17.685 74.164 16.815C74.164 15.945 74.339 15.185 74.689 14.535C75.049 13.885 75.549 13.385 76.189 13.035C76.829 12.685 77.564 12.51 78.394 12.51C79.204 12.51 79.924 12.68 80.554 13.02C81.184 13.36 81.674 13.845 82.024 14.475C82.384 15.105 82.564 15.84 82.564 16.68ZM79.939 16.005C79.939 15.565 79.789 15.215 79.489 14.955C79.189 14.695 78.814 14.565 78.364 14.565C77.934 14.565 77.569 14.69 77.269 14.94C76.979 15.19 76.799 15.545 76.729 16.005H79.939ZM86.6621 13.815C86.9021 13.425 87.2471 13.11 87.6971 12.87C88.1471 12.63 88.6621 12.51 89.2421 12.51C89.9321 12.51 90.5571 12.685 91.1171 13.035C91.6771 13.385 92.1171 13.885 92.4371 14.535C92.7671 15.185 92.9321 15.94 92.9321 16.8C92.9321 17.66 92.7671 18.42 92.4371 19.08C92.1171 19.73 91.6771 20.235 91.1171 20.595C90.5571 20.945 89.9321 21.12 89.2421 21.12C88.6521 21.12 88.1371 21.005 87.6971 20.775C87.2571 20.535 86.9121 20.22 86.6621 19.83V21H84.0971V9.9H86.6621V13.815ZM90.3221 16.8C90.3221 16.16 90.1421 15.66 89.7821 15.3C89.4321 14.93 88.9971 14.745 88.4771 14.745C87.9671 14.745 87.5321 14.93 87.1721 15.3C86.8221 15.67 86.6471 16.175 86.6471 16.815C86.6471 17.455 86.8221 17.96 87.1721 18.33C87.5321 18.7 87.9671 18.885 88.4771 18.885C88.9871 18.885 89.4221 18.7 89.7821 18.33C90.1421 17.95 90.3221 17.44 90.3221 16.8ZM98.2678 21.12C97.4478 21.12 96.7078 20.945 96.0478 20.595C95.3978 20.245 94.8828 19.745 94.5028 19.095C94.1328 18.445 93.9478 17.685 93.9478 16.815C93.9478 15.955 94.1378 15.2 94.5178 14.55C94.8978 13.89 95.4178 13.385 96.0778 13.035C96.7378 12.685 97.4778 12.51 98.2978 12.51C99.1178 12.51 99.8578 12.685 100.518 13.035C101.178 13.385 101.698 13.89 102.078 14.55C102.458 15.2 102.648 15.955 102.648 16.815C102.648 17.675 102.453 18.435 102.063 19.095C101.683 19.745 101.158 20.245 100.488 20.595C99.8278 20.945 99.0878 21.12 98.2678 21.12ZM98.2678 18.9C98.7578 18.9 99.1728 18.72 99.5128 18.36C99.8628 18 100.038 17.485 100.038 16.815C100.038 16.145 99.8678 15.63 99.5278 15.27C99.1978 14.91 98.7878 14.73 98.2978 14.73C97.7978 14.73 97.3828 14.91 97.0528 15.27C96.7228 15.62 96.5578 16.135 96.5578 16.815C96.5578 17.485 96.7178 18 97.0378 18.36C97.3678 18.72 97.7778 18.9 98.2678 18.9ZM107.999 21.12C107.179 21.12 106.439 20.945 105.779 20.595C105.129 20.245 104.614 19.745 104.234 19.095C103.864 18.445 103.679 17.685 103.679 16.815C103.679 15.955 103.869 15.2 104.249 14.55C104.629 13.89 105.149 13.385 105.809 13.035C106.469 12.685 107.209 12.51 108.029 12.51C108.849 12.51 109.589 12.685 110.249 13.035C110.909 13.385 111.429 13.89 111.809 14.55C112.189 15.2 112.379 15.955 112.379 16.815C112.379 17.675 112.184 18.435 111.794 19.095C111.414 19.745 110.889 20.245 110.219 20.595C109.559 20.945 108.819 21.12 107.999 21.12ZM107.999 18.9C108.489 18.9 108.904 18.72 109.244 18.36C109.594 18 109.769 17.485 109.769 16.815C109.769 16.145 109.599 15.63 109.259 15.27C108.929 14.91 108.519 14.73 108.029 14.73C107.529 14.73 107.114 14.91 106.784 15.27C106.454 15.62 106.289 16.135 106.289 16.815C106.289 17.485 106.449 18 106.769 18.36C107.099 18.72 107.509 18.9 107.999 18.9ZM119.034 21L116.484 17.49V21H113.919V9.9H116.484V16.035L119.019 12.63H122.184L118.704 16.83L122.214 21H119.034Z" fill="white"/>
<path d="M132 0H5C2.23858 0 0 2.23858 0 5V27C0 29.7614 2.23858 32 5 32H132C134.761 32 137 29.7614 137 27V5C137 2.23858 134.761 0 132 0Z" fill="url(#paint0_linear_19_96)"/>
<path d="M30 15.5423C30 9.16766 23.732 4 16 4C8.26802 4 2 9.16766 2 15.5423C2 20.9554 6.52004 25.4973 12.6179 26.7446V19.0694H9.73102V15.5423H12.6179V14.0224C12.6179 10.0938 14.7744 8.2729 19.4526 8.2729C20.3396 8.2729 21.87 8.41626 22.4961 8.55966V11.757C22.1656 11.7284 21.5917 11.714 20.8787 11.714C18.5831 11.714 17.6961 12.4309 17.6961 14.2949V15.5423H22.269L21.4834 19.0694H17.6961V27C24.6281 26.3097 30 21.4435 30 15.5423Z" fill="#0866FF"/>
<defs>
<linearGradient id="paint0_linear_19_96" x1="0" y1="0" x2="0" y2="32" gradientUnits="userSpaceOnUse">
<stop stop-color="#BBBBBB" stop-opacity="0.1"/>
<stop offset="1" stop-opacity="0.1"/>
</linearGradient>
</defs>
</svg>
