<svg width="164" height="56" viewBox="0 0 164 56" fill="none" xmlns="http://www.w3.org/2000/svg">
<rect width="164" height="56" rx="8" fill="url(#paint0_linear_2003_8)"/>
<rect x="1.05" y="1.05" width="161.9" height="53.9" rx="6.95" stroke="#222222" stroke-opacity="0.15" stroke-width="2.1"/>
<g filter="url(#filter0_d_2003_8)">
<path d="M18.6667 41.3333C18.6667 39.5652 19.3691 37.8695 20.6193 36.6193C21.8696 35.369 23.5652 34.6667 25.3334 34.6667H32V41.3333C32 43.1014 31.2976 44.7971 30.0474 46.0474C28.7972 47.2976 27.1015 48 25.3334 48C23.5652 48 21.8696 47.2976 20.6193 46.0474C19.3691 44.7971 18.6667 43.1014 18.6667 41.3333Z" fill="#24CB71"/>
<path d="M32 8V21.3333H38.6667C40.4348 21.3333 42.1305 20.631 43.3807 19.3807C44.631 18.1305 45.3333 16.4348 45.3333 14.6667C45.3333 12.8986 44.631 11.2029 43.3807 9.95262C42.1305 8.70238 40.4348 8 38.6667 8H32Z" fill="#FF7237"/>
<path d="M38.6117 34.6667C40.3798 34.6667 42.0755 33.9643 43.3257 32.7141C44.576 31.4638 45.2783 29.7681 45.2783 28C45.2783 26.2319 44.576 24.5362 43.3257 23.286C42.0755 22.0357 40.3798 21.3333 38.6117 21.3333C36.8436 21.3333 35.1479 22.0357 33.8976 23.286C32.6474 24.5362 31.945 26.2319 31.945 28C31.945 29.7681 32.6474 31.4638 33.8976 32.7141C35.1479 33.9643 36.8436 34.6667 38.6117 34.6667Z" fill="#00B6FF"/>
<path d="M18.6667 14.6667C18.6667 16.4348 19.3691 18.1305 20.6193 19.3807C21.8696 20.631 23.5652 21.3333 25.3334 21.3333H32V8H25.3334C23.5652 8 21.8696 8.70238 20.6193 9.95262C19.3691 11.2029 18.6667 12.8986 18.6667 14.6667Z" fill="#FF3737"/>
<path d="M18.6667 28C18.6667 29.7681 19.3691 31.4638 20.6193 32.7141C21.8696 33.9643 23.5652 34.6667 25.3334 34.6667H32V21.3333H25.3334C23.5652 21.3333 21.8696 22.0357 20.6193 23.286C19.3691 24.5362 18.6667 26.2319 18.6667 28Z" fill="#874FFF"/>
</g>
<g filter="url(#filter1_d_2003_8)">
<path d="M62.2614 24.5H60.3977L64.5852 12.8636H66.6136L70.8011 24.5H68.9375L65.6477 14.9773H65.5568L62.2614 24.5ZM62.5739 19.9432H68.6193V21.4205H62.5739V19.9432ZM78.7173 15.7727L75.5526 24.5H73.7344L70.5639 15.7727H72.3878L74.598 22.4886H74.6889L76.8935 15.7727H78.7173ZM82.6037 24.6932C82.0507 24.6932 81.5507 24.5909 81.1037 24.3864C80.6567 24.178 80.3026 23.8769 80.0412 23.483C79.7836 23.089 79.6548 22.6061 79.6548 22.0341C79.6548 21.5417 79.7495 21.1364 79.9389 20.8182C80.1283 20.5 80.384 20.2481 80.706 20.0625C81.0279 19.8769 81.3878 19.7367 81.7855 19.642C82.1832 19.5473 82.5885 19.4754 83.0014 19.4261C83.5241 19.3655 83.9484 19.3163 84.2741 19.2784C84.5999 19.2367 84.8366 19.1705 84.9844 19.0795C85.1321 18.9886 85.206 18.8409 85.206 18.6364V18.5966C85.206 18.1004 85.0658 17.7159 84.7855 17.4432C84.509 17.1705 84.0961 17.0341 83.5469 17.0341C82.9749 17.0341 82.5241 17.161 82.1946 17.4148C81.8688 17.6648 81.6435 17.9432 81.5185 18.25L79.9219 17.8864C80.1113 17.3561 80.3878 16.928 80.7514 16.6023C81.1188 16.2727 81.5412 16.0341 82.0185 15.8864C82.4957 15.7348 82.9976 15.6591 83.5241 15.6591C83.8726 15.6591 84.2419 15.7008 84.6321 15.7841C85.026 15.8636 85.3935 16.0114 85.7344 16.2273C86.0791 16.4432 86.3613 16.7519 86.581 17.1534C86.8007 17.5511 86.9105 18.0682 86.9105 18.7045V24.5H85.2514V23.3068H85.1832C85.0734 23.5265 84.9086 23.7424 84.6889 23.9545C84.4692 24.1667 84.187 24.3428 83.8423 24.483C83.4976 24.6231 83.0847 24.6932 82.6037 24.6932ZM82.973 23.3295C83.4427 23.3295 83.8442 23.2367 84.1775 23.0511C84.5147 22.8655 84.7704 22.6231 84.9446 22.3239C85.1226 22.0208 85.2116 21.697 85.2116 21.3523V20.2273C85.151 20.2879 85.0336 20.3447 84.8594 20.3977C84.6889 20.447 84.4938 20.4905 84.2741 20.5284C84.0544 20.5625 83.8404 20.5947 83.6321 20.625C83.4238 20.6515 83.2495 20.6742 83.1094 20.6932C82.7798 20.7348 82.4787 20.8049 82.206 20.9034C81.937 21.0019 81.7211 21.1439 81.5582 21.3295C81.3991 21.5114 81.3196 21.7538 81.3196 22.0568C81.3196 22.4773 81.4749 22.7955 81.7855 23.0114C82.0961 23.2235 82.4919 23.3295 82.973 23.3295ZM89.1733 24.5V15.7727H90.8722V24.5H89.1733ZM90.0312 14.4261C89.7358 14.4261 89.482 14.3276 89.2699 14.1307C89.0615 13.9299 88.9574 13.6913 88.9574 13.4148C88.9574 13.1345 89.0615 12.8958 89.2699 12.6989C89.482 12.4981 89.7358 12.3977 90.0312 12.3977C90.3267 12.3977 90.5786 12.4981 90.7869 12.6989C90.999 12.8958 91.1051 13.1345 91.1051 13.4148C91.1051 13.6913 90.999 13.9299 90.7869 14.1307C90.5786 14.3276 90.3267 14.4261 90.0312 14.4261ZM94.8565 12.8636V24.5H93.1577V12.8636H94.8565ZM99.6818 24.6932C99.1288 24.6932 98.6288 24.5909 98.1818 24.3864C97.7348 24.178 97.3807 23.8769 97.1193 23.483C96.8617 23.089 96.7329 22.6061 96.7329 22.0341C96.7329 21.5417 96.8276 21.1364 97.017 20.8182C97.2064 20.5 97.4621 20.2481 97.7841 20.0625C98.106 19.8769 98.4659 19.7367 98.8636 19.642C99.2614 19.5473 99.6667 19.4754 100.08 19.4261C100.602 19.3655 101.027 19.3163 101.352 19.2784C101.678 19.2367 101.915 19.1705 102.062 19.0795C102.21 18.9886 102.284 18.8409 102.284 18.6364V18.5966C102.284 18.1004 102.144 17.7159 101.864 17.4432C101.587 17.1705 101.174 17.0341 100.625 17.0341C100.053 17.0341 99.6023 17.161 99.2727 17.4148C98.947 17.6648 98.7216 17.9432 98.5966 18.25L97 17.8864C97.1894 17.3561 97.4659 16.928 97.8295 16.6023C98.197 16.2727 98.6193 16.0341 99.0966 15.8864C99.5739 15.7348 100.076 15.6591 100.602 15.6591C100.951 15.6591 101.32 15.7008 101.71 15.7841C102.104 15.8636 102.472 16.0114 102.812 16.2273C103.157 16.4432 103.439 16.7519 103.659 17.1534C103.879 17.5511 103.989 18.0682 103.989 18.7045V24.5H102.33V23.3068H102.261C102.152 23.5265 101.987 23.7424 101.767 23.9545C101.547 24.1667 101.265 24.3428 100.92 24.483C100.576 24.6231 100.163 24.6932 99.6818 24.6932ZM100.051 23.3295C100.521 23.3295 100.922 23.2367 101.256 23.0511C101.593 22.8655 101.848 22.6231 102.023 22.3239C102.201 22.0208 102.29 21.697 102.29 21.3523V20.2273C102.229 20.2879 102.112 20.3447 101.937 20.3977C101.767 20.447 101.572 20.4905 101.352 20.5284C101.133 20.5625 100.919 20.5947 100.71 20.625C100.502 20.6515 100.328 20.6742 100.187 20.6932C99.8579 20.7348 99.5568 20.8049 99.2841 20.9034C99.0151 21.0019 98.7992 21.1439 98.6364 21.3295C98.4773 21.5114 98.3977 21.7538 98.3977 22.0568C98.3977 22.4773 98.553 22.7955 98.8636 23.0114C99.1742 23.2235 99.5701 23.3295 100.051 23.3295ZM106.388 24.5V12.8636H108.087V17.1875H108.189C108.287 17.0057 108.429 16.7955 108.615 16.5568C108.801 16.3182 109.058 16.1098 109.388 15.9318C109.717 15.75 110.153 15.6591 110.695 15.6591C111.399 15.6591 112.028 15.8371 112.581 16.1932C113.134 16.5492 113.568 17.0625 113.882 17.733C114.2 18.4034 114.359 19.2102 114.359 20.1534C114.359 21.0966 114.202 21.9053 113.888 22.5795C113.573 23.25 113.142 23.767 112.592 24.1307C112.043 24.4905 111.416 24.6705 110.712 24.6705C110.181 24.6705 109.748 24.5814 109.41 24.4034C109.077 24.2254 108.816 24.017 108.626 23.7784C108.437 23.5398 108.291 23.3276 108.189 23.142H108.047V24.5H106.388ZM108.053 20.1364C108.053 20.75 108.142 21.2879 108.32 21.75C108.498 22.2121 108.755 22.5739 109.092 22.8352C109.429 23.0928 109.842 23.2216 110.331 23.2216C110.839 23.2216 111.263 23.0871 111.604 22.8182C111.945 22.5455 112.202 22.1761 112.376 21.7102C112.554 21.2443 112.643 20.7197 112.643 20.1364C112.643 19.5606 112.556 19.0436 112.382 18.5852C112.212 18.1269 111.954 17.7651 111.609 17.5C111.268 17.2348 110.842 17.1023 110.331 17.1023C109.839 17.1023 109.422 17.2292 109.081 17.483C108.744 17.7367 108.488 18.0909 108.314 18.5455C108.14 19 108.053 19.5303 108.053 20.1364ZM117.966 12.8636V24.5H116.267V12.8636H117.966ZM124.013 24.6761C123.153 24.6761 122.412 24.4924 121.791 24.125C121.174 23.7538 120.696 23.233 120.359 22.5625C120.026 21.8883 119.859 21.0985 119.859 20.1932C119.859 19.2992 120.026 18.5114 120.359 17.8295C120.696 17.1477 121.166 16.6155 121.768 16.233C122.375 15.8504 123.083 15.6591 123.893 15.6591C124.386 15.6591 124.863 15.7405 125.325 15.9034C125.787 16.0663 126.202 16.322 126.57 16.6705C126.937 17.0189 127.227 17.4716 127.439 18.0284C127.651 18.5814 127.757 19.2538 127.757 20.0455V20.6477H120.82V19.375H126.092C126.092 18.928 126.001 18.5322 125.82 18.1875C125.638 17.839 125.382 17.5644 125.053 17.3636C124.727 17.1629 124.344 17.0625 123.905 17.0625C123.428 17.0625 123.011 17.1799 122.655 17.4148C122.303 17.6458 122.03 17.9489 121.837 18.3239C121.647 18.6951 121.553 19.0985 121.553 19.5341V20.5284C121.553 21.1117 121.655 21.608 121.859 22.017C122.068 22.4261 122.357 22.7386 122.729 22.9545C123.1 23.1667 123.534 23.2727 124.03 23.2727C124.352 23.2727 124.645 23.2273 124.91 23.1364C125.176 23.0417 125.405 22.9015 125.598 22.7159C125.791 22.5303 125.939 22.3011 126.041 22.0284L127.649 22.3182C127.52 22.7917 127.289 23.2064 126.956 23.5625C126.626 23.9148 126.212 24.1894 125.712 24.3864C125.215 24.5795 124.649 24.6761 124.013 24.6761ZM137.553 24.6761C136.734 24.6761 136.02 24.4886 135.41 24.1136C134.801 23.7386 134.327 23.214 133.99 22.5398C133.653 21.8655 133.484 21.0776 133.484 20.1761C133.484 19.2708 133.653 18.4792 133.99 17.8011C134.327 17.1231 134.801 16.5966 135.41 16.2216C136.02 15.8466 136.734 15.6591 137.553 15.6591C138.371 15.6591 139.085 15.8466 139.695 16.2216C140.304 16.5966 140.778 17.1231 141.115 17.8011C141.452 18.4792 141.621 19.2708 141.621 20.1761C141.621 21.0776 141.452 21.8655 141.115 22.5398C140.778 23.214 140.304 23.7386 139.695 24.1136C139.085 24.4886 138.371 24.6761 137.553 24.6761ZM137.558 23.25C138.089 23.25 138.528 23.1098 138.876 22.8295C139.225 22.5492 139.482 22.1761 139.649 21.7102C139.82 21.2443 139.905 20.7311 139.905 20.1705C139.905 19.6136 139.82 19.1023 139.649 18.6364C139.482 18.1667 139.225 17.7898 138.876 17.5057C138.528 17.2216 138.089 17.0795 137.558 17.0795C137.024 17.0795 136.581 17.2216 136.229 17.5057C135.88 17.7898 135.621 18.1667 135.45 18.6364C135.284 19.1023 135.2 19.6136 135.2 20.1705C135.2 20.7311 135.284 21.2443 135.45 21.7102C135.621 22.1761 135.88 22.5492 136.229 22.8295C136.581 23.1098 137.024 23.25 137.558 23.25ZM145.216 19.3182V24.5H143.517V15.7727H145.148V17.1932H145.256C145.456 16.7311 145.771 16.3598 146.199 16.0795C146.631 15.7992 147.174 15.6591 147.83 15.6591C148.424 15.6591 148.945 15.7841 149.392 16.0341C149.839 16.2803 150.186 16.6477 150.432 17.1364C150.678 17.625 150.801 18.2292 150.801 18.9489V24.5H149.102V19.1534C149.102 18.5208 148.937 18.0265 148.608 17.6705C148.278 17.3106 147.826 17.1307 147.25 17.1307C146.856 17.1307 146.506 17.2159 146.199 17.3864C145.896 17.5568 145.655 17.8068 145.477 18.1364C145.303 18.4621 145.216 18.8561 145.216 19.3182Z" fill="#E8E8E8"/>
<path d="M60.9357 43.5V31.1364H69.3754V33.5632H63.924V36.0987H68.8381V38.5316H63.924V43.5H60.9357ZM70.8801 43.5V34.2273H73.8321V43.5H70.8801ZM72.3591 33.1467C71.9446 33.1467 71.5884 33.0098 71.2906 32.7361C70.9927 32.4584 70.8438 32.1244 70.8438 31.734C70.8438 31.3477 70.9927 31.0176 71.2906 30.744C71.5884 30.4663 71.9446 30.3274 72.3591 30.3274C72.7777 30.3274 73.1338 30.4663 73.4276 30.744C73.7255 31.0176 73.8744 31.3477 73.8744 31.734C73.8744 32.1244 73.7255 32.4584 73.4276 32.7361C73.1338 33.0098 72.7777 33.1467 72.3591 33.1467ZM80.0336 47.1704C79.1522 47.1704 78.3975 47.0477 77.7697 46.8022C77.1419 46.5567 76.6488 46.2206 76.2907 45.794C75.9325 45.3674 75.7171 44.8845 75.6447 44.3452L78.4398 44.1882C78.4921 44.3774 78.5887 44.5424 78.7296 44.6832C78.8745 44.8241 79.0616 44.9328 79.291 45.0092C79.5244 45.0857 79.7981 45.1239 80.112 45.1239C80.6071 45.1239 81.0156 45.0032 81.3375 44.7617C81.6635 44.5243 81.8265 44.1077 81.8265 43.5121V41.8821H81.7239C81.6072 42.1678 81.4301 42.4234 81.1926 42.6488C80.9552 42.8742 80.6594 43.0513 80.3052 43.18C79.9551 43.3088 79.5526 43.3732 79.0978 43.3732C78.4217 43.3732 77.8019 43.2163 77.2385 42.9023C76.679 42.5844 76.2303 42.0934 75.8922 41.4293C75.5582 40.7612 75.3912 39.902 75.3912 38.8516C75.3912 37.7689 75.5642 36.8775 75.9103 36.1772C76.2564 35.4729 76.7092 34.9517 77.2686 34.6136C77.8321 34.2756 78.4378 34.1065 79.0858 34.1065C79.5727 34.1065 79.9893 34.191 80.3354 34.3601C80.6855 34.5251 80.9733 34.7384 81.1987 35C81.4241 35.2616 81.5951 35.5333 81.7118 35.815H81.7963V34.2273H84.7363V43.5362C84.7363 44.321 84.5391 44.9831 84.1447 45.5224C83.7503 46.0617 83.1989 46.4702 82.4906 46.7479C81.7823 47.0296 80.9632 47.1704 80.0336 47.1704ZM80.1241 41.2241C80.4823 41.2241 80.7882 41.1295 81.0417 40.9403C81.2953 40.7512 81.4905 40.4795 81.6273 40.1254C81.7641 39.7712 81.8326 39.3466 81.8326 38.8516C81.8326 38.3485 81.7641 37.9158 81.6273 37.5536C81.4945 37.1874 81.2993 36.9057 81.0417 36.7084C80.7882 36.5112 80.4823 36.4126 80.1241 36.4126C79.7579 36.4126 79.448 36.5133 79.1944 36.7145C78.9409 36.9157 78.7477 37.1995 78.6149 37.5657C78.4861 37.9279 78.4217 38.3565 78.4217 38.8516C78.4217 39.3466 78.4881 39.7712 78.6209 40.1254C78.7537 40.4795 78.9449 40.7512 79.1944 40.9403C79.448 41.1295 79.7579 41.2241 80.1241 41.2241ZM86.6183 43.5V34.2273H89.4255V35.9297H89.5281C89.7213 35.3662 90.0473 34.9215 90.5061 34.5955C90.9649 34.2695 91.5123 34.1065 92.1482 34.1065C92.7921 34.1065 93.3435 34.2715 93.8023 34.6016C94.2611 34.9316 94.5529 35.3743 94.6776 35.9297H94.7742C94.9473 35.3783 95.2854 34.9376 95.7884 34.6076C96.2915 34.2736 96.8851 34.1065 97.5693 34.1065C98.4467 34.1065 99.1591 34.3883 99.7064 34.9517C100.254 35.5111 100.527 36.2798 100.527 37.2578V43.5H97.5754V37.9339C97.5754 37.4711 97.4566 37.119 97.2192 36.8775C96.9817 36.632 96.6738 36.5092 96.2955 36.5092C95.889 36.5092 95.5691 36.642 95.3357 36.9077C95.1063 37.1693 94.9916 37.5214 94.9916 37.9641V43.5H92.1542V37.9038C92.1542 37.4731 92.0375 37.133 91.8041 36.8835C91.5706 36.634 91.2627 36.5092 90.8804 36.5092C90.6228 36.5092 90.3954 36.5716 90.1982 36.6964C90.001 36.8171 89.8461 36.9902 89.7334 37.2156C89.6247 37.4409 89.5704 37.7066 89.5704 38.0124V43.5H86.6183ZM104.971 43.657C104.379 43.657 103.854 43.5584 103.395 43.3611C102.94 43.1599 102.58 42.8581 102.314 42.4556C102.053 42.0491 101.922 41.54 101.922 40.9283C101.922 40.4131 102.013 39.9785 102.194 39.6243C102.375 39.2701 102.624 38.9824 102.942 38.761C103.26 38.5397 103.626 38.3726 104.041 38.2599C104.455 38.1432 104.898 38.0647 105.369 38.0245C105.896 37.9762 106.321 37.9259 106.643 37.8736C106.965 37.8172 107.198 37.7388 107.343 37.6381C107.492 37.5335 107.566 37.3866 107.566 37.1974V37.1673C107.566 36.8574 107.46 36.6179 107.247 36.4489C107.033 36.2798 106.745 36.1953 106.383 36.1953C105.993 36.1953 105.679 36.2798 105.441 36.4489C105.204 36.6179 105.053 36.8513 104.989 37.1491L102.266 37.0526C102.347 36.4891 102.554 35.986 102.888 35.5433C103.226 35.0966 103.689 34.7464 104.276 34.4929C104.868 34.2353 105.578 34.1065 106.407 34.1065C106.999 34.1065 107.544 34.177 108.043 34.3178C108.542 34.4547 108.977 34.6559 109.347 34.9215C109.718 35.1831 110.003 35.5051 110.205 35.8874C110.41 36.2698 110.513 36.7064 110.513 37.1974V43.5H107.736V42.2081H107.663C107.498 42.522 107.287 42.7876 107.029 43.005C106.776 43.2223 106.476 43.3853 106.13 43.494C105.788 43.6026 105.401 43.657 104.971 43.657ZM105.882 41.7251C106.2 41.7251 106.486 41.6607 106.739 41.532C106.997 41.4032 107.202 41.2261 107.355 41.0007C107.508 40.7713 107.585 40.5057 107.585 40.2038V39.3224C107.5 39.3667 107.397 39.407 107.277 39.4432C107.16 39.4794 107.031 39.5136 106.89 39.5458C106.749 39.578 106.605 39.6062 106.456 39.6303C106.307 39.6545 106.164 39.6766 106.027 39.6967C105.749 39.741 105.512 39.8094 105.315 39.902C105.122 39.9946 104.973 40.1153 104.868 40.2642C104.767 40.4091 104.717 40.5821 104.717 40.7834C104.717 41.0892 104.826 41.3227 105.043 41.4837C105.264 41.6446 105.544 41.7251 105.882 41.7251Z" fill="white"/>
</g>
<defs>
<filter id="filter0_d_2003_8" x="6.28571" y="2.28571" width="51.4286" height="51.4286" filterUnits="userSpaceOnUse" color-interpolation-filters="sRGB">
<feFlood flood-opacity="0" result="BackgroundImageFix"/>
<feColorMatrix in="SourceAlpha" type="matrix" values="0 0 0 0 0 0 0 0 0 0 0 0 0 0 0 0 0 0 127 0" result="hardAlpha"/>
<feOffset/>
<feGaussianBlur stdDeviation="2.85714"/>
<feComposite in2="hardAlpha" operator="out"/>
<feColorMatrix type="matrix" values="0 0 0 0 0 0 0 0 0 0 0 0 0 0 0 0 0 0 0.25 0"/>
<feBlend mode="normal" in2="BackgroundImageFix" result="effect1_dropShadow_2003_8"/>
<feBlend mode="normal" in="SourceGraphic" in2="effect1_dropShadow_2003_8" result="shape"/>
</filter>
<filter id="filter1_d_2003_8" x="54.4" y="3.9" width="103.2" height="48.8704" filterUnits="userSpaceOnUse" color-interpolation-filters="sRGB">
<feFlood flood-opacity="0" result="BackgroundImageFix"/>
<feColorMatrix in="SourceAlpha" type="matrix" values="0 0 0 0 0 0 0 0 0 0 0 0 0 0 0 0 0 0 127 0" result="hardAlpha"/>
<feOffset/>
<feGaussianBlur stdDeviation="2.8"/>
<feComposite in2="hardAlpha" operator="out"/>
<feColorMatrix type="matrix" values="0 0 0 0 0 0 0 0 0 0 0 0 0 0 0 0 0 0 0.25 0"/>
<feBlend mode="normal" in2="BackgroundImageFix" result="effect1_dropShadow_2003_8"/>
<feBlend mode="normal" in="SourceGraphic" in2="effect1_dropShadow_2003_8" result="shape"/>
</filter>
<linearGradient id="paint0_linear_2003_8" x1="105.917" y1="10.0333" x2="85.8875" y2="77.0155" gradientUnits="userSpaceOnUse">
<stop stop-color="#FF3737"/>
<stop offset="0.455" stop-color="#FF7237"/>
<stop offset="1" stop-color="#874FFF"/>
</linearGradient>
</defs>
</svg>
