<svg width="100" height="32" viewBox="0 0 100 32" fill="none" xmlns="http://www.w3.org/2000/svg">
<path d="M95 0H31V32H95C97.7614 32 100 29.7614 100 27V5C100 2.23858 97.7614 0 95 0Z" fill="#0F1418"/>
<path d="M9.49994 27C12.536 27 14.9999 25.3574 14.9999 23.3334V19.6666H9.49994C6.46394 19.6666 3.99994 21.3094 3.99994 23.3334C3.99994 25.3574 6.46394 27 9.49994 27Z" fill="#0ACF83"/>
<path d="M3.99994 16C3.99994 13.976 6.46394 12.3334 9.49994 12.3334H14.9999V19.6667H9.49994C6.46394 19.6667 3.99994 18.024 3.99994 16Z" fill="#A259FF"/>
<path d="M4 8.66666C4 6.64266 6.464 5 9.5 5H15V12.3333H9.5C6.464 12.3333 4 10.6907 4 8.66666Z" fill="#F24E1E"/>
<path d="M14.9999 5H20.4999C23.5358 5 25.9999 6.64266 25.9999 8.66666C25.9999 10.6907 23.5358 12.3333 20.4999 12.3333H14.9999V5Z" fill="#FF7262"/>
<path d="M25.9999 16C25.9999 18.024 23.5358 19.6667 20.4999 19.6667C17.4639 19.6667 14.9999 18.024 14.9999 16C14.9999 13.976 17.4639 12.3334 20.4999 12.3334C23.5358 12.3334 25.9999 13.976 25.9999 16Z" fill="#1ABCFE"/>
<path d="M48.4914 10.47V12.525H44.2014V14.745H47.4114V16.74H44.2014V21H41.6364V10.47H48.4914ZM51.3095 11.76C50.8595 11.76 50.4895 11.63 50.1995 11.37C49.9195 11.1 49.7795 10.77 49.7795 10.38C49.7795 9.98 49.9195 9.65 50.1995 9.39C50.4895 9.12 50.8595 8.985 51.3095 8.985C51.7495 8.985 52.1095 9.12 52.3895 9.39C52.6795 9.65 52.8245 9.98 52.8245 10.38C52.8245 10.77 52.6795 11.1 52.3895 11.37C52.1095 11.63 51.7495 11.76 51.3095 11.76ZM52.5845 12.63V21H50.0195V12.63H52.5845ZM57.8034 12.51C58.3934 12.51 58.9084 12.63 59.3484 12.87C59.7984 13.11 60.1434 13.425 60.3834 13.815V12.63H62.9484V20.985C62.9484 21.755 62.7934 22.45 62.4834 23.07C62.1834 23.7 61.7184 24.2 61.0884 24.57C60.4684 24.94 59.6934 25.125 58.7634 25.125C57.5234 25.125 56.5184 24.83 55.7484 24.24C54.9784 23.66 54.5384 22.87 54.4284 21.87H56.9634C57.0434 22.19 57.2334 22.44 57.5334 22.62C57.8334 22.81 58.2034 22.905 58.6434 22.905C59.1734 22.905 59.5934 22.75 59.9034 22.44C60.2234 22.14 60.3834 21.655 60.3834 20.985V19.8C60.1334 20.19 59.7884 20.51 59.3484 20.76C58.9084 21 58.3934 21.12 57.8034 21.12C57.1134 21.12 56.4884 20.945 55.9284 20.595C55.3684 20.235 54.9234 19.73 54.5934 19.08C54.2734 18.42 54.1134 17.66 54.1134 16.8C54.1134 15.94 54.2734 15.185 54.5934 14.535C54.9234 13.885 55.3684 13.385 55.9284 13.035C56.4884 12.685 57.1134 12.51 57.8034 12.51ZM60.3834 16.815C60.3834 16.175 60.2034 15.67 59.8434 15.3C59.4934 14.93 59.0634 14.745 58.5534 14.745C58.0434 14.745 57.6084 14.93 57.2484 15.3C56.8984 15.66 56.7234 16.16 56.7234 16.8C56.7234 17.44 56.8984 17.95 57.2484 18.33C57.6084 18.7 58.0434 18.885 58.5534 18.885C59.0634 18.885 59.4934 18.7 59.8434 18.33C60.2034 17.96 60.3834 17.455 60.3834 16.815ZM75.664 12.54C76.704 12.54 77.529 12.855 78.139 13.485C78.759 14.115 79.069 14.99 79.069 16.11V21H76.519V16.455C76.519 15.915 76.374 15.5 76.084 15.21C75.804 14.91 75.414 14.76 74.914 14.76C74.414 14.76 74.019 14.91 73.729 15.21C73.449 15.5 73.309 15.915 73.309 16.455V21H70.759V16.455C70.759 15.915 70.614 15.5 70.324 15.21C70.044 14.91 69.654 14.76 69.154 14.76C68.654 14.76 68.259 14.91 67.969 15.21C67.689 15.5 67.549 15.915 67.549 16.455V21H64.984V12.63H67.549V13.68C67.809 13.33 68.149 13.055 68.569 12.855C68.989 12.645 69.464 12.54 69.994 12.54C70.624 12.54 71.184 12.675 71.674 12.945C72.174 13.215 72.564 13.6 72.844 14.1C73.134 13.64 73.529 13.265 74.029 12.975C74.529 12.685 75.074 12.54 75.664 12.54ZM80.5329 16.8C80.5329 15.94 80.6929 15.185 81.0129 14.535C81.3429 13.885 81.7879 13.385 82.3479 13.035C82.9079 12.685 83.5329 12.51 84.2229 12.51C84.8129 12.51 85.3279 12.63 85.7679 12.87C86.2179 13.11 86.5629 13.425 86.8029 13.815V12.63H89.3679V21H86.8029V19.815C86.5529 20.205 86.2029 20.52 85.7529 20.76C85.3129 21 84.7979 21.12 84.2079 21.12C83.5279 21.12 82.9079 20.945 82.3479 20.595C81.7879 20.235 81.3429 19.73 81.0129 19.08C80.6929 18.42 80.5329 17.66 80.5329 16.8ZM86.8029 16.815C86.8029 16.175 86.6229 15.67 86.2629 15.3C85.9129 14.93 85.4829 14.745 84.9729 14.745C84.4629 14.745 84.0279 14.93 83.6679 15.3C83.3179 15.66 83.1429 16.16 83.1429 16.8C83.1429 17.44 83.3179 17.95 83.6679 18.33C84.0279 18.7 84.4629 18.885 84.9729 18.885C85.4829 18.885 85.9129 18.7 86.2629 18.33C86.6229 17.96 86.8029 17.455 86.8029 16.815Z" fill="white"/>
<path d="M95 0H5C2.23858 0 0 2.23858 0 5V27C0 29.7614 2.23858 32 5 32H95C97.7614 32 100 29.7614 100 27V5C100 2.23858 97.7614 0 95 0Z" fill="url(#paint0_linear_19_147)"/>
<defs>
<linearGradient id="paint0_linear_19_147" x1="0" y1="0" x2="0" y2="32" gradientUnits="userSpaceOnUse">
<stop stop-color="#BBBBBB" stop-opacity="0.1"/>
<stop offset="1" stop-opacity="0.1"/>
</linearGradient>
</defs>
</svg>
