<svg width="174" height="53" viewBox="0 0 174 53" fill="none" xmlns="http://www.w3.org/2000/svg">
<rect width="174" height="53" rx="8" fill="url(#paint0_linear_9_15)"/>
<rect x="1.05" y="1.05" width="171.9" height="50.9" rx="6.95" stroke="#222222" stroke-opacity="0.15" stroke-width="2.1"/>
<g clip-path="url(#clip0_9_15)">
<path d="M32.5 45C43.8218 45 53 36.7173 53 26.5C53 16.2827 43.8218 8 32.5 8C21.1782 8 12 16.2827 12 26.5C12 36.7173 21.1782 45 32.5 45Z" fill="black"/>
<path d="M30.7917 19.1771C31.0441 19.4048 31.2443 19.6752 31.3809 19.9728C31.5174 20.2704 31.5878 20.5894 31.5878 20.9115C31.5878 21.2336 31.5174 21.5525 31.3809 21.8501C31.2443 22.1477 31.0441 22.4181 30.7917 22.6458L46.1667 36.5208C46.5348 36.853 46.7416 37.3036 46.7416 37.7734C46.7416 38.2433 46.5348 38.6938 46.1667 39.026C45.7986 39.3583 45.2993 39.5449 44.7787 39.5449C44.2581 39.5449 43.7588 39.3583 43.3906 39.026L28.0156 25.151C27.7633 25.3788 27.4636 25.5595 27.1339 25.6827C26.8041 25.806 26.4507 25.8694 26.0938 25.8694C25.7368 25.8694 25.3834 25.806 25.0537 25.6827C24.7239 25.5595 24.4243 25.3788 24.1719 25.151L16.0573 17.8281C15.9157 17.7004 15.8362 17.5271 15.8362 17.3464C15.8362 17.1657 15.9157 16.9924 16.0573 16.8646L21.6094 11.8542C21.751 11.7264 21.943 11.6546 22.1432 11.6546C22.3435 11.6546 22.5355 11.7264 22.6771 11.8542L30.7917 19.1771Z" fill="black" stroke="black" stroke-width="4"/>
<path d="M30.7917 19.1771C31.0441 19.4048 31.2443 19.6752 31.3808 19.9728C31.5174 20.2704 31.5877 20.5894 31.5877 20.9115C31.5877 21.2336 31.5174 21.5525 31.3808 21.8501C31.2443 22.1477 31.0441 22.4181 30.7917 22.6458L46.1667 36.5208C46.5348 36.853 46.7416 37.3036 46.7416 37.7734C46.7416 38.2433 46.5348 38.6938 46.1667 39.026C45.7985 39.3582 45.2993 39.5449 44.7787 39.5449C44.258 39.5449 43.7588 39.3582 43.3906 39.026L28.0156 25.151C27.7632 25.3788 27.4636 25.5595 27.1339 25.6827C26.8041 25.806 26.4507 25.8694 26.0938 25.8694C25.7368 25.8694 25.3834 25.806 25.0536 25.6827C24.7239 25.5595 24.4243 25.3788 24.1719 25.151L16.0573 17.8281C15.9161 17.7003 15.837 17.5271 15.8372 17.3466C15.8373 17.1661 15.9169 16.9931 16.0583 16.8655C16.1997 16.7379 16.3915 16.6661 16.5914 16.6659C16.7914 16.6658 16.9833 16.7372 17.125 16.8646L23.1042 22.2604L24.8125 20.7187L18.8333 15.3229C18.6922 15.1951 18.613 15.0219 18.6132 14.8414C18.6134 14.6609 18.6929 14.4879 18.8343 14.3603C18.9757 14.2326 19.1675 14.1609 19.3675 14.1607C19.5675 14.1605 19.7594 14.232 19.901 14.3594L25.8802 19.7552L27.5885 18.2135L21.6094 12.8177C21.4682 12.6899 21.3891 12.5167 21.3892 12.3362C21.3894 12.1557 21.469 11.9827 21.6104 11.8551C21.7518 11.7274 21.9435 11.6557 22.1435 11.6555C22.3435 11.6553 22.5354 11.7268 22.6771 11.8542L30.7917 19.1771Z" fill="white"/>
</g>
<g filter="url(#filter0_d_9_15)">
<path d="M63.2614 23H61.3977L65.5852 11.3636H67.6136L71.8011 23H69.9375L66.6477 13.4773H66.5568L63.2614 23ZM63.5739 18.4432H69.6193V19.9205H63.5739V18.4432ZM79.7173 14.2727L76.5526 23H74.7344L71.5639 14.2727H73.3878L75.598 20.9886H75.6889L77.8935 14.2727H79.7173ZM83.6037 23.1932C83.0507 23.1932 82.5507 23.0909 82.1037 22.8864C81.6567 22.678 81.3026 22.3769 81.0412 21.983C80.7836 21.589 80.6548 21.1061 80.6548 20.5341C80.6548 20.0417 80.7495 19.6364 80.9389 19.3182C81.1283 19 81.384 18.7481 81.706 18.5625C82.0279 18.3769 82.3878 18.2367 82.7855 18.142C83.1832 18.0473 83.5885 17.9754 84.0014 17.9261C84.5241 17.8655 84.9484 17.8163 85.2741 17.7784C85.5999 17.7367 85.8366 17.6705 85.9844 17.5795C86.1321 17.4886 86.206 17.3409 86.206 17.1364V17.0966C86.206 16.6004 86.0658 16.2159 85.7855 15.9432C85.509 15.6705 85.0961 15.5341 84.5469 15.5341C83.9749 15.5341 83.5241 15.661 83.1946 15.9148C82.8688 16.1648 82.6435 16.4432 82.5185 16.75L80.9219 16.3864C81.1113 15.8561 81.3878 15.428 81.7514 15.1023C82.1188 14.7727 82.5412 14.5341 83.0185 14.3864C83.4957 14.2348 83.9976 14.1591 84.5241 14.1591C84.8726 14.1591 85.2419 14.2008 85.6321 14.2841C86.026 14.3636 86.3935 14.5114 86.7344 14.7273C87.0791 14.9432 87.3613 15.2519 87.581 15.6534C87.8007 16.0511 87.9105 16.5682 87.9105 17.2045V23H86.2514V21.8068H86.1832C86.0734 22.0265 85.9086 22.2424 85.6889 22.4545C85.4692 22.6667 85.187 22.8428 84.8423 22.983C84.4976 23.1231 84.0847 23.1932 83.6037 23.1932ZM83.973 21.8295C84.4427 21.8295 84.8442 21.7367 85.1775 21.5511C85.5147 21.3655 85.7704 21.1231 85.9446 20.8239C86.1226 20.5208 86.2116 20.197 86.2116 19.8523V18.7273C86.151 18.7879 86.0336 18.8447 85.8594 18.8977C85.6889 18.947 85.4938 18.9905 85.2741 19.0284C85.0544 19.0625 84.8404 19.0947 84.6321 19.125C84.4238 19.1515 84.2495 19.1742 84.1094 19.1932C83.7798 19.2348 83.4787 19.3049 83.206 19.4034C82.937 19.5019 82.7211 19.6439 82.5582 19.8295C82.3991 20.0114 82.3196 20.2538 82.3196 20.5568C82.3196 20.9773 82.4749 21.2955 82.7855 21.5114C83.0961 21.7235 83.4919 21.8295 83.973 21.8295ZM90.1733 23V14.2727H91.8722V23H90.1733ZM91.0312 12.9261C90.7358 12.9261 90.482 12.8276 90.2699 12.6307C90.0615 12.4299 89.9574 12.1913 89.9574 11.9148C89.9574 11.6345 90.0615 11.3958 90.2699 11.1989C90.482 10.9981 90.7358 10.8977 91.0312 10.8977C91.3267 10.8977 91.5786 10.9981 91.7869 11.1989C91.999 11.3958 92.1051 11.6345 92.1051 11.9148C92.1051 12.1913 91.999 12.4299 91.7869 12.6307C91.5786 12.8276 91.3267 12.9261 91.0312 12.9261ZM95.8565 11.3636V23H94.1577V11.3636H95.8565ZM100.682 23.1932C100.129 23.1932 99.6288 23.0909 99.1818 22.8864C98.7348 22.678 98.3807 22.3769 98.1193 21.983C97.8617 21.589 97.7329 21.1061 97.7329 20.5341C97.7329 20.0417 97.8276 19.6364 98.017 19.3182C98.2064 19 98.4621 18.7481 98.7841 18.5625C99.106 18.3769 99.4659 18.2367 99.8636 18.142C100.261 18.0473 100.667 17.9754 101.08 17.9261C101.602 17.8655 102.027 17.8163 102.352 17.7784C102.678 17.7367 102.915 17.6705 103.062 17.5795C103.21 17.4886 103.284 17.3409 103.284 17.1364V17.0966C103.284 16.6004 103.144 16.2159 102.864 15.9432C102.587 15.6705 102.174 15.5341 101.625 15.5341C101.053 15.5341 100.602 15.661 100.273 15.9148C99.947 16.1648 99.7216 16.4432 99.5966 16.75L98 16.3864C98.1894 15.8561 98.4659 15.428 98.8295 15.1023C99.197 14.7727 99.6193 14.5341 100.097 14.3864C100.574 14.2348 101.076 14.1591 101.602 14.1591C101.951 14.1591 102.32 14.2008 102.71 14.2841C103.104 14.3636 103.472 14.5114 103.812 14.7273C104.157 14.9432 104.439 15.2519 104.659 15.6534C104.879 16.0511 104.989 16.5682 104.989 17.2045V23H103.33V21.8068H103.261C103.152 22.0265 102.987 22.2424 102.767 22.4545C102.547 22.6667 102.265 22.8428 101.92 22.983C101.576 23.1231 101.163 23.1932 100.682 23.1932ZM101.051 21.8295C101.521 21.8295 101.922 21.7367 102.256 21.5511C102.593 21.3655 102.848 21.1231 103.023 20.8239C103.201 20.5208 103.29 20.197 103.29 19.8523V18.7273C103.229 18.7879 103.112 18.8447 102.937 18.8977C102.767 18.947 102.572 18.9905 102.352 19.0284C102.133 19.0625 101.919 19.0947 101.71 19.125C101.502 19.1515 101.328 19.1742 101.187 19.1932C100.858 19.2348 100.557 19.3049 100.284 19.4034C100.015 19.5019 99.7992 19.6439 99.6364 19.8295C99.4773 20.0114 99.3977 20.2538 99.3977 20.5568C99.3977 20.9773 99.553 21.2955 99.8636 21.5114C100.174 21.7235 100.57 21.8295 101.051 21.8295ZM107.388 23V11.3636H109.087V15.6875H109.189C109.287 15.5057 109.429 15.2955 109.615 15.0568C109.801 14.8182 110.058 14.6098 110.388 14.4318C110.717 14.25 111.153 14.1591 111.695 14.1591C112.399 14.1591 113.028 14.3371 113.581 14.6932C114.134 15.0492 114.568 15.5625 114.882 16.233C115.2 16.9034 115.359 17.7102 115.359 18.6534C115.359 19.5966 115.202 20.4053 114.888 21.0795C114.573 21.75 114.142 22.267 113.592 22.6307C113.043 22.9905 112.416 23.1705 111.712 23.1705C111.181 23.1705 110.748 23.0814 110.41 22.9034C110.077 22.7254 109.816 22.517 109.626 22.2784C109.437 22.0398 109.291 21.8276 109.189 21.642H109.047V23H107.388ZM109.053 18.6364C109.053 19.25 109.142 19.7879 109.32 20.25C109.498 20.7121 109.755 21.0739 110.092 21.3352C110.429 21.5928 110.842 21.7216 111.331 21.7216C111.839 21.7216 112.263 21.5871 112.604 21.3182C112.945 21.0455 113.202 20.6761 113.376 20.2102C113.554 19.7443 113.643 19.2197 113.643 18.6364C113.643 18.0606 113.556 17.5436 113.382 17.0852C113.212 16.6269 112.954 16.2651 112.609 16C112.268 15.7348 111.842 15.6023 111.331 15.6023C110.839 15.6023 110.422 15.7292 110.081 15.983C109.744 16.2367 109.488 16.5909 109.314 17.0455C109.14 17.5 109.053 18.0303 109.053 18.6364ZM118.966 11.3636V23H117.267V11.3636H118.966ZM125.013 23.1761C124.153 23.1761 123.412 22.9924 122.791 22.625C122.174 22.2538 121.696 21.733 121.359 21.0625C121.026 20.3883 120.859 19.5985 120.859 18.6932C120.859 17.7992 121.026 17.0114 121.359 16.3295C121.696 15.6477 122.166 15.1155 122.768 14.733C123.375 14.3504 124.083 14.1591 124.893 14.1591C125.386 14.1591 125.863 14.2405 126.325 14.4034C126.787 14.5663 127.202 14.822 127.57 15.1705C127.937 15.5189 128.227 15.9716 128.439 16.5284C128.651 17.0814 128.757 17.7538 128.757 18.5455V19.1477H121.82V17.875H127.092C127.092 17.428 127.001 17.0322 126.82 16.6875C126.638 16.339 126.382 16.0644 126.053 15.8636C125.727 15.6629 125.344 15.5625 124.905 15.5625C124.428 15.5625 124.011 15.6799 123.655 15.9148C123.303 16.1458 123.03 16.4489 122.837 16.8239C122.647 17.1951 122.553 17.5985 122.553 18.0341V19.0284C122.553 19.6117 122.655 20.108 122.859 20.517C123.068 20.9261 123.357 21.2386 123.729 21.4545C124.1 21.6667 124.534 21.7727 125.03 21.7727C125.352 21.7727 125.645 21.7273 125.91 21.6364C126.176 21.5417 126.405 21.4015 126.598 21.2159C126.791 21.0303 126.939 20.8011 127.041 20.5284L128.649 20.8182C128.52 21.2917 128.289 21.7064 127.956 22.0625C127.626 22.4148 127.212 22.6894 126.712 22.8864C126.215 23.0795 125.649 23.1761 125.013 23.1761ZM138.553 23.1761C137.734 23.1761 137.02 22.9886 136.41 22.6136C135.801 22.2386 135.327 21.714 134.99 21.0398C134.653 20.3655 134.484 19.5776 134.484 18.6761C134.484 17.7708 134.653 16.9792 134.99 16.3011C135.327 15.6231 135.801 15.0966 136.41 14.7216C137.02 14.3466 137.734 14.1591 138.553 14.1591C139.371 14.1591 140.085 14.3466 140.695 14.7216C141.304 15.0966 141.778 15.6231 142.115 16.3011C142.452 16.9792 142.621 17.7708 142.621 18.6761C142.621 19.5776 142.452 20.3655 142.115 21.0398C141.778 21.714 141.304 22.2386 140.695 22.6136C140.085 22.9886 139.371 23.1761 138.553 23.1761ZM138.558 21.75C139.089 21.75 139.528 21.6098 139.876 21.3295C140.225 21.0492 140.482 20.6761 140.649 20.2102C140.82 19.7443 140.905 19.2311 140.905 18.6705C140.905 18.1136 140.82 17.6023 140.649 17.1364C140.482 16.6667 140.225 16.2898 139.876 16.0057C139.528 15.7216 139.089 15.5795 138.558 15.5795C138.024 15.5795 137.581 15.7216 137.229 16.0057C136.88 16.2898 136.621 16.6667 136.45 17.1364C136.284 17.6023 136.2 18.1136 136.2 18.6705C136.2 19.2311 136.284 19.7443 136.45 20.2102C136.621 20.6761 136.88 21.0492 137.229 21.3295C137.581 21.6098 138.024 21.75 138.558 21.75ZM146.216 17.8182V23H144.517V14.2727H146.148V15.6932H146.256C146.456 15.2311 146.771 14.8598 147.199 14.5795C147.631 14.2992 148.174 14.1591 148.83 14.1591C149.424 14.1591 149.945 14.2841 150.392 14.5341C150.839 14.7803 151.186 15.1477 151.432 15.6364C151.678 16.125 151.801 16.7292 151.801 17.4489V23H150.102V17.6534C150.102 17.0208 149.937 16.5265 149.608 16.1705C149.278 15.8106 148.826 15.6307 148.25 15.6307C147.856 15.6307 147.506 15.7159 147.199 15.8864C146.896 16.0568 146.655 16.3068 146.477 16.6364C146.303 16.9621 146.216 17.3561 146.216 17.8182Z" fill="#E8E8E8"/>
<path d="M70.0494 33.6751C69.9809 33.4215 69.8803 33.1982 69.7475 33.005C69.6147 32.8078 69.4517 32.6407 69.2585 32.5039C69.0653 32.3671 68.844 32.2644 68.5945 32.196C68.3449 32.1236 68.0713 32.0874 67.7734 32.0874C67.1738 32.0874 66.6546 32.2322 66.2159 32.522C65.7812 32.8118 65.4452 33.2344 65.2077 33.7898C64.9703 34.3411 64.8516 35.0112 64.8516 35.8001C64.8516 36.5929 64.9663 37.2691 65.1957 37.8285C65.4251 38.3879 65.7571 38.8145 66.1918 39.1083C66.6264 39.4021 67.1536 39.549 67.7734 39.549C68.3208 39.549 68.7836 39.4605 69.1619 39.2834C69.5443 39.1023 69.834 38.8467 70.0312 38.5167C70.2285 38.1867 70.3271 37.7983 70.3271 37.3516L70.8825 37.418H67.8761V35.2386H73.2067V36.8746C73.2067 37.9814 72.9712 38.9292 72.5004 39.718C72.0335 40.5069 71.3896 41.1126 70.5685 41.5352C69.7515 41.9577 68.8118 42.169 67.7493 42.169C66.5701 42.169 65.5337 41.9135 64.6403 41.4023C63.7468 40.8912 63.0505 40.1628 62.5515 39.217C62.0524 38.2672 61.8029 37.1403 61.8029 35.8363C61.8029 34.8221 61.9538 33.9226 62.2557 33.1378C62.5575 32.349 62.9781 31.6809 63.5174 31.1335C64.0607 30.5862 64.6886 30.1716 65.4009 29.8899C66.1173 29.6082 66.888 29.4673 67.7131 29.4673C68.4294 29.4673 69.0955 29.57 69.7113 29.7752C70.3311 29.9805 70.8784 30.2702 71.3533 30.6445C71.8323 31.0188 72.2206 31.4635 72.5185 31.9787C72.8163 32.4938 73.0014 33.0593 73.0739 33.6751H70.0494ZM74.9679 42V32.7273H77.8355V34.4176H77.9321C78.1011 33.8059 78.3768 33.3511 78.7591 33.0533C79.1415 32.7514 79.5862 32.6005 80.0933 32.6005C80.2301 32.6005 80.371 32.6106 80.5159 32.6307C80.6608 32.6468 80.7956 32.6729 80.9204 32.7092V35.2749C80.7795 35.2266 80.5944 35.1883 80.365 35.1602C80.1396 35.132 79.9384 35.1179 79.7613 35.1179C79.4111 35.1179 79.0952 35.1964 78.8135 35.3533C78.5358 35.5063 78.3164 35.7216 78.1554 35.9993C77.9985 36.273 77.92 36.5949 77.92 36.9652V42H74.9679ZM85.9763 42.1751C85.0064 42.1751 84.1692 41.9839 83.4649 41.6016C82.7646 41.2152 82.2253 40.6658 81.847 39.9535C81.4727 39.2371 81.2856 38.3859 81.2856 37.3999C81.2856 36.442 81.4748 35.6049 81.8531 34.8885C82.2314 34.1681 82.7646 33.6087 83.4529 33.2102C84.1411 32.8078 84.952 32.6065 85.8857 32.6065C86.5458 32.6065 87.1495 32.7092 87.6968 32.9144C88.2442 33.1197 88.7171 33.4235 89.1155 33.826C89.5139 34.2285 89.8238 34.7255 90.0452 35.3171C90.2665 35.9047 90.3772 36.5788 90.3772 37.3395V38.076H82.3179V36.3615H87.6304C87.6264 36.0476 87.5519 35.7679 87.407 35.5224C87.2622 35.2769 87.0629 35.0857 86.8094 34.9489C86.5599 34.808 86.2721 34.7376 85.9461 34.7376C85.6161 34.7376 85.3203 34.812 85.0587 34.9609C84.7971 35.1058 84.5898 35.305 84.4369 35.5586C84.2839 35.8081 84.2034 36.0919 84.1954 36.4098V38.1545C84.1954 38.5328 84.2698 38.8648 84.4188 39.1506C84.5677 39.4323 84.779 39.6516 85.0526 39.8086C85.3263 39.9656 85.6523 40.044 86.0306 40.044C86.2922 40.044 86.5297 40.0078 86.743 39.9354C86.9563 39.8629 87.1394 39.7563 87.2923 39.6154C87.4453 39.4745 87.56 39.3015 87.6364 39.0962L90.347 39.1747C90.2343 39.7824 89.9868 40.3117 89.6045 40.7624C89.2262 41.2092 88.7291 41.5573 88.1134 41.8068C87.4976 42.0523 86.7852 42.1751 85.9763 42.1751ZM94.4989 42.157C93.9073 42.157 93.3821 42.0584 92.9233 41.8611C92.4685 41.6599 92.1083 41.3581 91.8427 40.9556C91.5811 40.5491 91.4503 40.04 91.4503 39.4283C91.4503 38.9131 91.5408 38.4785 91.7219 38.1243C91.903 37.7701 92.1526 37.4824 92.4705 37.261C92.7885 37.0397 93.1547 36.8726 93.5692 36.7599C93.9838 36.6432 94.4265 36.5647 94.8974 36.5245C95.4246 36.4762 95.8492 36.4259 96.1712 36.3736C96.4931 36.3172 96.7266 36.2388 96.8714 36.1381C97.0203 36.0335 97.0948 35.8866 97.0948 35.6974V35.6673C97.0948 35.3574 96.9882 35.1179 96.7748 34.9489C96.5615 34.7798 96.2738 34.6953 95.9116 34.6953C95.5212 34.6953 95.2073 34.7798 94.9698 34.9489C94.7324 35.1179 94.5814 35.3513 94.517 35.6491L91.7944 35.5526C91.8749 34.9891 92.0821 34.486 92.4162 34.0433C92.7543 33.5966 93.2171 33.2464 93.8047 32.9929C94.3963 32.7353 95.1066 32.6065 95.9357 32.6065C96.5273 32.6065 97.0727 32.677 97.5717 32.8178C98.0708 32.9547 98.5054 33.1559 98.8757 33.4215C99.246 33.6831 99.5317 34.0051 99.7329 34.3874C99.9382 34.7698 100.041 35.2064 100.041 35.6974V42H97.2638V40.7081H97.1914C97.0264 41.022 96.8151 41.2876 96.5575 41.505C96.304 41.7223 96.0041 41.8853 95.658 41.994C95.3159 42.1026 94.9296 42.157 94.4989 42.157ZM95.4105 40.2251C95.7284 40.2251 96.0142 40.1607 96.2677 40.032C96.5253 39.9032 96.7306 39.7261 96.8835 39.5007C97.0364 39.2713 97.1129 39.0057 97.1129 38.7038V37.8224C97.0284 37.8667 96.9258 37.907 96.805 37.9432C96.6883 37.9794 96.5595 38.0136 96.4187 38.0458C96.2778 38.078 96.1329 38.1062 95.984 38.1303C95.8351 38.1545 95.6922 38.1766 95.5554 38.1967C95.2777 38.241 95.0402 38.3094 94.843 38.402C94.6498 38.4946 94.5009 38.6153 94.3963 38.7642C94.2957 38.9091 94.2454 39.0821 94.2454 39.2834C94.2454 39.5892 94.354 39.8227 94.5714 39.9837C94.7927 40.1446 95.0724 40.2251 95.4105 40.2251ZM109.941 35.5586L107.231 35.631C107.203 35.4379 107.126 35.2668 107.001 35.1179C106.877 34.965 106.714 34.8462 106.512 34.7617C106.315 34.6732 106.086 34.6289 105.824 34.6289C105.482 34.6289 105.19 34.6973 104.949 34.8342C104.711 34.971 104.595 35.1561 104.599 35.3896C104.595 35.5707 104.667 35.7276 104.816 35.8604C104.969 35.9932 105.241 36.0999 105.631 36.1804L107.418 36.5185C108.344 36.6955 109.032 36.9893 109.483 37.3999C109.937 37.8104 110.167 38.3537 110.171 39.0298C110.167 39.6657 109.978 40.2191 109.603 40.69C109.233 41.1609 108.726 41.5271 108.082 41.7887C107.438 42.0463 106.702 42.1751 105.873 42.1751C104.548 42.1751 103.504 41.9034 102.739 41.3601C101.979 40.8127 101.544 40.0803 101.435 39.1626L104.351 39.0902C104.416 39.4283 104.583 39.6858 104.852 39.8629C105.122 40.04 105.466 40.1285 105.885 40.1285C106.263 40.1285 106.571 40.0581 106.808 39.9173C107.046 39.7764 107.166 39.5892 107.17 39.3558C107.166 39.1465 107.074 38.9795 106.893 38.8548C106.712 38.726 106.428 38.6254 106.042 38.5529L104.424 38.245C103.494 38.076 102.802 37.7641 102.347 37.3093C101.892 36.8505 101.667 36.2669 101.671 35.5586C101.667 34.9388 101.832 34.4096 102.166 33.9709C102.5 33.5282 102.975 33.1901 103.591 32.9567C104.206 32.7232 104.933 32.6065 105.77 32.6065C107.026 32.6065 108.016 32.8701 108.74 33.3974C109.464 33.9206 109.865 34.641 109.941 35.5586ZM113.429 45.4773C113.075 45.4773 112.741 45.4491 112.427 45.3928C112.113 45.3404 111.844 45.27 111.618 45.1815L112.27 43.0383C112.56 43.1349 112.822 43.1913 113.055 43.2074C113.292 43.2235 113.496 43.1852 113.665 43.0927C113.838 43.0041 113.971 42.8452 114.063 42.6158L114.178 42.3381L110.882 32.7273H113.973L115.681 39.3437H115.778L117.51 32.7273H120.619L117.124 42.8874C116.955 43.3945 116.715 43.8413 116.405 44.2276C116.1 44.618 115.703 44.9239 115.216 45.1452C114.733 45.3666 114.138 45.4773 113.429 45.4773ZM125.403 42V29.6364H133.843V32.0632H128.392V34.5987H133.306V37.0316H128.392V42H125.403ZM138.996 42.1751C138.022 42.1751 137.185 41.9758 136.484 41.5774C135.788 41.1749 135.251 40.6155 134.872 39.8991C134.498 39.1787 134.311 38.3436 134.311 37.3938C134.311 36.44 134.498 35.6049 134.872 34.8885C135.251 34.1681 135.788 33.6087 136.484 33.2102C137.185 32.8078 138.022 32.6065 138.996 32.6065C139.97 32.6065 140.805 32.8078 141.501 33.2102C142.201 33.6087 142.739 34.1681 143.113 34.8885C143.491 35.6049 143.68 36.44 143.68 37.3938C143.68 38.3436 143.491 39.1787 143.113 39.8991C142.739 40.6155 142.201 41.1749 141.501 41.5774C140.805 41.9758 139.97 42.1751 138.996 42.1751ZM139.014 39.9474C139.368 39.9474 139.668 39.8388 139.913 39.6214C140.159 39.4041 140.346 39.1023 140.475 38.7159C140.607 38.3295 140.674 37.8828 140.674 37.3757C140.674 36.8606 140.607 36.4098 140.475 36.0234C140.346 35.6371 140.159 35.3352 139.913 35.1179C139.668 34.9006 139.368 34.7919 139.014 34.7919C138.647 34.7919 138.338 34.9006 138.084 35.1179C137.835 35.3352 137.643 35.6371 137.511 36.0234C137.382 36.4098 137.317 36.8606 137.317 37.3757C137.317 37.8828 137.382 38.3295 137.511 38.7159C137.643 39.1023 137.835 39.4041 138.084 39.6214C138.338 39.8388 138.647 39.9474 139.014 39.9474ZM145.193 42V32.7273H148.06V34.4176H148.157C148.326 33.8059 148.601 33.3511 148.984 33.0533C149.366 32.7514 149.811 32.6005 150.318 32.6005C150.455 32.6005 150.596 32.6106 150.74 32.6307C150.885 32.6468 151.02 32.6729 151.145 32.7092V35.2749C151.004 35.2266 150.819 35.1883 150.59 35.1602C150.364 35.132 150.163 35.1179 149.986 35.1179C149.636 35.1179 149.32 35.1964 149.038 35.3533C148.76 35.5063 148.541 35.7216 148.38 35.9993C148.223 36.273 148.145 36.5949 148.145 36.9652V42H145.193ZM155.01 39.5671L155.022 36.0476H155.433L158.041 32.7273H161.385L157.509 37.4844H156.731L155.01 39.5671ZM152.348 42V29.6364H155.3V42H152.348ZM158.107 42L155.68 38.1484L157.624 36.0536L161.518 42H158.107Z" fill="white"/>
</g>
<defs>
<filter id="filter0_d_9_15" x="55.4" y="2.4" width="112.2" height="48.6773" filterUnits="userSpaceOnUse" color-interpolation-filters="sRGB">
<feFlood flood-opacity="0" result="BackgroundImageFix"/>
<feColorMatrix in="SourceAlpha" type="matrix" values="0 0 0 0 0 0 0 0 0 0 0 0 0 0 0 0 0 0 127 0" result="hardAlpha"/>
<feOffset/>
<feGaussianBlur stdDeviation="2.8"/>
<feComposite in2="hardAlpha" operator="out"/>
<feColorMatrix type="matrix" values="0 0 0 0 0 0 0 0 0 0 0 0 0 0 0 0 0 0 0.25 0"/>
<feBlend mode="normal" in2="BackgroundImageFix" result="effect1_dropShadow_9_15"/>
<feBlend mode="normal" in="SourceGraphic" in2="effect1_dropShadow_9_15" result="shape"/>
</filter>
<linearGradient id="paint0_linear_9_15" x1="87" y1="0" x2="87" y2="53" gradientUnits="userSpaceOnUse">
<stop stop-color="#A1B3B3"/>
<stop offset="1" stop-color="#101819"/>
</linearGradient>
<clipPath id="clip0_9_15">
<rect width="41" height="37" fill="white" transform="translate(12 8)"/>
</clipPath>
</defs>
</svg>
