<svg width="168" height="56" viewBox="0 0 168 56" fill="none" xmlns="http://www.w3.org/2000/svg">
<rect width="168" height="56" rx="8" fill="url(#paint0_linear_3_2)"/>
<rect x="1.05" y="1.05" width="165.9" height="53.9" rx="6.95" stroke="#222222" stroke-opacity="0.15" stroke-width="2.1"/>
<g filter="url(#filter0_d_3_2)">
<path fill-rule="evenodd" clip-rule="evenodd" d="M23.2233 8C15.0057 8 12 11.0052 12 19.2211V36.7789C12 44.9948 15.0057 48 23.2233 48H40.7713C48.9887 48 52 44.9948 52 36.7789V19.2211C52 11.0052 48.9943 8 40.7767 8H23.2233Z" fill="url(#paint1_linear_3_2)"/>
<path fill-rule="evenodd" clip-rule="evenodd" d="M29.4478 31.1992H31.0537L30.248 29.3255L29.4478 31.1992ZM29.0524 32.1434L28.576 33.2336H27.4912L29.798 28.0003H30.7354L33.0328 33.2336H31.9192L31.4488 32.1434H29.0524ZM46.5072 33.2297H47.5556V28H46.5072V33.2297ZM42.3345 30.9831H44.267V30.0296H42.3345V28.9577H45.1399V28.0039H41.2865V33.2332H45.2408V32.2794H42.3345V30.9831ZM38.169 31.601L36.9804 28H36.113L34.9245 31.601L33.7677 28.0029H32.6367L34.4622 33.2365H35.3414L36.5319 29.7987L37.7224 33.2365H38.6094L40.43 28.0029H39.3283L38.169 31.601ZM25.8909 30.9976C25.8909 31.8489 25.4681 32.3038 24.7004 32.3038C23.9285 32.3038 23.5035 31.8357 23.5035 30.9613V28.0035H22.4409V30.9976C22.4409 32.4703 23.2594 33.3149 24.6859 33.3149C26.1265 33.3149 26.9524 32.4543 26.9524 30.9539V28.0003H25.8909V30.9976ZM19.906 28.0003H20.9679V33.2368H19.906V31.1101H17.507V33.2368H16.4445V28.0003H17.507V30.1125H19.906V28.0003Z" fill="white"/>
<path fill-rule="evenodd" clip-rule="evenodd" d="M32 21.3333C28.3236 21.3333 25.3333 18.3427 25.3333 14.6667H26.275C26.275 17.8232 28.8435 20.3913 32 20.3913C35.1565 20.3913 37.725 17.8232 37.725 14.6667H38.6666C38.6666 18.3427 35.676 21.3333 32 21.3333Z" fill="white"/>
</g>
<g filter="url(#filter1_d_3_2)">
<path d="M62.2614 24.5H60.3977L64.5852 12.8636H66.6136L70.8011 24.5H68.9375L65.6477 14.9773H65.5568L62.2614 24.5ZM62.5739 19.9432H68.6193V21.4204H62.5739V19.9432ZM78.7173 15.7727L75.5526 24.5H73.7344L70.5639 15.7727H72.3878L74.598 22.4886H74.6889L76.8935 15.7727H78.7173ZM82.6037 24.6932C82.0507 24.6932 81.5507 24.5909 81.1037 24.3864C80.6567 24.178 80.3026 23.8769 80.0412 23.4829C79.7836 23.089 79.6548 22.6061 79.6548 22.0341C79.6548 21.5417 79.7495 21.1364 79.9389 20.8182C80.1283 20.5 80.384 20.2481 80.706 20.0625C81.0279 19.8769 81.3878 19.7367 81.7855 19.642C82.1832 19.5473 82.5885 19.4754 83.0014 19.4261C83.5241 19.3655 83.9484 19.3163 84.2741 19.2784C84.5999 19.2367 84.8366 19.1704 84.9844 19.0795C85.1321 18.9886 85.206 18.8409 85.206 18.6364V18.5966C85.206 18.1004 85.0658 17.7159 84.7855 17.4432C84.509 17.1704 84.0961 17.0341 83.5469 17.0341C82.9749 17.0341 82.5241 17.161 82.1946 17.4148C81.8688 17.6648 81.6435 17.9432 81.5185 18.25L79.9219 17.8864C80.1113 17.3561 80.3878 16.928 80.7514 16.6023C81.1188 16.2727 81.5412 16.0341 82.0185 15.8864C82.4957 15.7348 82.9976 15.6591 83.5241 15.6591C83.8726 15.6591 84.2419 15.7008 84.6321 15.7841C85.026 15.8636 85.3935 16.0114 85.7344 16.2273C86.0791 16.4432 86.3613 16.7519 86.581 17.1534C86.8007 17.5511 86.9105 18.0682 86.9105 18.7045V24.5H85.2514V23.3068H85.1832C85.0734 23.5265 84.9086 23.7424 84.6889 23.9545C84.4692 24.1667 84.187 24.3428 83.8423 24.4829C83.4976 24.6231 83.0847 24.6932 82.6037 24.6932ZM82.973 23.3295C83.4427 23.3295 83.8442 23.2367 84.1775 23.0511C84.5147 22.8655 84.7704 22.6231 84.9446 22.3239C85.1226 22.0208 85.2116 21.697 85.2116 21.3523V20.2273C85.151 20.2879 85.0336 20.3447 84.8594 20.3977C84.6889 20.447 84.4938 20.4905 84.2741 20.5284C84.0544 20.5625 83.8404 20.5947 83.6321 20.625C83.4238 20.6515 83.2495 20.6742 83.1094 20.6932C82.7798 20.7348 82.4787 20.8049 82.206 20.9034C81.937 21.0019 81.7211 21.1439 81.5582 21.3295C81.3991 21.5114 81.3196 21.7538 81.3196 22.0568C81.3196 22.4773 81.4749 22.7954 81.7855 23.0114C82.0961 23.2235 82.4919 23.3295 82.973 23.3295ZM89.1733 24.5V15.7727H90.8722V24.5H89.1733ZM90.0312 14.4261C89.7358 14.4261 89.482 14.3276 89.2699 14.1307C89.0615 13.9299 88.9574 13.6913 88.9574 13.4148C88.9574 13.1345 89.0615 12.8958 89.2699 12.6989C89.482 12.4981 89.7358 12.3977 90.0312 12.3977C90.3267 12.3977 90.5786 12.4981 90.7869 12.6989C90.999 12.8958 91.1051 13.1345 91.1051 13.4148C91.1051 13.6913 90.999 13.9299 90.7869 14.1307C90.5786 14.3276 90.3267 14.4261 90.0312 14.4261ZM94.8565 12.8636V24.5H93.1577V12.8636H94.8565ZM99.6818 24.6932C99.1288 24.6932 98.6288 24.5909 98.1818 24.3864C97.7348 24.178 97.3807 23.8769 97.1193 23.4829C96.8617 23.089 96.7329 22.6061 96.7329 22.0341C96.7329 21.5417 96.8276 21.1364 97.017 20.8182C97.2064 20.5 97.4621 20.2481 97.7841 20.0625C98.106 19.8769 98.4659 19.7367 98.8636 19.642C99.2614 19.5473 99.6667 19.4754 100.08 19.4261C100.602 19.3655 101.027 19.3163 101.352 19.2784C101.678 19.2367 101.915 19.1704 102.062 19.0795C102.21 18.9886 102.284 18.8409 102.284 18.6364V18.5966C102.284 18.1004 102.144 17.7159 101.864 17.4432C101.587 17.1704 101.174 17.0341 100.625 17.0341C100.053 17.0341 99.6023 17.161 99.2727 17.4148C98.947 17.6648 98.7216 17.9432 98.5966 18.25L97 17.8864C97.1894 17.3561 97.4659 16.928 97.8295 16.6023C98.197 16.2727 98.6193 16.0341 99.0966 15.8864C99.5739 15.7348 100.076 15.6591 100.602 15.6591C100.951 15.6591 101.32 15.7008 101.71 15.7841C102.104 15.8636 102.472 16.0114 102.812 16.2273C103.157 16.4432 103.439 16.7519 103.659 17.1534C103.879 17.5511 103.989 18.0682 103.989 18.7045V24.5H102.33V23.3068H102.261C102.152 23.5265 101.987 23.7424 101.767 23.9545C101.547 24.1667 101.265 24.3428 100.92 24.4829C100.576 24.6231 100.163 24.6932 99.6818 24.6932ZM100.051 23.3295C100.521 23.3295 100.922 23.2367 101.256 23.0511C101.593 22.8655 101.848 22.6231 102.023 22.3239C102.201 22.0208 102.29 21.697 102.29 21.3523V20.2273C102.229 20.2879 102.112 20.3447 101.937 20.3977C101.767 20.447 101.572 20.4905 101.352 20.5284C101.133 20.5625 100.919 20.5947 100.71 20.625C100.502 20.6515 100.328 20.6742 100.187 20.6932C99.8579 20.7348 99.5568 20.8049 99.2841 20.9034C99.0151 21.0019 98.7992 21.1439 98.6364 21.3295C98.4773 21.5114 98.3977 21.7538 98.3977 22.0568C98.3977 22.4773 98.553 22.7954 98.8636 23.0114C99.1742 23.2235 99.5701 23.3295 100.051 23.3295ZM106.388 24.5V12.8636H108.087V17.1875H108.189C108.287 17.0057 108.429 16.7954 108.615 16.5568C108.801 16.3182 109.058 16.1098 109.388 15.9318C109.717 15.75 110.153 15.6591 110.695 15.6591C111.399 15.6591 112.028 15.8371 112.581 16.1932C113.134 16.5492 113.568 17.0625 113.882 17.7329C114.2 18.4034 114.359 19.2102 114.359 20.1534C114.359 21.0966 114.202 21.9053 113.888 22.5795C113.573 23.25 113.142 23.767 112.592 24.1307C112.043 24.4905 111.416 24.6704 110.712 24.6704C110.181 24.6704 109.748 24.5814 109.41 24.4034C109.077 24.2254 108.816 24.017 108.626 23.7784C108.437 23.5398 108.291 23.3276 108.189 23.142H108.047V24.5H106.388ZM108.053 20.1364C108.053 20.75 108.142 21.2879 108.32 21.75C108.498 22.2121 108.755 22.5739 109.092 22.8352C109.429 23.0928 109.842 23.2216 110.331 23.2216C110.839 23.2216 111.263 23.0871 111.604 22.8182C111.945 22.5454 112.202 22.1761 112.376 21.7102C112.554 21.2443 112.643 20.7197 112.643 20.1364C112.643 19.5606 112.556 19.0436 112.382 18.5852C112.212 18.1269 111.954 17.7651 111.609 17.5C111.268 17.2348 110.842 17.1023 110.331 17.1023C109.839 17.1023 109.422 17.2292 109.081 17.4829C108.744 17.7367 108.488 18.0909 108.314 18.5454C108.14 19 108.053 19.5303 108.053 20.1364ZM117.966 12.8636V24.5H116.267V12.8636H117.966ZM124.013 24.6761C123.153 24.6761 122.412 24.4924 121.791 24.125C121.174 23.7538 120.696 23.2329 120.359 22.5625C120.026 21.8883 119.859 21.0985 119.859 20.1932C119.859 19.2992 120.026 18.5114 120.359 17.8295C120.696 17.1477 121.166 16.6155 121.768 16.2329C122.375 15.8504 123.083 15.6591 123.893 15.6591C124.386 15.6591 124.863 15.7405 125.325 15.9034C125.787 16.0663 126.202 16.322 126.57 16.6704C126.937 17.0189 127.227 17.4716 127.439 18.0284C127.651 18.5814 127.757 19.2538 127.757 20.0454V20.6477H120.82V19.375H126.092C126.092 18.928 126.001 18.5322 125.82 18.1875C125.638 17.839 125.382 17.5644 125.053 17.3636C124.727 17.1629 124.344 17.0625 123.905 17.0625C123.428 17.0625 123.011 17.1799 122.655 17.4148C122.303 17.6458 122.03 17.9489 121.837 18.3239C121.647 18.6951 121.553 19.0985 121.553 19.5341V20.5284C121.553 21.1117 121.655 21.6079 121.859 22.017C122.068 22.4261 122.357 22.7386 122.729 22.9545C123.1 23.1667 123.534 23.2727 124.03 23.2727C124.352 23.2727 124.645 23.2273 124.91 23.1364C125.176 23.0417 125.405 22.9015 125.598 22.7159C125.791 22.5303 125.939 22.3011 126.041 22.0284L127.649 22.3182C127.52 22.7917 127.289 23.2064 126.956 23.5625C126.626 23.9148 126.212 24.1894 125.712 24.3864C125.215 24.5795 124.649 24.6761 124.013 24.6761ZM137.553 24.6761C136.734 24.6761 136.02 24.4886 135.41 24.1136C134.801 23.7386 134.327 23.214 133.99 22.5398C133.653 21.8655 133.484 21.0776 133.484 20.1761C133.484 19.2708 133.653 18.4792 133.99 17.8011C134.327 17.1231 134.801 16.5966 135.41 16.2216C136.02 15.8466 136.734 15.6591 137.553 15.6591C138.371 15.6591 139.085 15.8466 139.695 16.2216C140.304 16.5966 140.778 17.1231 141.115 17.8011C141.452 18.4792 141.621 19.2708 141.621 20.1761C141.621 21.0776 141.452 21.8655 141.115 22.5398C140.778 23.214 140.304 23.7386 139.695 24.1136C139.085 24.4886 138.371 24.6761 137.553 24.6761ZM137.558 23.25C138.089 23.25 138.528 23.1098 138.876 22.8295C139.225 22.5492 139.482 22.1761 139.649 21.7102C139.82 21.2443 139.905 20.7311 139.905 20.1704C139.905 19.6136 139.82 19.1023 139.649 18.6364C139.482 18.1667 139.225 17.7898 138.876 17.5057C138.528 17.2216 138.089 17.0795 137.558 17.0795C137.024 17.0795 136.581 17.2216 136.229 17.5057C135.88 17.7898 135.621 18.1667 135.45 18.6364C135.284 19.1023 135.2 19.6136 135.2 20.1704C135.2 20.7311 135.284 21.2443 135.45 21.7102C135.621 22.1761 135.88 22.5492 136.229 22.8295C136.581 23.1098 137.024 23.25 137.558 23.25ZM145.216 19.3182V24.5H143.517V15.7727H145.148V17.1932H145.256C145.456 16.7311 145.771 16.3598 146.199 16.0795C146.631 15.7992 147.174 15.6591 147.83 15.6591C148.424 15.6591 148.945 15.7841 149.392 16.0341C149.839 16.2803 150.186 16.6477 150.432 17.1364C150.678 17.625 150.801 18.2292 150.801 18.9489V24.5H149.102V19.1534C149.102 18.5208 148.937 18.0265 148.608 17.6704C148.278 17.3106 147.826 17.1307 147.25 17.1307C146.856 17.1307 146.506 17.2159 146.199 17.3864C145.896 17.5568 145.655 17.8068 145.477 18.1364C145.303 18.4621 145.216 18.8561 145.216 19.3182Z" fill="#E8E8E8"/>
<path d="M63.6101 43.5H60.3984L64.57 31.1364H68.5483L72.7198 43.5H69.5082L66.6044 34.2514H66.5078L63.6101 43.5ZM63.1815 38.6342H69.8945V40.9041H63.1815V38.6342ZM74.051 46.9773V34.2273H76.9728V35.815H77.0634C77.1841 35.5333 77.3552 35.2616 77.5765 35C77.8019 34.7384 78.0876 34.5251 78.4338 34.3601C78.7839 34.191 79.2025 34.1065 79.6894 34.1065C80.3334 34.1065 80.9351 34.2756 81.4945 34.6136C82.0579 34.9517 82.5127 35.4729 82.8588 36.1772C83.205 36.8815 83.378 37.779 83.378 38.8697C83.378 39.9201 83.211 40.7995 82.8769 41.5078C82.5469 42.2161 82.1002 42.7474 81.5367 43.1016C80.9773 43.4557 80.3555 43.6328 79.6713 43.6328C79.2045 43.6328 78.8 43.5563 78.4579 43.4034C78.1158 43.2505 77.8281 43.0492 77.5946 42.7997C77.3652 42.5502 77.1881 42.2825 77.0634 41.9968H77.003V46.9773H74.051ZM76.9426 38.8636C76.9426 39.3627 77.0091 39.7973 77.1419 40.1676C77.2787 40.5379 77.4739 40.8256 77.7274 41.0309C77.985 41.2321 78.2929 41.3327 78.6511 41.3327C79.0133 41.3327 79.3212 41.2321 79.5747 41.0309C79.8283 40.8256 80.0195 40.5379 80.1483 40.1676C80.2811 39.7973 80.3475 39.3627 80.3475 38.8636C80.3475 38.3646 80.2811 37.9319 80.1483 37.5657C80.0195 37.1994 79.8283 36.9157 79.5747 36.7145C79.3252 36.5132 79.0173 36.4126 78.6511 36.4126C78.2889 36.4126 77.981 36.5112 77.7274 36.7084C77.4739 36.9056 77.2787 37.1874 77.1419 37.5536C77.0091 37.9199 76.9426 38.3565 76.9426 38.8636ZM84.925 46.9773V34.2273H87.8468V35.815H87.9374C88.0581 35.5333 88.2292 35.2616 88.4505 35C88.6759 34.7384 88.9617 34.5251 89.3078 34.3601C89.6579 34.191 90.0765 34.1065 90.5635 34.1065C91.2074 34.1065 91.8091 34.2756 92.3685 34.6136C92.932 34.9517 93.3867 35.4729 93.7329 36.1772C94.079 36.8815 94.252 37.779 94.252 38.8697C94.252 39.9201 94.085 40.7995 93.751 41.5078C93.4209 42.2161 92.9742 42.7474 92.4108 43.1016C91.8513 43.4557 91.2295 43.6328 90.5454 43.6328C90.0785 43.6328 89.674 43.5563 89.3319 43.4034C88.9898 43.2505 88.7021 43.0492 88.4687 42.7997C88.2392 42.5502 88.0622 42.2825 87.9374 41.9968H87.877V46.9773H84.925ZM87.8167 38.8636C87.8167 39.3627 87.8831 39.7973 88.0159 40.1676C88.1527 40.5379 88.3479 40.8256 88.6015 41.0309C88.859 41.2321 89.1669 41.3327 89.5251 41.3327C89.8873 41.3327 90.1952 41.2321 90.4488 41.0309C90.7023 40.8256 90.8935 40.5379 91.0223 40.1676C91.1551 39.7973 91.2215 39.3627 91.2215 38.8636C91.2215 38.3646 91.1551 37.9319 91.0223 37.5657C90.8935 37.1994 90.7023 36.9157 90.4488 36.7145C90.1992 36.5132 89.8914 36.4126 89.5251 36.4126C89.1629 36.4126 88.855 36.5112 88.6015 36.7084C88.3479 36.9056 88.1527 37.1874 88.0159 37.5536C87.8831 37.9199 87.8167 38.3565 87.8167 38.8636ZM103.913 35.1751C103.844 34.9215 103.744 34.6981 103.611 34.505C103.478 34.3078 103.315 34.1407 103.122 34.0039C102.929 33.8671 102.707 33.7644 102.458 33.696C102.208 33.6236 101.935 33.5873 101.637 33.5873C101.037 33.5873 100.518 33.7322 100.079 34.022C99.6445 34.3118 99.3085 34.7344 99.071 35.2898C98.8336 35.8411 98.7148 36.5112 98.7148 37.3001C98.7148 38.0929 98.8295 38.769 99.0589 39.3285C99.2883 39.8879 99.6204 40.3145 100.055 40.6083C100.49 40.9021 101.017 41.049 101.637 41.049C102.184 41.049 102.647 40.9605 103.025 40.7834C103.408 40.6023 103.697 40.3467 103.895 40.0167C104.092 39.6867 104.19 39.2983 104.19 38.8516L104.746 38.918H101.739V36.7386H107.07V38.3746C107.07 39.4814 106.835 40.4292 106.364 41.218C105.897 42.0069 105.253 42.6126 104.432 43.0351C103.615 43.4577 102.675 43.669 101.613 43.669C100.433 43.669 99.397 43.4135 98.5035 42.9023C97.6101 42.3912 96.9138 41.6627 96.4148 40.717C95.9157 39.7672 95.6662 38.6403 95.6662 37.3363C95.6662 36.3221 95.8171 35.4226 96.119 34.6378C96.4208 33.8489 96.8414 33.1809 97.3807 32.6335C97.924 32.0862 98.5518 31.6716 99.2642 31.3899C99.9806 31.1082 100.751 30.9673 101.576 30.9673C102.293 30.9673 102.959 31.0699 103.575 31.2752C104.194 31.4805 104.742 31.7702 105.217 32.1445C105.696 32.5188 106.084 32.9635 106.382 33.4787C106.68 33.9938 106.865 34.5593 106.937 35.1751H103.913ZM111.445 43.6569C110.854 43.6569 110.328 43.5583 109.87 43.3611C109.415 43.1599 109.055 42.8581 108.789 42.4556C108.527 42.0491 108.397 41.54 108.397 40.9283C108.397 40.4131 108.487 39.9784 108.668 39.6243C108.849 39.2701 109.099 38.9824 109.417 38.761C109.735 38.5396 110.101 38.3726 110.516 38.2599C110.93 38.1432 111.373 38.0647 111.844 38.0245C112.371 37.9762 112.795 37.9259 113.117 37.8736C113.439 37.8172 113.673 37.7387 113.818 37.6381C113.967 37.5335 114.041 37.3866 114.041 37.1974V37.1672C114.041 36.8574 113.934 36.6179 113.721 36.4489C113.508 36.2798 113.22 36.1953 112.858 36.1953C112.467 36.1953 112.154 36.2798 111.916 36.4489C111.679 36.6179 111.528 36.8513 111.463 37.1491L108.741 37.0525C108.821 36.4891 109.028 35.986 109.362 35.5433C109.701 35.0966 110.163 34.7464 110.751 34.4929C111.343 34.2353 112.053 34.1065 112.882 34.1065C113.474 34.1065 114.019 34.177 114.518 34.3178C115.017 34.4547 115.452 34.6559 115.822 34.9215C116.192 35.1831 116.478 35.5051 116.679 35.8874C116.884 36.2698 116.987 36.7064 116.987 37.1974V43.5H114.21V42.2081H114.138C113.973 42.522 113.761 42.7876 113.504 43.005C113.25 43.2223 112.95 43.3853 112.604 43.494C112.262 43.6026 111.876 43.6569 111.445 43.6569ZM112.357 41.7251C112.675 41.7251 112.96 41.6607 113.214 41.5319C113.472 41.4032 113.677 41.2261 113.83 41.0007C113.983 40.7713 114.059 40.5057 114.059 40.2038V39.3224C113.975 39.3667 113.872 39.4069 113.751 39.4432C113.635 39.4794 113.506 39.5136 113.365 39.5458C113.224 39.578 113.079 39.6062 112.93 39.6303C112.781 39.6545 112.639 39.6766 112.502 39.6967C112.224 39.741 111.987 39.8094 111.789 39.902C111.596 39.9945 111.447 40.1153 111.343 40.2642C111.242 40.4091 111.192 40.5821 111.192 40.7834C111.192 41.0892 111.3 41.3227 111.518 41.4837C111.739 41.6446 112.019 41.7251 112.357 41.7251ZM121.744 31.1364V43.5H118.792V31.1364H121.744ZM126.575 31.1364V43.5H123.623V31.1364H126.575ZM132.789 43.6751C131.819 43.6751 130.982 43.4839 130.277 43.1016C129.577 42.7152 129.038 42.1658 128.66 41.4535C128.285 40.7371 128.098 39.8859 128.098 38.8998C128.098 37.942 128.287 37.1049 128.666 36.3885C129.044 35.6681 129.577 35.1087 130.265 34.7102C130.954 34.3078 131.765 34.1065 132.698 34.1065C133.358 34.1065 133.962 34.2092 134.509 34.4144C135.057 34.6197 135.53 34.9235 135.928 35.326C136.326 35.7284 136.636 36.2255 136.858 36.8171C137.079 37.4047 137.19 38.0788 137.19 38.8395V39.576H129.13V37.8615H134.443C134.439 37.5476 134.364 37.2679 134.22 37.0224C134.075 36.7769 133.875 36.5857 133.622 36.4489C133.372 36.308 133.085 36.2376 132.759 36.2376C132.429 36.2376 132.133 36.312 131.871 36.4609C131.61 36.6058 131.402 36.805 131.249 37.0586C131.096 37.3081 131.016 37.5918 131.008 37.9098V39.6545C131.008 40.0328 131.082 40.3648 131.231 40.6506C131.38 40.9323 131.591 41.1516 131.865 41.3086C132.139 41.4655 132.465 41.544 132.843 41.544C133.105 41.544 133.342 41.5078 133.555 41.4354C133.769 41.3629 133.952 41.2563 134.105 41.1154C134.258 40.9745 134.372 40.8015 134.449 40.5962L137.16 40.6747C137.047 41.2824 136.799 41.8117 136.417 42.2624C136.039 42.7092 135.542 43.0573 134.926 43.3068C134.31 43.5523 133.598 43.6751 132.789 43.6751ZM138.697 43.5V34.2273H141.565V35.9176H141.662C141.831 35.3059 142.106 34.8511 142.489 34.5533C142.871 34.2514 143.316 34.1005 143.823 34.1005C143.96 34.1005 144.1 34.1105 144.245 34.1307C144.39 34.1468 144.525 34.1729 144.65 34.2092V36.7748C144.509 36.7266 144.324 36.6883 144.094 36.6601C143.869 36.632 143.668 36.6179 143.491 36.6179C143.141 36.6179 142.825 36.6964 142.543 36.8533C142.265 37.0063 142.046 37.2216 141.885 37.4993C141.728 37.773 141.649 38.0949 141.649 38.4652V43.5H138.697ZM147.94 46.9773C147.586 46.9773 147.252 46.9491 146.938 46.8927C146.624 46.8404 146.354 46.77 146.129 46.6815L146.781 44.5383C147.071 44.6349 147.332 44.6913 147.566 44.7074C147.803 44.7235 148.006 44.6852 148.175 44.5927C148.348 44.5041 148.481 44.3452 148.574 44.1158L148.689 43.8381L145.392 34.2273H148.483L150.192 40.8437H150.288L152.021 34.2273H155.13L151.635 44.3874C151.466 44.8945 151.226 45.3413 150.916 45.7276C150.61 46.118 150.214 46.4239 149.727 46.6452C149.244 46.8666 148.648 46.9773 147.94 46.9773Z" fill="white"/>
</g>
<defs>
<filter id="filter0_d_3_2" x="6.28571" y="2.28571" width="51.4286" height="51.4286" filterUnits="userSpaceOnUse" color-interpolation-filters="sRGB">
<feFlood flood-opacity="0" result="BackgroundImageFix"/>
<feColorMatrix in="SourceAlpha" type="matrix" values="0 0 0 0 0 0 0 0 0 0 0 0 0 0 0 0 0 0 127 0" result="hardAlpha"/>
<feOffset/>
<feGaussianBlur stdDeviation="2.85714"/>
<feComposite in2="hardAlpha" operator="out"/>
<feColorMatrix type="matrix" values="0 0 0 0 0 0 0 0 0 0 0 0 0 0 0 0 0 0 0.25 0"/>
<feBlend mode="normal" in2="BackgroundImageFix" result="effect1_dropShadow_3_2"/>
<feBlend mode="normal" in="SourceGraphic" in2="effect1_dropShadow_3_2" result="shape"/>
</filter>
<filter id="filter1_d_3_2" x="54.4" y="3.9" width="107.2" height="48.6773" filterUnits="userSpaceOnUse" color-interpolation-filters="sRGB">
<feFlood flood-opacity="0" result="BackgroundImageFix"/>
<feColorMatrix in="SourceAlpha" type="matrix" values="0 0 0 0 0 0 0 0 0 0 0 0 0 0 0 0 0 0 127 0" result="hardAlpha"/>
<feOffset/>
<feGaussianBlur stdDeviation="2.8"/>
<feComposite in2="hardAlpha" operator="out"/>
<feColorMatrix type="matrix" values="0 0 0 0 0 0 0 0 0 0 0 0 0 0 0 0 0 0 0.25 0"/>
<feBlend mode="normal" in2="BackgroundImageFix" result="effect1_dropShadow_3_2"/>
<feBlend mode="normal" in="SourceGraphic" in2="effect1_dropShadow_3_2" result="shape"/>
</filter>
<linearGradient id="paint0_linear_3_2" x1="84" y1="0" x2="84" y2="56" gradientUnits="userSpaceOnUse">
<stop stop-color="#E84026"/>
<stop offset="1" stop-color="#D94838"/>
</linearGradient>
<linearGradient id="paint1_linear_3_2" x1="32" y1="8" x2="32" y2="48" gradientUnits="userSpaceOnUse">
<stop stop-color="#FB6361"/>
<stop offset="1" stop-color="#ED3E45"/>
</linearGradient>
</defs>
</svg>
