<svg width="137" height="32" viewBox="0 0 137 32" fill="none" xmlns="http://www.w3.org/2000/svg">
<rect width="137" height="32" fill="white"/>
<path d="M132 0H31V32H132C134.761 32 137 29.7614 137 27V5C137 2.23858 134.761 0 132 0Z" fill="#0F1418"/>
<path d="M31 0H5C2.23858 0 0 2.23858 0 5V27C0 29.7614 2.23858 32 5 32H31V0Z" fill="#FA5C5C"/>
<path d="M47.1691 19.14H43.2391L42.6091 21H39.9241L43.7341 10.47H46.7041L50.5141 21H47.7991L47.1691 19.14ZM46.5091 17.16L45.2041 13.305L43.9141 17.16H46.5091ZM54.4187 13.815C54.6687 13.425 55.0137 13.11 55.4537 12.87C55.8937 12.63 56.4087 12.51 56.9987 12.51C57.6887 12.51 58.3137 12.685 58.8737 13.035C59.4337 13.385 59.8737 13.885 60.1937 14.535C60.5237 15.185 60.6887 15.94 60.6887 16.8C60.6887 17.66 60.5237 18.42 60.1937 19.08C59.8737 19.73 59.4337 20.235 58.8737 20.595C58.3137 20.945 57.6887 21.12 56.9987 21.12C56.4187 21.12 55.9037 21 55.4537 20.76C55.0137 20.52 54.6687 20.21 54.4187 19.83V24.99H51.8537V12.63H54.4187V13.815ZM58.0787 16.8C58.0787 16.16 57.8987 15.66 57.5387 15.3C57.1887 14.93 56.7537 14.745 56.2337 14.745C55.7237 14.745 55.2887 14.93 54.9287 15.3C54.5787 15.67 54.4037 16.175 54.4037 16.815C54.4037 17.455 54.5787 17.96 54.9287 18.33C55.2887 18.7 55.7237 18.885 56.2337 18.885C56.7437 18.885 57.1787 18.7 57.5387 18.33C57.8987 17.95 58.0787 17.44 58.0787 16.8ZM64.7794 13.815C65.0294 13.425 65.3744 13.11 65.8144 12.87C66.2544 12.63 66.7694 12.51 67.3594 12.51C68.0494 12.51 68.6744 12.685 69.2344 13.035C69.7944 13.385 70.2344 13.885 70.5544 14.535C70.8844 15.185 71.0494 15.94 71.0494 16.8C71.0494 17.66 70.8844 18.42 70.5544 19.08C70.2344 19.73 69.7944 20.235 69.2344 20.595C68.6744 20.945 68.0494 21.12 67.3594 21.12C66.7794 21.12 66.2644 21 65.8144 20.76C65.3744 20.52 65.0294 20.21 64.7794 19.83V24.99H62.2144V12.63H64.7794V13.815ZM68.4394 16.8C68.4394 16.16 68.2594 15.66 67.8994 15.3C67.5494 14.93 67.1144 14.745 66.5944 14.745C66.0844 14.745 65.6494 14.93 65.2894 15.3C64.9394 15.67 64.7644 16.175 64.7644 16.815C64.7644 17.455 64.9394 17.96 65.2894 18.33C65.6494 18.7 66.0844 18.885 66.5944 18.885C67.1044 18.885 67.5394 18.7 67.8994 18.33C68.2594 17.95 68.4394 17.44 68.4394 16.8ZM79.565 13.8C79.375 13.45 79.1 13.185 78.74 13.005C78.39 12.815 77.975 12.72 77.495 12.72C76.665 12.72 76 12.995 75.5 13.545C75 14.085 74.75 14.81 74.75 15.72C74.75 16.69 75.01 17.45 75.53 18C76.06 18.54 76.785 18.81 77.705 18.81C78.335 18.81 78.865 18.65 79.295 18.33C79.735 18.01 80.055 17.55 80.255 16.95H77V15.06H82.58V17.445C82.39 18.085 82.065 18.68 81.605 19.23C81.155 19.78 80.58 20.225 79.88 20.565C79.18 20.905 78.39 21.075 77.51 21.075C76.47 21.075 75.54 20.85 74.72 20.4C73.91 19.94 73.275 19.305 72.815 18.495C72.365 17.685 72.14 16.76 72.14 15.72C72.14 14.68 72.365 13.755 72.815 12.945C73.275 12.125 73.91 11.49 74.72 11.04C75.53 10.58 76.455 10.35 77.495 10.35C78.755 10.35 79.815 10.655 80.675 11.265C81.545 11.875 82.12 12.72 82.4 13.8H79.565ZM83.6708 16.8C83.6708 15.94 83.8308 15.185 84.1508 14.535C84.4808 13.885 84.9258 13.385 85.4858 13.035C86.0458 12.685 86.6708 12.51 87.3608 12.51C87.9508 12.51 88.4658 12.63 88.9058 12.87C89.3558 13.11 89.7008 13.425 89.9408 13.815V12.63H92.5058V21H89.9408V19.815C89.6908 20.205 89.3408 20.52 88.8908 20.76C88.4508 21 87.9358 21.12 87.3458 21.12C86.6658 21.12 86.0458 20.945 85.4858 20.595C84.9258 20.235 84.4808 19.73 84.1508 19.08C83.8308 18.42 83.6708 17.66 83.6708 16.8ZM89.9408 16.815C89.9408 16.175 89.7608 15.67 89.4008 15.3C89.0508 14.93 88.6208 14.745 88.1108 14.745C87.6008 14.745 87.1658 14.93 86.8058 15.3C86.4558 15.66 86.2808 16.16 86.2808 16.8C86.2808 17.44 86.4558 17.95 86.8058 18.33C87.1658 18.7 87.6008 18.885 88.1108 18.885C88.6208 18.885 89.0508 18.7 89.4008 18.33C89.7608 17.96 89.9408 17.455 89.9408 16.815ZM97.1065 9.9V21H94.5415V9.9H97.1065ZM101.71 9.9V21H99.1453V9.9H101.71ZM111.639 16.68C111.639 16.92 111.624 17.17 111.594 17.43H105.789C105.829 17.95 105.994 18.35 106.284 18.63C106.584 18.9 106.949 19.035 107.379 19.035C108.019 19.035 108.464 18.765 108.714 18.225H111.444C111.304 18.775 111.049 19.27 110.679 19.71C110.319 20.15 109.864 20.495 109.314 20.745C108.764 20.995 108.149 21.12 107.469 21.12C106.649 21.12 105.919 20.945 105.279 20.595C104.639 20.245 104.139 19.745 103.779 19.095C103.419 18.445 103.239 17.685 103.239 16.815C103.239 15.945 103.414 15.185 103.764 14.535C104.124 13.885 104.624 13.385 105.264 13.035C105.904 12.685 106.639 12.51 107.469 12.51C108.279 12.51 108.999 12.68 109.629 13.02C110.259 13.36 110.749 13.845 111.099 14.475C111.459 15.105 111.639 15.84 111.639 16.68ZM109.014 16.005C109.014 15.565 108.864 15.215 108.564 14.955C108.264 14.695 107.889 14.565 107.439 14.565C107.009 14.565 106.644 14.69 106.344 14.94C106.054 15.19 105.874 15.545 105.804 16.005H109.014ZM115.737 14.025C116.037 13.565 116.412 13.205 116.862 12.945C117.312 12.675 117.812 12.54 118.362 12.54V15.255H117.657C117.017 15.255 116.537 15.395 116.217 15.675C115.897 15.945 115.737 16.425 115.737 17.115V21H113.172V12.63H115.737V14.025ZM128.318 12.63L123.068 24.975H120.308L122.228 20.715L118.823 12.63H121.688L123.623 17.865L125.543 12.63H128.318Z" fill="white"/>
<path d="M132 0H5C2.23858 0 0 2.23858 0 5V27C0 29.7614 2.23858 32 5 32H132C134.761 32 137 29.7614 137 27V5C137 2.23858 134.761 0 132 0Z" fill="url(#paint0_linear_19_117)"/>
<path fill-rule="evenodd" clip-rule="evenodd" d="M13.2851 22.0096H14.6787L13.9795 20.247L13.2851 22.0096ZM12.9419 22.8979L12.5284 23.9235H11.587L13.5889 19.0003H14.4025L16.3963 23.9235H15.4298L15.0216 22.8979H12.9419ZM28.0902 23.9199H29V19H28.0902V23.9199ZM24.4689 21.8064H26.146V20.9093H24.4689V19.901H26.9035V19.0036H23.5593V23.9232H26.9911V23.0258H24.4689V21.8064ZM20.8538 22.3877L19.8223 19H19.0695L18.038 22.3877L17.0341 19.0027H16.0526L17.6368 23.9262H18.3999L19.4331 20.6922L20.4662 23.9262H21.236L22.816 19.0027H21.8599L20.8538 22.3877ZM10.1981 21.82C10.1981 22.6209 9.83123 23.0488 9.16496 23.0488C8.49506 23.0488 8.12621 22.6085 8.12621 21.7858V19.0033H7.20408V21.82C7.20408 23.2055 7.91444 24 9.1524 24C10.4026 24 11.1194 23.1904 11.1194 21.7789V19.0003H10.1981V21.82ZM5.00409 19.0003H5.92566V23.9265H5.00409V21.9258H2.92213V23.9265H2V19.0003H2.92213V20.9874H5.00409V19.0003Z" fill="white"/>
<path fill-rule="evenodd" clip-rule="evenodd" d="M15.5 14C12.467 14 10 11.3084 10 8H10.7769C10.7769 10.8409 12.8959 13.1522 15.5 13.1522C18.1041 13.1522 20.2231 10.8409 20.2231 8H21C21 11.3084 18.5327 14 15.5 14Z" fill="white"/>
<defs>
<linearGradient id="paint0_linear_19_117" x1="0" y1="0" x2="0" y2="32" gradientUnits="userSpaceOnUse">
<stop stop-color="#BBBBBB" stop-opacity="0.1"/>
<stop offset="1" stop-opacity="0.1"/>
</linearGradient>
</defs>
</svg>
