<svg width="164" height="56" viewBox="0 0 164 56" fill="none" xmlns="http://www.w3.org/2000/svg">
<rect width="164" height="56" rx="8" fill="url(#paint0_linear_3_19)"/>
<rect x="1.05" y="1.05" width="161.9" height="53.9" rx="6.95" stroke="#222222" stroke-opacity="0.15" stroke-width="2.1"/>
<g filter="url(#filter0_d_3_19)">
<path d="M17.2149 8.24737C15.4702 9.39898 12.0326 13.7889 12 14.9401V16.8458C12 19.2613 14.0312 21.3844 15.8754 21.3844C18.0899 21.3844 19.9349 19.3443 19.9351 16.923C19.9351 19.3443 21.7168 21.3844 23.9314 21.3844C26.1462 21.3844 27.8708 19.3443 27.8708 16.923C27.8708 19.3443 29.7654 21.3844 31.98 21.3844H32.0201C34.2348 21.3844 36.1294 19.3443 36.1294 16.923C36.1294 19.3443 37.8541 21.3844 40.0686 21.3844C42.2832 21.3844 44.0649 19.3443 44.0649 16.923C44.0649 19.3443 45.9103 21.3844 48.1246 21.3844C49.9688 21.3844 52 19.2617 52 16.8458V14.9401C51.9674 13.7887 48.5298 9.39862 46.7854 8.24737C41.3624 8.03572 37.6029 7.99911 31.9998 8.00002C26.3969 8.00056 18.7582 8.09787 17.2146 8.24737H17.2149ZM27.8427 20.2468C27.631 20.6571 27.3687 21.0325 27.0635 21.3622C26.2275 22.2708 25.0817 22.834 23.8185 22.834C22.6029 22.8352 21.4354 22.3065 20.5666 21.3614C20.2637 21.0316 20.0335 20.679 19.8227 20.2684L19.8218 20.2691C19.6111 20.6804 19.3177 21.0329 19.0142 21.3631C18.1451 22.3075 16.9777 22.8357 15.7623 22.8345C15.61 22.8345 15.4516 22.7878 15.3234 22.7388C15.1454 24.7996 15.0703 26.769 15.0437 28.205L15.0434 28.2131C15.0401 28.9423 15.0369 29.542 15.0336 30.375C15.0678 34.6987 14.6484 44.389 16.7485 46.7699C20.003 47.6135 25.9917 47.9976 31.9997 48H32.0007C38.0085 47.9976 43.9971 47.6135 47.2516 46.7699C49.3518 44.3888 48.9323 34.6986 48.9666 30.3748C48.963 29.542 48.96 28.9423 48.9568 28.2129L48.9563 28.2048C48.9299 26.7685 48.8547 24.7992 48.6767 22.7385C48.5486 22.7874 48.3903 22.8342 48.2379 22.8342C47.0225 22.8354 45.8551 22.3071 44.986 21.3627C44.6825 21.0325 44.389 20.6803 44.1782 20.2687L44.1773 20.268C43.9663 20.6786 43.7363 21.0314 43.4334 21.3611C42.5647 22.3061 41.3972 22.8347 40.1817 22.8334C38.9186 22.8334 37.7726 22.2699 36.9367 21.3614C36.6315 21.0318 36.3692 20.6564 36.1574 20.2461C35.948 20.6559 35.6881 21.0313 35.3854 21.3614C34.5164 22.3064 33.3488 22.8349 32.1332 22.8336C32.0892 22.8336 32.0452 22.8314 32.0011 22.83H32C31.956 22.8314 31.912 22.8336 31.8675 22.8336C30.6519 22.835 29.4843 22.3065 28.6153 21.3616C28.3125 21.0315 28.0527 20.6561 27.8432 20.2462L27.8427 20.2468ZM24.5031 25.0471L24.5028 25.0489H24.5053C25.8278 25.052 27.0027 25.0489 28.4584 26.8151C29.6041 26.6815 30.8013 26.6148 31.9995 26.6168H32.0005C33.1987 26.615 34.3959 26.6815 35.5417 26.8151C36.9975 25.0488 38.1723 25.0518 39.4949 25.0489H39.4972L39.4969 25.0471C40.1217 25.0471 42.6213 25.0471 44.3629 30.4848L46.2337 37.9445C47.62 43.4939 45.7898 43.6297 43.5069 43.6346C40.1214 43.4945 38.2468 40.7614 38.2468 38.0287C36.3728 38.3701 34.1866 38.5408 32.0003 38.541H31.9993C29.813 38.541 27.6267 38.3701 25.7528 38.0287C25.7528 40.7614 23.8781 43.4945 20.4927 43.6346C18.2098 43.6297 16.3798 43.4941 17.7661 37.9445L19.6374 30.485C21.3791 25.0473 23.8786 25.0473 24.5035 25.0473L24.5031 25.0471ZM31.9995 29.3205V29.3216C31.9963 29.3252 28.4355 32.9604 27.7953 34.2533L30.1271 34.1495V36.4099C30.1271 36.5158 31.0628 36.4726 31.9995 36.4244H32.0005C32.9369 36.4726 33.8727 36.5158 33.8727 36.4099V34.1495L36.2046 34.2533C35.5642 32.9604 32.0003 29.3216 32.0003 29.3216V29.3205L31.9998 29.3209L31.9995 29.3205Z" fill="white"/>
</g>
<g filter="url(#filter1_d_3_19)">
<path d="M62.2614 24.5H60.3977L64.5852 12.8636H66.6136L70.8011 24.5H68.9375L65.6477 14.9773H65.5568L62.2614 24.5ZM62.5739 19.9432H68.6193V21.4204H62.5739V19.9432ZM78.7173 15.7727L75.5526 24.5H73.7344L70.5639 15.7727H72.3878L74.598 22.4886H74.6889L76.8935 15.7727H78.7173ZM82.6037 24.6932C82.0507 24.6932 81.5507 24.5909 81.1037 24.3864C80.6567 24.178 80.3026 23.8769 80.0412 23.4829C79.7836 23.089 79.6548 22.6061 79.6548 22.0341C79.6548 21.5417 79.7495 21.1364 79.9389 20.8182C80.1283 20.5 80.384 20.2481 80.706 20.0625C81.0279 19.8769 81.3878 19.7367 81.7855 19.642C82.1832 19.5473 82.5885 19.4754 83.0014 19.4261C83.5241 19.3655 83.9484 19.3163 84.2741 19.2784C84.5999 19.2367 84.8366 19.1704 84.9844 19.0795C85.1321 18.9886 85.206 18.8409 85.206 18.6364V18.5966C85.206 18.1004 85.0658 17.7159 84.7855 17.4432C84.509 17.1704 84.0961 17.0341 83.5469 17.0341C82.9749 17.0341 82.5241 17.161 82.1946 17.4148C81.8688 17.6648 81.6435 17.9432 81.5185 18.25L79.9219 17.8864C80.1113 17.3561 80.3878 16.928 80.7514 16.6023C81.1188 16.2727 81.5412 16.0341 82.0185 15.8864C82.4957 15.7348 82.9976 15.6591 83.5241 15.6591C83.8726 15.6591 84.2419 15.7008 84.6321 15.7841C85.026 15.8636 85.3935 16.0114 85.7344 16.2273C86.0791 16.4432 86.3613 16.7519 86.581 17.1534C86.8007 17.5511 86.9105 18.0682 86.9105 18.7045V24.5H85.2514V23.3068H85.1832C85.0734 23.5265 84.9086 23.7424 84.6889 23.9545C84.4692 24.1667 84.187 24.3428 83.8423 24.4829C83.4976 24.6231 83.0847 24.6932 82.6037 24.6932ZM82.973 23.3295C83.4427 23.3295 83.8442 23.2367 84.1775 23.0511C84.5147 22.8655 84.7704 22.6231 84.9446 22.3239C85.1226 22.0208 85.2116 21.697 85.2116 21.3523V20.2273C85.151 20.2879 85.0336 20.3447 84.8594 20.3977C84.6889 20.447 84.4938 20.4905 84.2741 20.5284C84.0544 20.5625 83.8404 20.5947 83.6321 20.625C83.4238 20.6515 83.2495 20.6742 83.1094 20.6932C82.7798 20.7348 82.4787 20.8049 82.206 20.9034C81.937 21.0019 81.7211 21.1439 81.5582 21.3295C81.3991 21.5114 81.3196 21.7538 81.3196 22.0568C81.3196 22.4773 81.4749 22.7954 81.7855 23.0114C82.0961 23.2235 82.4919 23.3295 82.973 23.3295ZM89.1733 24.5V15.7727H90.8722V24.5H89.1733ZM90.0312 14.4261C89.7358 14.4261 89.482 14.3276 89.2699 14.1307C89.0615 13.9299 88.9574 13.6913 88.9574 13.4148C88.9574 13.1345 89.0615 12.8958 89.2699 12.6989C89.482 12.4981 89.7358 12.3977 90.0312 12.3977C90.3267 12.3977 90.5786 12.4981 90.7869 12.6989C90.999 12.8958 91.1051 13.1345 91.1051 13.4148C91.1051 13.6913 90.999 13.9299 90.7869 14.1307C90.5786 14.3276 90.3267 14.4261 90.0312 14.4261ZM94.8565 12.8636V24.5H93.1577V12.8636H94.8565ZM99.6818 24.6932C99.1288 24.6932 98.6288 24.5909 98.1818 24.3864C97.7348 24.178 97.3807 23.8769 97.1193 23.4829C96.8617 23.089 96.7329 22.6061 96.7329 22.0341C96.7329 21.5417 96.8276 21.1364 97.017 20.8182C97.2064 20.5 97.4621 20.2481 97.7841 20.0625C98.106 19.8769 98.4659 19.7367 98.8636 19.642C99.2614 19.5473 99.6667 19.4754 100.08 19.4261C100.602 19.3655 101.027 19.3163 101.352 19.2784C101.678 19.2367 101.915 19.1704 102.062 19.0795C102.21 18.9886 102.284 18.8409 102.284 18.6364V18.5966C102.284 18.1004 102.144 17.7159 101.864 17.4432C101.587 17.1704 101.174 17.0341 100.625 17.0341C100.053 17.0341 99.6023 17.161 99.2727 17.4148C98.947 17.6648 98.7216 17.9432 98.5966 18.25L97 17.8864C97.1894 17.3561 97.4659 16.928 97.8295 16.6023C98.197 16.2727 98.6193 16.0341 99.0966 15.8864C99.5739 15.7348 100.076 15.6591 100.602 15.6591C100.951 15.6591 101.32 15.7008 101.71 15.7841C102.104 15.8636 102.472 16.0114 102.812 16.2273C103.157 16.4432 103.439 16.7519 103.659 17.1534C103.879 17.5511 103.989 18.0682 103.989 18.7045V24.5H102.33V23.3068H102.261C102.152 23.5265 101.987 23.7424 101.767 23.9545C101.547 24.1667 101.265 24.3428 100.92 24.4829C100.576 24.6231 100.163 24.6932 99.6818 24.6932ZM100.051 23.3295C100.521 23.3295 100.922 23.2367 101.256 23.0511C101.593 22.8655 101.848 22.6231 102.023 22.3239C102.201 22.0208 102.29 21.697 102.29 21.3523V20.2273C102.229 20.2879 102.112 20.3447 101.937 20.3977C101.767 20.447 101.572 20.4905 101.352 20.5284C101.133 20.5625 100.919 20.5947 100.71 20.625C100.502 20.6515 100.328 20.6742 100.187 20.6932C99.8579 20.7348 99.5568 20.8049 99.2841 20.9034C99.0151 21.0019 98.7992 21.1439 98.6364 21.3295C98.4773 21.5114 98.3977 21.7538 98.3977 22.0568C98.3977 22.4773 98.553 22.7954 98.8636 23.0114C99.1742 23.2235 99.5701 23.3295 100.051 23.3295ZM106.388 24.5V12.8636H108.087V17.1875H108.189C108.287 17.0057 108.429 16.7954 108.615 16.5568C108.801 16.3182 109.058 16.1098 109.388 15.9318C109.717 15.75 110.153 15.6591 110.695 15.6591C111.399 15.6591 112.028 15.8371 112.581 16.1932C113.134 16.5492 113.568 17.0625 113.882 17.7329C114.2 18.4034 114.359 19.2102 114.359 20.1534C114.359 21.0966 114.202 21.9053 113.888 22.5795C113.573 23.25 113.142 23.767 112.592 24.1307C112.043 24.4905 111.416 24.6704 110.712 24.6704C110.181 24.6704 109.748 24.5814 109.41 24.4034C109.077 24.2254 108.816 24.017 108.626 23.7784C108.437 23.5398 108.291 23.3276 108.189 23.142H108.047V24.5H106.388ZM108.053 20.1364C108.053 20.75 108.142 21.2879 108.32 21.75C108.498 22.2121 108.755 22.5739 109.092 22.8352C109.429 23.0928 109.842 23.2216 110.331 23.2216C110.839 23.2216 111.263 23.0871 111.604 22.8182C111.945 22.5454 112.202 22.1761 112.376 21.7102C112.554 21.2443 112.643 20.7197 112.643 20.1364C112.643 19.5606 112.556 19.0436 112.382 18.5852C112.212 18.1269 111.954 17.7651 111.609 17.5C111.268 17.2348 110.842 17.1023 110.331 17.1023C109.839 17.1023 109.422 17.2292 109.081 17.4829C108.744 17.7367 108.488 18.0909 108.314 18.5454C108.14 19 108.053 19.5303 108.053 20.1364ZM117.966 12.8636V24.5H116.267V12.8636H117.966ZM124.013 24.6761C123.153 24.6761 122.412 24.4924 121.791 24.125C121.174 23.7538 120.696 23.2329 120.359 22.5625C120.026 21.8883 119.859 21.0985 119.859 20.1932C119.859 19.2992 120.026 18.5114 120.359 17.8295C120.696 17.1477 121.166 16.6155 121.768 16.2329C122.375 15.8504 123.083 15.6591 123.893 15.6591C124.386 15.6591 124.863 15.7405 125.325 15.9034C125.787 16.0663 126.202 16.322 126.57 16.6704C126.937 17.0189 127.227 17.4716 127.439 18.0284C127.651 18.5814 127.757 19.2538 127.757 20.0454V20.6477H120.82V19.375H126.092C126.092 18.928 126.001 18.5322 125.82 18.1875C125.638 17.839 125.382 17.5644 125.053 17.3636C124.727 17.1629 124.344 17.0625 123.905 17.0625C123.428 17.0625 123.011 17.1799 122.655 17.4148C122.303 17.6458 122.03 17.9489 121.837 18.3239C121.647 18.6951 121.553 19.0985 121.553 19.5341V20.5284C121.553 21.1117 121.655 21.6079 121.859 22.017C122.068 22.4261 122.357 22.7386 122.729 22.9545C123.1 23.1667 123.534 23.2727 124.03 23.2727C124.352 23.2727 124.645 23.2273 124.91 23.1364C125.176 23.0417 125.405 22.9015 125.598 22.7159C125.791 22.5303 125.939 22.3011 126.041 22.0284L127.649 22.3182C127.52 22.7917 127.289 23.2064 126.956 23.5625C126.626 23.9148 126.212 24.1894 125.712 24.3864C125.215 24.5795 124.649 24.6761 124.013 24.6761ZM137.553 24.6761C136.734 24.6761 136.02 24.4886 135.41 24.1136C134.801 23.7386 134.327 23.214 133.99 22.5398C133.653 21.8655 133.484 21.0776 133.484 20.1761C133.484 19.2708 133.653 18.4792 133.99 17.8011C134.327 17.1231 134.801 16.5966 135.41 16.2216C136.02 15.8466 136.734 15.6591 137.553 15.6591C138.371 15.6591 139.085 15.8466 139.695 16.2216C140.304 16.5966 140.778 17.1231 141.115 17.8011C141.452 18.4792 141.621 19.2708 141.621 20.1761C141.621 21.0776 141.452 21.8655 141.115 22.5398C140.778 23.214 140.304 23.7386 139.695 24.1136C139.085 24.4886 138.371 24.6761 137.553 24.6761ZM137.558 23.25C138.089 23.25 138.528 23.1098 138.876 22.8295C139.225 22.5492 139.482 22.1761 139.649 21.7102C139.82 21.2443 139.905 20.7311 139.905 20.1704C139.905 19.6136 139.82 19.1023 139.649 18.6364C139.482 18.1667 139.225 17.7898 138.876 17.5057C138.528 17.2216 138.089 17.0795 137.558 17.0795C137.024 17.0795 136.581 17.2216 136.229 17.5057C135.88 17.7898 135.621 18.1667 135.45 18.6364C135.284 19.1023 135.2 19.6136 135.2 20.1704C135.2 20.7311 135.284 21.2443 135.45 21.7102C135.621 22.1761 135.88 22.5492 136.229 22.8295C136.581 23.1098 137.024 23.25 137.558 23.25ZM145.216 19.3182V24.5H143.517V15.7727H145.148V17.1932H145.256C145.456 16.7311 145.771 16.3598 146.199 16.0795C146.631 15.7992 147.174 15.6591 147.83 15.6591C148.424 15.6591 148.945 15.7841 149.392 16.0341C149.839 16.2803 150.186 16.6477 150.432 17.1364C150.678 17.625 150.801 18.2292 150.801 18.9489V24.5H149.102V19.1534C149.102 18.5208 148.937 18.0265 148.608 17.6704C148.278 17.3106 147.826 17.1307 147.25 17.1307C146.856 17.1307 146.506 17.2159 146.199 17.3864C145.896 17.5568 145.655 17.8068 145.477 18.1364C145.303 18.4621 145.216 18.8561 145.216 19.3182Z" fill="#E8E8E8"/>
<path d="M63.924 31.1364V43.5H60.9357V31.1364H63.924ZM71.034 34.2273V36.4006H65.1842V34.2273H71.034ZM66.4097 32.0057H69.3618V40.5842C69.3618 40.7653 69.3899 40.9122 69.4463 41.0248C69.5067 41.1335 69.5932 41.212 69.7059 41.2603C69.8186 41.3046 69.9534 41.3267 70.1103 41.3267C70.223 41.3267 70.3418 41.3166 70.4665 41.2965C70.5953 41.2724 70.6919 41.2522 70.7563 41.2361L71.203 43.3672C71.0622 43.4074 70.863 43.4577 70.6054 43.5181C70.3518 43.5785 70.048 43.6167 69.6938 43.6328C69.0016 43.665 68.4079 43.5845 67.9129 43.3913C67.4219 43.1941 67.0456 42.8882 66.784 42.4737C66.5264 42.0592 66.4017 41.538 66.4097 40.9101V32.0057ZM76.7691 43.6751C75.7911 43.6751 74.952 43.4738 74.2517 43.0714C73.5554 42.6689 73.0201 42.1095 72.6459 41.3931C72.2716 40.6727 72.0844 39.8396 72.0844 38.8938C72.0844 37.944 72.2716 37.1109 72.6459 36.3945C73.0242 35.6741 73.5615 35.1127 74.2577 34.7102C74.958 34.3078 75.7931 34.1065 76.763 34.1065C77.6203 34.1065 78.3669 34.2615 79.0027 34.5714C79.6427 34.8813 80.1417 35.3199 80.4999 35.8874C80.8621 36.4509 81.0533 37.1129 81.0734 37.8736H78.3145C78.2582 37.3987 78.0972 37.0264 77.8316 36.7567C77.57 36.4871 77.2279 36.3523 76.8053 36.3523C76.4632 36.3523 76.1634 36.4489 75.9058 36.642C75.6482 36.8312 75.447 37.1129 75.3021 37.4872C75.1612 37.8575 75.0908 38.3163 75.0908 38.8636C75.0908 39.411 75.1612 39.8738 75.3021 40.2521C75.447 40.6264 75.6482 40.9101 75.9058 41.1033C76.1634 41.2925 76.4632 41.3871 76.8053 41.3871C77.079 41.3871 77.3205 41.3287 77.5297 41.212C77.743 41.0953 77.9181 40.9242 78.0549 40.6989C78.1918 40.4694 78.2783 40.1918 78.3145 39.8658H81.0734C81.0452 40.6304 80.8541 41.2985 80.4999 41.87C80.1498 42.4415 79.6567 42.8862 79.0209 43.2042C78.389 43.5181 77.6384 43.6751 76.7691 43.6751ZM85.5362 38.2116V43.5H82.5842V31.1364H85.4396V35.9297H85.5423C85.7515 35.3582 86.0936 34.9114 86.5685 34.5895C87.0475 34.2675 87.633 34.1065 88.3253 34.1065C88.9773 34.1065 89.5447 34.2514 90.0277 34.5412C90.5106 34.8269 90.8849 35.2314 91.1506 35.7546C91.4202 36.2778 91.553 36.8895 91.549 37.5898V43.5H88.5969V38.1694C88.601 37.6542 88.4722 37.2518 88.2106 36.962C87.949 36.6722 87.5807 36.5273 87.1058 36.5273C86.7959 36.5273 86.5222 36.5958 86.2848 36.7326C86.0514 36.8654 85.8682 37.0566 85.7354 37.3061C85.6066 37.5556 85.5402 37.8575 85.5362 38.2116ZM95.0519 43.6751C94.6173 43.6751 94.245 43.5221 93.9351 43.2163C93.6292 42.9104 93.4783 42.5401 93.4823 42.1055C93.4783 41.6788 93.6292 41.3146 93.9351 41.0128C94.245 40.7069 94.6173 40.554 95.0519 40.554C95.4624 40.554 95.8247 40.7069 96.1386 41.0128C96.4565 41.3146 96.6175 41.6788 96.6215 42.1055C96.6175 42.3952 96.541 42.6588 96.3921 42.8963C96.2472 43.1337 96.0561 43.3229 95.8186 43.4638C95.5852 43.6046 95.3296 43.6751 95.0519 43.6751ZM101.56 31.1364V43.5H98.5715V31.1364H101.56ZM115.105 37.3182C115.105 38.6785 114.843 39.8315 114.32 40.7773C113.797 41.7231 113.089 42.4415 112.195 42.9325C111.306 43.4235 110.308 43.669 109.201 43.669C108.09 43.669 107.09 43.4215 106.201 42.9265C105.311 42.4315 104.605 41.7131 104.082 40.7713C103.562 39.8255 103.303 38.6745 103.303 37.3182C103.303 35.9578 103.562 34.8048 104.082 33.859C104.605 32.9132 105.311 32.1948 106.201 31.7038C107.09 31.2128 108.09 30.9673 109.201 30.9673C110.308 30.9673 111.306 31.2128 112.195 31.7038C113.089 32.1948 113.797 32.9132 114.32 33.859C114.843 34.8048 115.105 35.9578 115.105 37.3182ZM112.05 37.3182C112.05 36.5132 111.936 35.8331 111.706 35.2777C111.481 34.7223 111.155 34.3017 110.728 34.016C110.306 33.7302 109.797 33.5873 109.201 33.5873C108.609 33.5873 108.1 33.7302 107.674 34.016C107.247 34.3017 106.919 34.7223 106.69 35.2777C106.464 35.8331 106.352 36.5132 106.352 37.3182C106.352 38.1231 106.464 38.8033 106.69 39.3587C106.919 39.9141 107.247 40.3346 107.674 40.6204C108.1 40.9061 108.609 41.049 109.201 41.049C109.797 41.049 110.306 40.9061 110.728 40.6204C111.155 40.3346 111.481 39.9141 111.706 39.3587C111.936 38.8033 112.05 38.1231 112.05 37.3182Z" fill="white"/>
</g>
<defs>
<filter id="filter0_d_3_19" x="6.28571" y="2.28571" width="51.4286" height="51.4286" filterUnits="userSpaceOnUse" color-interpolation-filters="sRGB">
<feFlood flood-opacity="0" result="BackgroundImageFix"/>
<feColorMatrix in="SourceAlpha" type="matrix" values="0 0 0 0 0 0 0 0 0 0 0 0 0 0 0 0 0 0 127 0" result="hardAlpha"/>
<feOffset/>
<feGaussianBlur stdDeviation="2.85714"/>
<feComposite in2="hardAlpha" operator="out"/>
<feColorMatrix type="matrix" values="0 0 0 0 0 0 0 0 0 0 0 0 0 0 0 0 0 0 0.25 0"/>
<feBlend mode="normal" in2="BackgroundImageFix" result="effect1_dropShadow_3_19"/>
<feBlend mode="normal" in="SourceGraphic" in2="effect1_dropShadow_3_19" result="shape"/>
</filter>
<filter id="filter1_d_3_19" x="54.4" y="3.9" width="103.2" height="48.2" filterUnits="userSpaceOnUse" color-interpolation-filters="sRGB">
<feFlood flood-opacity="0" result="BackgroundImageFix"/>
<feColorMatrix in="SourceAlpha" type="matrix" values="0 0 0 0 0 0 0 0 0 0 0 0 0 0 0 0 0 0 127 0" result="hardAlpha"/>
<feOffset/>
<feGaussianBlur stdDeviation="2.8"/>
<feComposite in2="hardAlpha" operator="out"/>
<feColorMatrix type="matrix" values="0 0 0 0 0 0 0 0 0 0 0 0 0 0 0 0 0 0 0.25 0"/>
<feBlend mode="normal" in2="BackgroundImageFix" result="effect1_dropShadow_3_19"/>
<feBlend mode="normal" in="SourceGraphic" in2="effect1_dropShadow_3_19" result="shape"/>
</filter>
<linearGradient id="paint0_linear_3_19" x1="82" y1="0" x2="82" y2="56" gradientUnits="userSpaceOnUse">
<stop stop-color="#FA5C5C"/>
<stop offset="1" stop-color="#FA5C5C"/>
</linearGradient>
</defs>
</svg>
