<svg width="100" height="32" viewBox="0 0 100 32" fill="none" xmlns="http://www.w3.org/2000/svg">
<path d="M95 0H31V32H95C97.7614 32 100 29.7614 100 27V5C100 2.23858 97.7614 0 95 0Z" fill="#0F1418"/>
<path d="M31 0H5C2.23858 0 0 2.23858 0 5V27C0 29.7614 2.23858 32 5 32H31V0Z" fill="#FA5C5C"/>
<path d="M6.25935 6.12368C5.16886 6.69948 3.02038 8.8944 3 9.47002V10.4228C3 11.6306 4.26951 12.6921 5.42215 12.6921C6.80618 12.6921 7.95933 11.6721 7.95943 10.4614C7.95943 11.6721 9.07306 12.6921 10.4572 12.6921C11.8414 12.6921 12.9193 11.6721 12.9193 10.4614C12.9193 11.6721 14.1034 12.6921 15.4875 12.6921H15.5126C16.8968 12.6921 18.081 11.6721 18.081 10.4614C18.081 11.6721 19.1589 12.6921 20.5429 12.6921C21.9271 12.6921 23.0407 11.6721 23.0407 10.4614C23.0407 11.6721 24.1941 12.6921 25.578 12.6921C26.7306 12.6921 28.0001 11.6308 28.0001 10.4228V9.47002C27.9798 8.89431 25.8313 6.6993 24.741 6.12368C21.3516 6.01786 19.0019 5.99956 15.5 6.00001C11.9981 6.00028 7.22391 6.04894 6.25915 6.12368H6.25935ZM12.9018 12.1233C12.7694 12.3285 12.6055 12.5162 12.4147 12.681C11.8923 13.1353 11.1761 13.4169 10.3866 13.4169C9.62684 13.4175 8.89712 13.1532 8.35414 12.6806C8.16484 12.5157 8.02097 12.3394 7.88923 12.1341L7.88862 12.1345C7.75699 12.3401 7.57359 12.5164 7.38388 12.6814C6.84069 13.1537 6.11105 13.4178 5.35144 13.4172C5.25628 13.4172 5.15725 13.3938 5.07716 13.3693C4.9659 14.3997 4.91893 15.3844 4.90233 16.1024L4.90212 16.1064C4.90008 16.471 4.89805 16.7708 4.89601 17.1874C4.9174 19.3492 4.65525 24.1943 5.96786 25.3847C8.00192 25.8065 11.7448 25.9986 15.4999 25.9997H15.5005C19.2554 25.9986 22.9983 25.8065 25.0324 25.3847C26.345 24.1942 26.0828 19.3491 26.1042 17.1873C26.102 16.7708 26.1001 16.471 26.0981 16.1063L26.0978 16.1023C26.0813 15.3841 26.0343 14.3995 25.9231 13.3691C25.843 13.3936 25.7441 13.417 25.6488 13.417C24.8892 13.4176 24.1595 13.1535 23.6164 12.6813C23.4266 12.5162 23.2432 12.34 23.1115 12.1343L23.1109 12.1339C22.9791 12.3392 22.8353 12.5156 22.646 12.6805C22.103 13.153 21.3733 13.4173 20.6137 13.4166C19.8242 13.4166 19.108 13.1348 18.5855 12.6806C18.3947 12.5158 18.2308 12.3281 18.0985 12.123C17.9676 12.3279 17.8051 12.5156 17.6159 12.6806C17.0728 13.1531 16.3431 13.4174 15.5833 13.4167C15.5558 13.4167 15.5283 13.4156 15.5008 13.4149H15.5001C15.4726 13.4156 15.445 13.4167 15.4172 13.4167C14.6575 13.4174 13.9277 13.1532 13.3846 12.6807C13.1954 12.5157 13.033 12.328 12.9021 12.123L12.9018 12.1233ZM10.8145 14.5235L10.8143 14.5244H10.8158C11.6424 14.5259 12.3767 14.5244 13.2866 15.4074C14.0026 15.3406 14.7509 15.3073 15.4998 15.3083H15.5004C16.2492 15.3074 16.9975 15.3406 17.7137 15.4074C18.6235 14.5243 19.3578 14.5258 20.1844 14.5244H20.1858L20.1856 14.5235C20.5762 14.5235 22.1384 14.5235 23.2269 17.2423L24.3962 20.972C25.2626 23.7467 24.1188 23.8146 22.6919 23.8171C20.576 23.747 19.4044 22.3805 19.4044 21.0142C18.2331 21.1849 16.8667 21.2702 15.5003 21.2703H15.4997C14.1332 21.2703 12.7668 21.1849 11.5956 21.0142C11.5956 22.3805 10.4239 23.747 8.30799 23.8171C6.88117 23.8146 5.73739 23.7468 6.60383 20.972L7.77339 17.2424C8.86195 14.5236 10.4242 14.5236 10.8147 14.5236L10.8145 14.5235ZM15.4998 16.6601V16.6607C15.4977 16.6625 13.2722 18.48 12.8721 19.1265L14.3295 19.0746V20.2048C14.3295 20.2577 14.9143 20.2361 15.4998 20.212H15.5004C16.0856 20.2361 16.6705 20.2577 16.6705 20.2048V19.0746L18.1279 19.1265C17.7277 18.48 15.5003 16.6607 15.5003 16.6607V16.6601L15.5 16.6603L15.4998 16.6601Z" fill="white"/>
<path d="M44.4975 10.47V21H41.9325V10.47H44.4975ZM51.2013 18.825V21H49.8963C48.9663 21 48.2413 20.775 47.7213 20.325C47.2013 19.865 46.9413 19.12 46.9413 18.09V14.76H45.9213V12.63H46.9413V10.59H49.5063V12.63H51.1863V14.76H49.5063V18.12C49.5063 18.37 49.5663 18.55 49.6863 18.66C49.8063 18.77 50.0063 18.825 50.2863 18.825H51.2013ZM52.3001 16.815C52.3001 15.945 52.4751 15.185 52.8251 14.535C53.1851 13.885 53.6801 13.385 54.3101 13.035C54.9501 12.685 55.6801 12.51 56.5001 12.51C57.5501 12.51 58.4251 12.785 59.1251 13.335C59.8351 13.885 60.3001 14.66 60.5201 15.66H57.7901C57.5601 15.02 57.1151 14.7 56.4551 14.7C55.9851 14.7 55.6101 14.885 55.3301 15.255C55.0501 15.615 54.9101 16.135 54.9101 16.815C54.9101 17.495 55.0501 18.02 55.3301 18.39C55.6101 18.75 55.9851 18.93 56.4551 18.93C57.1151 18.93 57.5601 18.61 57.7901 17.97H60.5201C60.3001 18.95 59.8351 19.72 59.1251 20.28C58.4151 20.84 57.5401 21.12 56.5001 21.12C55.6801 21.12 54.9501 20.945 54.3101 20.595C53.6801 20.245 53.1851 19.745 52.8251 19.095C52.4751 18.445 52.3001 17.685 52.3001 16.815ZM67.2171 12.54C68.1771 12.54 68.9471 12.86 69.5271 13.5C70.1071 14.13 70.3971 15 70.3971 16.11V21H67.8471V16.455C67.8471 15.895 67.7021 15.46 67.4121 15.15C67.1221 14.84 66.7321 14.685 66.2421 14.685C65.7521 14.685 65.3621 14.84 65.0721 15.15C64.7821 15.46 64.6371 15.895 64.6371 16.455V21H62.0721V9.9H64.6371V13.755C64.8971 13.385 65.2521 13.09 65.7021 12.87C66.1521 12.65 66.6571 12.54 67.2171 12.54ZM73.5595 21.12C73.1095 21.12 72.7395 20.99 72.4495 20.73C72.1695 20.46 72.0295 20.13 72.0295 19.74C72.0295 19.34 72.1695 19.005 72.4495 18.735C72.7395 18.465 73.1095 18.33 73.5595 18.33C73.9995 18.33 74.3595 18.465 74.6395 18.735C74.9295 19.005 75.0745 19.34 75.0745 19.74C75.0745 20.13 74.9295 20.46 74.6395 20.73C74.3595 20.99 73.9995 21.12 73.5595 21.12ZM78.0629 11.76C77.6129 11.76 77.2429 11.63 76.9529 11.37C76.6729 11.1 76.5329 10.77 76.5329 10.38C76.5329 9.98 76.6729 9.65 76.9529 9.39C77.2429 9.12 77.6129 8.985 78.0629 8.985C78.5029 8.985 78.8629 9.12 79.1429 9.39C79.4329 9.65 79.5779 9.98 79.5779 10.38C79.5779 10.77 79.4329 11.1 79.1429 11.37C78.8629 11.63 78.5029 11.76 78.0629 11.76ZM79.3379 12.63V21H76.7729V12.63H79.3379ZM85.1867 21.12C84.3667 21.12 83.6267 20.945 82.9667 20.595C82.3167 20.245 81.8017 19.745 81.4217 19.095C81.0517 18.445 80.8667 17.685 80.8667 16.815C80.8667 15.955 81.0567 15.2 81.4367 14.55C81.8167 13.89 82.3367 13.385 82.9967 13.035C83.6567 12.685 84.3967 12.51 85.2167 12.51C86.0367 12.51 86.7767 12.685 87.4367 13.035C88.0967 13.385 88.6167 13.89 88.9967 14.55C89.3767 15.2 89.5667 15.955 89.5667 16.815C89.5667 17.675 89.3717 18.435 88.9817 19.095C88.6017 19.745 88.0767 20.245 87.4067 20.595C86.7467 20.945 86.0067 21.12 85.1867 21.12ZM85.1867 18.9C85.6767 18.9 86.0917 18.72 86.4317 18.36C86.7817 18 86.9567 17.485 86.9567 16.815C86.9567 16.145 86.7867 15.63 86.4467 15.27C86.1167 14.91 85.7067 14.73 85.2167 14.73C84.7167 14.73 84.3017 14.91 83.9717 15.27C83.6417 15.62 83.4767 16.135 83.4767 16.815C83.4767 17.485 83.6367 18 83.9567 18.36C84.2867 18.72 84.6967 18.9 85.1867 18.9Z" fill="white"/>
<path d="M95 0H5C2.23858 0 0 2.23858 0 5V27C0 29.7614 2.23858 32 5 32H95C97.7614 32 100 29.7614 100 27V5C100 2.23858 97.7614 0 95 0Z" fill="url(#paint0_linear_19_131)"/>
<defs>
<linearGradient id="paint0_linear_19_131" x1="0" y1="0" x2="0" y2="32" gradientUnits="userSpaceOnUse">
<stop stop-color="#BBBBBB" stop-opacity="0.1"/>
<stop offset="1" stop-opacity="0.1"/>
</linearGradient>
</defs>
</svg>
