<svg width="164" height="56" viewBox="0 0 164 56" fill="none" xmlns="http://www.w3.org/2000/svg">
<rect width="164" height="56" rx="8" fill="url(#paint0_linear_2014_24)"/>
<rect x="1.05" y="1.05" width="161.9" height="53.9" rx="6.95" stroke="#222222" stroke-opacity="0.15" stroke-width="2.1"/>
<g filter="url(#filter0_d_2014_24)">
<path fill-rule="evenodd" clip-rule="evenodd" d="M16.7433 16.1604C16.7933 15.5411 16.605 14.9301 16.2383 14.5145L12.505 8.84606V8H24.1017L33.065 32.7625L40.945 8H52V8.84606L48.8067 12.7027C48.5317 12.9672 48.395 13.4018 48.4517 13.8322V42.1699C48.395 42.5982 48.5317 43.0328 48.8067 43.2973L51.925 47.1539V48H36.2383V47.1539L39.47 43.2029C39.7867 42.804 39.7867 42.6864 39.7867 42.0755V19.1709L30.805 47.9076H29.5917L19.1333 19.1709V38.4309C19.0467 39.2392 19.26 40.0558 19.7117 40.6395L23.9133 47.0595V47.9076H12V47.0595L16.2017 40.6395C16.6517 40.0537 16.8517 39.2329 16.7433 38.4309V16.1604Z" fill="white"/>
</g>
<g filter="url(#filter1_d_2014_24)">
<path d="M62.2614 24.5H60.3977L64.5852 12.8636H66.6136L70.8011 24.5H68.9375L65.6477 14.9773H65.5568L62.2614 24.5ZM62.5739 19.9432H68.6193V21.4205H62.5739V19.9432ZM78.7173 15.7727L75.5526 24.5H73.7344L70.5639 15.7727H72.3878L74.598 22.4886H74.6889L76.8935 15.7727H78.7173ZM82.6037 24.6932C82.0507 24.6932 81.5507 24.5909 81.1037 24.3864C80.6567 24.178 80.3026 23.8769 80.0412 23.483C79.7836 23.089 79.6548 22.6061 79.6548 22.0341C79.6548 21.5417 79.7495 21.1364 79.9389 20.8182C80.1283 20.5 80.384 20.2481 80.706 20.0625C81.0279 19.8769 81.3878 19.7367 81.7855 19.642C82.1832 19.5473 82.5885 19.4754 83.0014 19.4261C83.5241 19.3655 83.9484 19.3163 84.2741 19.2784C84.5999 19.2367 84.8366 19.1705 84.9844 19.0795C85.1321 18.9886 85.206 18.8409 85.206 18.6364V18.5966C85.206 18.1004 85.0658 17.7159 84.7855 17.4432C84.509 17.1705 84.0961 17.0341 83.5469 17.0341C82.9749 17.0341 82.5241 17.161 82.1946 17.4148C81.8688 17.6648 81.6435 17.9432 81.5185 18.25L79.9219 17.8864C80.1113 17.3561 80.3878 16.928 80.7514 16.6023C81.1188 16.2727 81.5412 16.0341 82.0185 15.8864C82.4957 15.7348 82.9976 15.6591 83.5241 15.6591C83.8726 15.6591 84.2419 15.7008 84.6321 15.7841C85.026 15.8636 85.3935 16.0114 85.7344 16.2273C86.0791 16.4432 86.3613 16.7519 86.581 17.1534C86.8007 17.5511 86.9105 18.0682 86.9105 18.7045V24.5H85.2514V23.3068H85.1832C85.0734 23.5265 84.9086 23.7424 84.6889 23.9545C84.4692 24.1667 84.187 24.3428 83.8423 24.483C83.4976 24.6231 83.0847 24.6932 82.6037 24.6932ZM82.973 23.3295C83.4427 23.3295 83.8442 23.2367 84.1775 23.0511C84.5147 22.8655 84.7704 22.6231 84.9446 22.3239C85.1226 22.0208 85.2116 21.697 85.2116 21.3523V20.2273C85.151 20.2879 85.0336 20.3447 84.8594 20.3977C84.6889 20.447 84.4938 20.4905 84.2741 20.5284C84.0544 20.5625 83.8404 20.5947 83.6321 20.625C83.4238 20.6515 83.2495 20.6742 83.1094 20.6932C82.7798 20.7348 82.4787 20.8049 82.206 20.9034C81.937 21.0019 81.7211 21.1439 81.5582 21.3295C81.3991 21.5114 81.3196 21.7538 81.3196 22.0568C81.3196 22.4773 81.4749 22.7955 81.7855 23.0114C82.0961 23.2235 82.4919 23.3295 82.973 23.3295ZM89.1733 24.5V15.7727H90.8722V24.5H89.1733ZM90.0312 14.4261C89.7358 14.4261 89.482 14.3276 89.2699 14.1307C89.0615 13.9299 88.9574 13.6913 88.9574 13.4148C88.9574 13.1345 89.0615 12.8958 89.2699 12.6989C89.482 12.4981 89.7358 12.3977 90.0312 12.3977C90.3267 12.3977 90.5786 12.4981 90.7869 12.6989C90.999 12.8958 91.1051 13.1345 91.1051 13.4148C91.1051 13.6913 90.999 13.9299 90.7869 14.1307C90.5786 14.3276 90.3267 14.4261 90.0312 14.4261ZM94.8565 12.8636V24.5H93.1577V12.8636H94.8565ZM99.6818 24.6932C99.1288 24.6932 98.6288 24.5909 98.1818 24.3864C97.7348 24.178 97.3807 23.8769 97.1193 23.483C96.8617 23.089 96.7329 22.6061 96.7329 22.0341C96.7329 21.5417 96.8276 21.1364 97.017 20.8182C97.2064 20.5 97.4621 20.2481 97.7841 20.0625C98.106 19.8769 98.4659 19.7367 98.8636 19.642C99.2614 19.5473 99.6667 19.4754 100.08 19.4261C100.602 19.3655 101.027 19.3163 101.352 19.2784C101.678 19.2367 101.915 19.1705 102.062 19.0795C102.21 18.9886 102.284 18.8409 102.284 18.6364V18.5966C102.284 18.1004 102.144 17.7159 101.864 17.4432C101.587 17.1705 101.174 17.0341 100.625 17.0341C100.053 17.0341 99.6023 17.161 99.2727 17.4148C98.947 17.6648 98.7216 17.9432 98.5966 18.25L97 17.8864C97.1894 17.3561 97.4659 16.928 97.8295 16.6023C98.197 16.2727 98.6193 16.0341 99.0966 15.8864C99.5739 15.7348 100.076 15.6591 100.602 15.6591C100.951 15.6591 101.32 15.7008 101.71 15.7841C102.104 15.8636 102.472 16.0114 102.812 16.2273C103.157 16.4432 103.439 16.7519 103.659 17.1534C103.879 17.5511 103.989 18.0682 103.989 18.7045V24.5H102.33V23.3068H102.261C102.152 23.5265 101.987 23.7424 101.767 23.9545C101.547 24.1667 101.265 24.3428 100.92 24.483C100.576 24.6231 100.163 24.6932 99.6818 24.6932ZM100.051 23.3295C100.521 23.3295 100.922 23.2367 101.256 23.0511C101.593 22.8655 101.848 22.6231 102.023 22.3239C102.201 22.0208 102.29 21.697 102.29 21.3523V20.2273C102.229 20.2879 102.112 20.3447 101.937 20.3977C101.767 20.447 101.572 20.4905 101.352 20.5284C101.133 20.5625 100.919 20.5947 100.71 20.625C100.502 20.6515 100.328 20.6742 100.187 20.6932C99.8579 20.7348 99.5568 20.8049 99.2841 20.9034C99.0151 21.0019 98.7992 21.1439 98.6364 21.3295C98.4773 21.5114 98.3977 21.7538 98.3977 22.0568C98.3977 22.4773 98.553 22.7955 98.8636 23.0114C99.1742 23.2235 99.5701 23.3295 100.051 23.3295ZM106.388 24.5V12.8636H108.087V17.1875H108.189C108.287 17.0057 108.429 16.7955 108.615 16.5568C108.801 16.3182 109.058 16.1098 109.388 15.9318C109.717 15.75 110.153 15.6591 110.695 15.6591C111.399 15.6591 112.028 15.8371 112.581 16.1932C113.134 16.5492 113.568 17.0625 113.882 17.733C114.2 18.4034 114.359 19.2102 114.359 20.1534C114.359 21.0966 114.202 21.9053 113.888 22.5795C113.573 23.25 113.142 23.767 112.592 24.1307C112.043 24.4905 111.416 24.6705 110.712 24.6705C110.181 24.6705 109.748 24.5814 109.41 24.4034C109.077 24.2254 108.816 24.017 108.626 23.7784C108.437 23.5398 108.291 23.3276 108.189 23.142H108.047V24.5H106.388ZM108.053 20.1364C108.053 20.75 108.142 21.2879 108.32 21.75C108.498 22.2121 108.755 22.5739 109.092 22.8352C109.429 23.0928 109.842 23.2216 110.331 23.2216C110.839 23.2216 111.263 23.0871 111.604 22.8182C111.945 22.5455 112.202 22.1761 112.376 21.7102C112.554 21.2443 112.643 20.7197 112.643 20.1364C112.643 19.5606 112.556 19.0436 112.382 18.5852C112.212 18.1269 111.954 17.7651 111.609 17.5C111.268 17.2348 110.842 17.1023 110.331 17.1023C109.839 17.1023 109.422 17.2292 109.081 17.483C108.744 17.7367 108.488 18.0909 108.314 18.5455C108.14 19 108.053 19.5303 108.053 20.1364ZM117.966 12.8636V24.5H116.267V12.8636H117.966ZM124.013 24.6761C123.153 24.6761 122.412 24.4924 121.791 24.125C121.174 23.7538 120.696 23.233 120.359 22.5625C120.026 21.8883 119.859 21.0985 119.859 20.1932C119.859 19.2992 120.026 18.5114 120.359 17.8295C120.696 17.1477 121.166 16.6155 121.768 16.233C122.375 15.8504 123.083 15.6591 123.893 15.6591C124.386 15.6591 124.863 15.7405 125.325 15.9034C125.787 16.0663 126.202 16.322 126.57 16.6705C126.937 17.0189 127.227 17.4716 127.439 18.0284C127.651 18.5814 127.757 19.2538 127.757 20.0455V20.6477H120.82V19.375H126.092C126.092 18.928 126.001 18.5322 125.82 18.1875C125.638 17.839 125.382 17.5644 125.053 17.3636C124.727 17.1629 124.344 17.0625 123.905 17.0625C123.428 17.0625 123.011 17.1799 122.655 17.4148C122.303 17.6458 122.03 17.9489 121.837 18.3239C121.647 18.6951 121.553 19.0985 121.553 19.5341V20.5284C121.553 21.1117 121.655 21.608 121.859 22.017C122.068 22.4261 122.357 22.7386 122.729 22.9545C123.1 23.1667 123.534 23.2727 124.03 23.2727C124.352 23.2727 124.645 23.2273 124.91 23.1364C125.176 23.0417 125.405 22.9015 125.598 22.7159C125.791 22.5303 125.939 22.3011 126.041 22.0284L127.649 22.3182C127.52 22.7917 127.289 23.2064 126.956 23.5625C126.626 23.9148 126.212 24.1894 125.712 24.3864C125.215 24.5795 124.649 24.6761 124.013 24.6761ZM137.553 24.6761C136.734 24.6761 136.02 24.4886 135.41 24.1136C134.801 23.7386 134.327 23.214 133.99 22.5398C133.653 21.8655 133.484 21.0776 133.484 20.1761C133.484 19.2708 133.653 18.4792 133.99 17.8011C134.327 17.1231 134.801 16.5966 135.41 16.2216C136.02 15.8466 136.734 15.6591 137.553 15.6591C138.371 15.6591 139.085 15.8466 139.695 16.2216C140.304 16.5966 140.778 17.1231 141.115 17.8011C141.452 18.4792 141.621 19.2708 141.621 20.1761C141.621 21.0776 141.452 21.8655 141.115 22.5398C140.778 23.214 140.304 23.7386 139.695 24.1136C139.085 24.4886 138.371 24.6761 137.553 24.6761ZM137.558 23.25C138.089 23.25 138.528 23.1098 138.876 22.8295C139.225 22.5492 139.482 22.1761 139.649 21.7102C139.82 21.2443 139.905 20.7311 139.905 20.1705C139.905 19.6136 139.82 19.1023 139.649 18.6364C139.482 18.1667 139.225 17.7898 138.876 17.5057C138.528 17.2216 138.089 17.0795 137.558 17.0795C137.024 17.0795 136.581 17.2216 136.229 17.5057C135.88 17.7898 135.621 18.1667 135.45 18.6364C135.284 19.1023 135.2 19.6136 135.2 20.1705C135.2 20.7311 135.284 21.2443 135.45 21.7102C135.621 22.1761 135.88 22.5492 136.229 22.8295C136.581 23.1098 137.024 23.25 137.558 23.25ZM145.216 19.3182V24.5H143.517V15.7727H145.148V17.1932H145.256C145.456 16.7311 145.771 16.3598 146.199 16.0795C146.631 15.7992 147.174 15.6591 147.83 15.6591C148.424 15.6591 148.945 15.7841 149.392 16.0341C149.839 16.2803 150.186 16.6477 150.432 17.1364C150.678 17.625 150.801 18.2292 150.801 18.9489V24.5H149.102V19.1534C149.102 18.5208 148.937 18.0265 148.608 17.6705C148.278 17.3106 147.826 17.1307 147.25 17.1307C146.856 17.1307 146.506 17.2159 146.199 17.3864C145.896 17.5568 145.655 17.8068 145.477 18.1364C145.303 18.4621 145.216 18.8561 145.216 19.3182Z" fill="#E8E8E8"/>
<path d="M60.9357 31.1364H64.6364L67.7756 38.7912H67.9205L71.0597 31.1364H74.7603V43.5H71.8505V35.9055H71.7479L68.7777 43.4215H66.9183L63.9482 35.8633H63.8455V43.5H60.9357V31.1364ZM80.9587 43.6751C79.9888 43.6751 79.1517 43.4839 78.4473 43.1016C77.7471 42.7152 77.2078 42.1658 76.8295 41.4535C76.4552 40.7371 76.268 39.8859 76.268 38.8999C76.268 37.942 76.4572 37.1049 76.8355 36.3885C77.2138 35.6681 77.7471 35.1087 78.4353 34.7102C79.1235 34.3078 79.9344 34.1065 80.8682 34.1065C81.5282 34.1065 82.1319 34.2092 82.6792 34.4144C83.2266 34.6197 83.6995 34.9235 84.0979 35.326C84.4964 35.7285 84.8062 36.2255 85.0276 36.8171C85.249 37.4047 85.3596 38.0788 85.3596 38.8395V39.576H77.3003V37.8615H82.6128C82.6088 37.5476 82.5344 37.2679 82.3895 37.0224C82.2446 36.7769 82.0454 36.5857 81.7918 36.4489C81.5423 36.308 81.2545 36.2376 80.9285 36.2376C80.5985 36.2376 80.3027 36.312 80.0411 36.4609C79.7795 36.6058 79.5722 36.805 79.4193 37.0586C79.2664 37.3081 79.1859 37.5919 79.1778 37.9098V39.6545C79.1778 40.0328 79.2523 40.3648 79.4012 40.6506C79.5501 40.9323 79.7614 41.1516 80.0351 41.3086C80.3087 41.4656 80.6347 41.544 81.013 41.544C81.2746 41.544 81.5121 41.5078 81.7254 41.4354C81.9387 41.3629 82.1218 41.2563 82.2748 41.1154C82.4277 40.9745 82.5424 40.8015 82.6189 40.5962L85.3294 40.6747C85.2168 41.2824 84.9692 41.8117 84.5869 42.2624C84.2086 42.7092 83.7116 43.0573 83.0958 43.3068C82.48 43.5523 81.7677 43.6751 80.9587 43.6751ZM90.2541 43.6328C89.5699 43.6328 88.9481 43.4557 88.3887 43.1016C87.8292 42.7474 87.3825 42.2161 87.0485 41.5078C86.7144 40.7995 86.5474 39.9201 86.5474 38.8697C86.5474 37.779 86.7205 36.8815 87.0666 36.1772C87.4127 35.4729 87.8655 34.9517 88.4249 34.6136C88.9883 34.2756 89.594 34.1065 90.242 34.1065C90.729 34.1065 91.1455 34.191 91.4916 34.3601C91.8378 34.5251 92.1235 34.7384 92.3489 35C92.5743 35.2616 92.7453 35.5333 92.862 35.815H92.9224V31.1364H95.8745V43.5H92.9526V41.9968H92.862C92.7373 42.2825 92.5602 42.5502 92.3308 42.7997C92.1014 43.0492 91.8136 43.2505 91.4675 43.4034C91.1254 43.5563 90.7209 43.6328 90.2541 43.6328ZM91.2804 41.3327C91.6385 41.3327 91.9444 41.2321 92.198 41.0309C92.4515 40.8256 92.6467 40.5379 92.7835 40.1676C92.9204 39.7973 92.9888 39.3627 92.9888 38.8636C92.9888 38.3565 92.9204 37.9199 92.7835 37.5536C92.6507 37.1874 92.4555 36.9057 92.198 36.7084C91.9444 36.5112 91.6385 36.4126 91.2804 36.4126C90.9141 36.4126 90.6042 36.5133 90.3507 36.7145C90.0971 36.9157 89.9039 37.1995 89.7711 37.5657C89.6423 37.9319 89.5779 38.3646 89.5779 38.8636C89.5779 39.3627 89.6443 39.7973 89.7772 40.1676C89.91 40.5379 90.1011 40.8256 90.3507 41.0309C90.6042 41.2321 90.9141 41.3327 91.2804 41.3327ZM97.7414 43.5V34.2273H100.693V43.5H97.7414ZM99.2204 33.1467C98.8059 33.1467 98.4497 33.0098 98.1519 32.7361C97.8541 32.4584 97.7052 32.1244 97.7052 31.734C97.7052 31.3477 97.8541 31.0176 98.1519 30.744C98.4497 30.4663 98.8059 30.3274 99.2204 30.3274C99.639 30.3274 99.9952 30.4663 100.289 30.744C100.587 31.0176 100.736 31.3477 100.736 31.734C100.736 32.1244 100.587 32.4584 100.289 32.7361C99.9952 33.0098 99.639 33.1467 99.2204 33.1467ZM108.555 39.4975V34.2273H111.501V43.5H108.688V41.7734H108.591C108.386 42.3409 108.036 42.7917 107.541 43.1257C107.05 43.4557 106.456 43.6207 105.76 43.6207C105.128 43.6207 104.573 43.4758 104.094 43.1861C103.615 42.8963 103.243 42.4918 102.977 41.9727C102.711 41.4495 102.576 40.8377 102.572 40.1374V34.2273H105.524V39.5579C105.529 40.061 105.661 40.4574 105.923 40.7472C106.185 41.0369 106.541 41.1818 106.991 41.1818C107.285 41.1818 107.549 41.1174 107.782 40.9886C108.02 40.8558 108.207 40.6647 108.344 40.4151C108.485 40.1616 108.555 39.8557 108.555 39.4975ZM113.38 43.5V34.2273H116.187V35.9297H116.29C116.483 35.3662 116.809 34.9215 117.268 34.5955C117.727 34.2695 118.274 34.1065 118.91 34.1065C119.554 34.1065 120.105 34.2715 120.564 34.6016C121.023 34.9316 121.315 35.3743 121.439 35.9297H121.536C121.709 35.3783 122.047 34.9376 122.55 34.6076C123.053 34.2736 123.647 34.1065 124.331 34.1065C125.208 34.1065 125.921 34.3883 126.468 34.9517C127.015 35.5111 127.289 36.2798 127.289 37.2578V43.5H124.337V37.9339C124.337 37.4711 124.218 37.119 123.981 36.8775C123.743 36.632 123.436 36.5092 123.057 36.5092C122.651 36.5092 122.331 36.642 122.097 36.9077C121.868 37.1693 121.753 37.5214 121.753 37.9641V43.5H118.916V37.9038C118.916 37.4731 118.799 37.133 118.566 36.8835C118.332 36.634 118.024 36.5092 117.642 36.5092C117.385 36.5092 117.157 36.5716 116.96 36.6964C116.763 36.8171 116.608 36.9902 116.495 37.2156C116.386 37.4409 116.332 37.7066 116.332 38.0124V43.5H113.38Z" fill="white"/>
</g>
<defs>
<filter id="filter0_d_2014_24" x="6.28571" y="2.28571" width="51.4286" height="51.4286" filterUnits="userSpaceOnUse" color-interpolation-filters="sRGB">
<feFlood flood-opacity="0" result="BackgroundImageFix"/>
<feColorMatrix in="SourceAlpha" type="matrix" values="0 0 0 0 0 0 0 0 0 0 0 0 0 0 0 0 0 0 127 0" result="hardAlpha"/>
<feOffset/>
<feGaussianBlur stdDeviation="2.85714"/>
<feComposite in2="hardAlpha" operator="out"/>
<feColorMatrix type="matrix" values="0 0 0 0 0 0 0 0 0 0 0 0 0 0 0 0 0 0 0.25 0"/>
<feBlend mode="normal" in2="BackgroundImageFix" result="effect1_dropShadow_2014_24"/>
<feBlend mode="normal" in="SourceGraphic" in2="effect1_dropShadow_2014_24" result="shape"/>
</filter>
<filter id="filter1_d_2014_24" x="54.4" y="3.9" width="103.2" height="48.2" filterUnits="userSpaceOnUse" color-interpolation-filters="sRGB">
<feFlood flood-opacity="0" result="BackgroundImageFix"/>
<feColorMatrix in="SourceAlpha" type="matrix" values="0 0 0 0 0 0 0 0 0 0 0 0 0 0 0 0 0 0 127 0" result="hardAlpha"/>
<feOffset/>
<feGaussianBlur stdDeviation="2.8"/>
<feComposite in2="hardAlpha" operator="out"/>
<feColorMatrix type="matrix" values="0 0 0 0 0 0 0 0 0 0 0 0 0 0 0 0 0 0 0.25 0"/>
<feBlend mode="normal" in2="BackgroundImageFix" result="effect1_dropShadow_2014_24"/>
<feBlend mode="normal" in="SourceGraphic" in2="effect1_dropShadow_2014_24" result="shape"/>
</filter>
<linearGradient id="paint0_linear_2014_24" x1="82" y1="0" x2="82" y2="56" gradientUnits="userSpaceOnUse">
<stop stop-color="#242424"/>
<stop offset="1"/>
</linearGradient>
</defs>
</svg>
