<svg width="151" height="32" viewBox="0 0 151 32" fill="none" xmlns="http://www.w3.org/2000/svg">
<path d="M146 0H31V32H146C148.761 32 151 29.7614 151 27V5C151 2.23858 148.761 0 146 0Z" fill="#0F1418"/>
<path d="M31 0H5C2.23858 0 0 2.23858 0 5V27C0 29.7614 2.23858 32 5 32H31V0Z" fill="url(#paint0_linear_19_48)"/>
<path fill-rule="evenodd" clip-rule="evenodd" d="M24 18.4634C23.757 19.624 22.6766 22.603 19.2306 24.2159L17.847 22.6738L15.512 25C14.1833 24.9823 12.8769 24.6604 11.6947 24.0595C10.5124 23.4585 9.48638 22.5948 8.69679 21.5357C8.94479 21.6123 9.20093 21.6601 9.46004 21.6782C9.84253 21.6851 10.2564 21.5461 10.2564 20.9096V14.6323C10.2618 14.471 10.229 14.3106 10.1608 14.164C10.0925 14.0174 9.99062 13.8887 9.86324 13.788C9.73587 13.6873 9.58652 13.6176 9.42711 13.5842C9.26771 13.5509 9.10265 13.5551 8.94511 13.5962C7.86385 13.843 7.00041 16.5164 7.00041 16.5164C6.98829 15.2821 7.24755 14.0601 7.76018 12.9351C8.27281 11.8102 9.02651 10.8094 9.96888 10.0024C11.2092 8.93912 12.7276 8.24499 14.3488 8C13.1683 8.66659 12.5052 9.7537 12.5052 10.6655C12.5052 12.1334 13.3974 11.9555 13.6613 11.7397V20.212C13.7063 20.3183 13.7649 20.4184 13.8357 20.5099C13.9535 20.6716 14.1088 20.803 14.2885 20.8932C14.4681 20.9832 14.6668 21.0295 14.8681 21.028C15.7612 21.028 16.92 20.0177 16.92 20.0177V13.16C16.92 12.4624 16.3894 11.6196 15.8579 11.3304C15.8579 11.3304 16.8416 11.1577 17.6005 11.7336C17.7431 11.561 17.8946 11.3959 18.0544 11.2389C19.8257 9.51625 21.4942 9.02579 22.8839 8.78056C22.8839 8.78056 20.3572 10.7484 20.3572 13.3889C20.3572 15.3524 20.4086 20.1412 20.4086 20.1412C21.3461 21.0384 22.7402 19.7423 24 18.4634Z" fill="white"/>
<path fill-rule="evenodd" clip-rule="evenodd" d="M16 4C13.2311 4 10.5243 4.73311 8.22203 6.10663C5.91974 7.48015 4.12533 9.43239 3.0657 11.7165C2.00607 14.0006 1.72882 16.5138 2.26901 18.9387C2.80921 21.3634 4.14259 23.5907 6.10051 25.3389C8.05846 27.087 10.553 28.2776 13.2688 28.7598C15.9845 29.2421 18.7995 28.9946 21.3576 28.0485C23.9158 27.1024 26.1022 25.5002 27.6406 23.4447C29.179 21.389 30 18.9723 30 16.5C30 13.1848 28.525 10.0054 25.8996 7.66116C23.274 5.31696 19.7131 4 16 4ZM16 28.4992C13.3418 28.4992 10.7433 27.7954 8.53308 26.4768C6.32287 25.1582 4.60023 23.2839 3.58302 21.0913C2.5658 18.8984 2.2997 16.4856 2.81835 14.1578C3.337 11.8301 4.61713 9.69189 6.49683 8.0137C8.37654 6.3355 10.7714 5.19267 13.3785 4.72974C15.9857 4.26681 18.6881 4.50455 21.1439 5.41293C23.5997 6.32129 25.6987 7.85948 27.1754 9.83296C28.652 11.8064 29.4402 14.1266 29.44 16.5C29.44 19.6826 28.024 22.7349 25.5036 24.9853C22.983 27.2357 19.5646 28.4999 16 28.4999V28.4992Z" fill="white"/>
<path d="M40.2181 10.47V16.77C40.2181 17.4 40.3731 17.885 40.6831 18.225C40.9931 18.565 41.4481 18.735 42.0481 18.735C42.6481 18.735 43.1081 18.565 43.4281 18.225C43.7481 17.885 43.9081 17.4 43.9081 16.77V10.47H46.4731V16.755C46.4731 17.695 46.2731 18.49 45.8731 19.14C45.4731 19.79 44.9331 20.28 44.2531 20.61C43.5831 20.94 42.8331 21.105 42.0031 21.105C41.1731 21.105 40.4281 20.945 39.7681 20.625C39.1181 20.295 38.6031 19.805 38.2231 19.155C37.8431 18.495 37.6531 17.695 37.6531 16.755V10.47H40.2181ZM53.5543 12.54C54.5343 12.54 55.3143 12.86 55.8943 13.5C56.4843 14.13 56.7793 15 56.7793 16.11V21H54.2293V16.455C54.2293 15.895 54.0843 15.46 53.7943 15.15C53.5043 14.84 53.1143 14.685 52.6243 14.685C52.1343 14.685 51.7443 14.84 51.4543 15.15C51.1643 15.46 51.0193 15.895 51.0193 16.455V21H48.4543V12.63H51.0193V13.74C51.2793 13.37 51.6293 13.08 52.0693 12.87C52.5093 12.65 53.0043 12.54 53.5543 12.54ZM61.3067 14.025C61.6067 13.565 61.9817 13.205 62.4317 12.945C62.8817 12.675 63.3817 12.54 63.9317 12.54V15.255H63.2267C62.5867 15.255 62.1067 15.395 61.7867 15.675C61.4667 15.945 61.3067 16.425 61.3067 17.115V21H58.7417V12.63H61.3067V14.025ZM73.2278 16.68C73.2278 16.92 73.2128 17.17 73.1828 17.43H67.3778C67.4178 17.95 67.5828 18.35 67.8728 18.63C68.1728 18.9 68.5378 19.035 68.9678 19.035C69.6078 19.035 70.0528 18.765 70.3028 18.225H73.0328C72.8928 18.775 72.6378 19.27 72.2678 19.71C71.9078 20.15 71.4528 20.495 70.9028 20.745C70.3528 20.995 69.7378 21.12 69.0578 21.12C68.2378 21.12 67.5078 20.945 66.8678 20.595C66.2278 20.245 65.7278 19.745 65.3678 19.095C65.0078 18.445 64.8278 17.685 64.8278 16.815C64.8278 15.945 65.0028 15.185 65.3528 14.535C65.7128 13.885 66.2128 13.385 66.8528 13.035C67.4928 12.685 68.2278 12.51 69.0578 12.51C69.8678 12.51 70.5878 12.68 71.2178 13.02C71.8478 13.36 72.3378 13.845 72.6878 14.475C73.0478 15.105 73.2278 15.84 73.2278 16.68ZM70.6028 16.005C70.6028 15.565 70.4528 15.215 70.1528 14.955C69.8528 14.695 69.4778 14.565 69.0278 14.565C68.5978 14.565 68.2328 14.69 67.9328 14.94C67.6428 15.19 67.4628 15.545 67.3928 16.005H70.6028ZM74.2509 16.8C74.2509 15.94 74.4109 15.185 74.7309 14.535C75.0609 13.885 75.5059 13.385 76.0659 13.035C76.6259 12.685 77.2509 12.51 77.9409 12.51C78.5309 12.51 79.0459 12.63 79.4859 12.87C79.9359 13.11 80.2809 13.425 80.5209 13.815V12.63H83.0859V21H80.5209V19.815C80.2709 20.205 79.9209 20.52 79.4709 20.76C79.0309 21 78.5159 21.12 77.9259 21.12C77.2459 21.12 76.6259 20.945 76.0659 20.595C75.5059 20.235 75.0609 19.73 74.7309 19.08C74.4109 18.42 74.2509 17.66 74.2509 16.8ZM80.5209 16.815C80.5209 16.175 80.3409 15.67 79.9809 15.3C79.6309 14.93 79.2009 14.745 78.6909 14.745C78.1809 14.745 77.7459 14.93 77.3859 15.3C77.0359 15.66 76.8609 16.16 76.8609 16.8C76.8609 17.44 77.0359 17.95 77.3859 18.33C77.7459 18.7 78.1809 18.885 78.6909 18.885C79.2009 18.885 79.6309 18.7 79.9809 18.33C80.3409 17.96 80.5209 17.455 80.5209 16.815ZM87.6866 9.9V21H85.1216V9.9H87.6866ZM95.6491 12.525V14.655H99.0841V16.635H95.6491V18.945H99.5341V21H93.0841V10.47H99.5341V12.525H95.6491ZM106.479 12.54C107.459 12.54 108.239 12.86 108.819 13.5C109.409 14.13 109.704 15 109.704 16.11V21H107.154V16.455C107.154 15.895 107.009 15.46 106.719 15.15C106.429 14.84 106.039 14.685 105.549 14.685C105.059 14.685 104.669 14.84 104.379 15.15C104.089 15.46 103.944 15.895 103.944 16.455V21H101.379V12.63H103.944V13.74C104.204 13.37 104.554 13.08 104.994 12.87C105.434 12.65 105.929 12.54 106.479 12.54ZM114.847 12.51C115.437 12.51 115.952 12.63 116.392 12.87C116.842 13.11 117.187 13.425 117.427 13.815V12.63H119.992V20.985C119.992 21.755 119.837 22.45 119.527 23.07C119.227 23.7 118.762 24.2 118.132 24.57C117.512 24.94 116.737 25.125 115.807 25.125C114.567 25.125 113.562 24.83 112.792 24.24C112.022 23.66 111.582 22.87 111.472 21.87H114.007C114.087 22.19 114.277 22.44 114.577 22.62C114.877 22.81 115.247 22.905 115.687 22.905C116.217 22.905 116.637 22.75 116.947 22.44C117.267 22.14 117.427 21.655 117.427 20.985V19.8C117.177 20.19 116.832 20.51 116.392 20.76C115.952 21 115.437 21.12 114.847 21.12C114.157 21.12 113.532 20.945 112.972 20.595C112.412 20.235 111.967 19.73 111.637 19.08C111.317 18.42 111.157 17.66 111.157 16.8C111.157 15.94 111.317 15.185 111.637 14.535C111.967 13.885 112.412 13.385 112.972 13.035C113.532 12.685 114.157 12.51 114.847 12.51ZM117.427 16.815C117.427 16.175 117.247 15.67 116.887 15.3C116.537 14.93 116.107 14.745 115.597 14.745C115.087 14.745 114.652 14.93 114.292 15.3C113.942 15.66 113.767 16.16 113.767 16.8C113.767 17.44 113.942 17.95 114.292 18.33C114.652 18.7 115.087 18.885 115.597 18.885C116.107 18.885 116.537 18.7 116.887 18.33C117.247 17.96 117.427 17.455 117.427 16.815ZM123.317 11.76C122.867 11.76 122.497 11.63 122.207 11.37C121.927 11.1 121.787 10.77 121.787 10.38C121.787 9.98 121.927 9.65 122.207 9.39C122.497 9.12 122.867 8.985 123.317 8.985C123.757 8.985 124.117 9.12 124.397 9.39C124.687 9.65 124.832 9.98 124.832 10.38C124.832 10.77 124.687 11.1 124.397 11.37C124.117 11.63 123.757 11.76 123.317 11.76ZM124.592 12.63V21H122.027V12.63H124.592ZM131.731 12.54C132.711 12.54 133.491 12.86 134.071 13.5C134.661 14.13 134.956 15 134.956 16.11V21H132.406V16.455C132.406 15.895 132.261 15.46 131.971 15.15C131.681 14.84 131.291 14.685 130.801 14.685C130.311 14.685 129.921 14.84 129.631 15.15C129.341 15.46 129.196 15.895 129.196 16.455V21H126.631V12.63H129.196V13.74C129.456 13.37 129.806 13.08 130.246 12.87C130.686 12.65 131.181 12.54 131.731 12.54ZM144.809 16.68C144.809 16.92 144.794 17.17 144.764 17.43H138.959C138.999 17.95 139.164 18.35 139.454 18.63C139.754 18.9 140.119 19.035 140.549 19.035C141.189 19.035 141.634 18.765 141.884 18.225H144.614C144.474 18.775 144.219 19.27 143.849 19.71C143.489 20.15 143.034 20.495 142.484 20.745C141.934 20.995 141.319 21.12 140.639 21.12C139.819 21.12 139.089 20.945 138.449 20.595C137.809 20.245 137.309 19.745 136.949 19.095C136.589 18.445 136.409 17.685 136.409 16.815C136.409 15.945 136.584 15.185 136.934 14.535C137.294 13.885 137.794 13.385 138.434 13.035C139.074 12.685 139.809 12.51 140.639 12.51C141.449 12.51 142.169 12.68 142.799 13.02C143.429 13.36 143.919 13.845 144.269 14.475C144.629 15.105 144.809 15.84 144.809 16.68ZM142.184 16.005C142.184 15.565 142.034 15.215 141.734 14.955C141.434 14.695 141.059 14.565 140.609 14.565C140.179 14.565 139.814 14.69 139.514 14.94C139.224 15.19 139.044 15.545 138.974 16.005H142.184Z" fill="white"/>
<path d="M146 0H5C2.23858 0 0 2.23858 0 5V27C0 29.7614 2.23858 32 5 32H146C148.761 32 151 29.7614 151 27V5C151 2.23858 148.761 0 146 0Z" fill="url(#paint1_linear_19_48)"/>
<defs>
<linearGradient id="paint0_linear_19_48" x1="10.6153" y1="9.68847" x2="25.7767" y2="28.9115" gradientUnits="userSpaceOnUse">
<stop stop-color="#33A5F5"/>
<stop offset="0.5" stop-color="#365394" stop-opacity="0.823529"/>
<stop offset="1" stop-color="#390033" stop-opacity="0.647059"/>
</linearGradient>
<linearGradient id="paint1_linear_19_48" x1="0" y1="0" x2="0" y2="32" gradientUnits="userSpaceOnUse">
<stop stop-color="#BBBBBB" stop-opacity="0.1"/>
<stop offset="1" stop-opacity="0.1"/>
</linearGradient>
</defs>
</svg>
